<?xml version="1.0" encoding="UTF-8" standalone="no"?>
<!-- Created with Inkscape (http://www.inkscape.org/) -->

<svg
   width="149.65778"
   height="175.16296"
   viewBox="0 0 39.596952 46.345201"
   version="1.1"
   id="svg1"
   inkscape:version="1.4 (86a8ad7, 2024-10-11)"
   sodipodi:docname="GMTK2025.svg"
   xml:space="preserve"
   inkscape:export-filename="Pit.svg"
   inkscape:export-xdpi="96"
   inkscape:export-ydpi="96"
   xmlns:inkscape="http://www.inkscape.org/namespaces/inkscape"
   xmlns:sodipodi="http://sodipodi.sourceforge.net/DTD/sodipodi-0.dtd"
   xmlns="http://www.w3.org/2000/svg"
   xmlns:svg="http://www.w3.org/2000/svg"><sodipodi:namedview
     id="namedview1"
     pagecolor="#ffffff"
     bordercolor="#000000"
     borderopacity="0.25"
     inkscape:showpageshadow="2"
     inkscape:pageopacity="0.0"
     inkscape:pagecheckerboard="true"
     inkscape:deskcolor="#d1d1d1"
     inkscape:document-units="px"
     inkscape:zoom="0.70710675"
     inkscape:cx="497.09609"
     inkscape:cy="312.54121"
     inkscape:window-width="1920"
     inkscape:window-height="1001"
     inkscape:window-x="-9"
     inkscape:window-y="-9"
     inkscape:window-maximized="1"
     inkscape:current-layer="layer7"><inkscape:page
       x="0"
       y="0"
       width="39.596951"
       height="46.3452"
       id="page2"
       margin="0"
       bleed="0" /></sodipodi:namedview><defs
     id="defs1" /><g
     id="layer5"
     inkscape:label="Mini-games"
     transform="translate(-187.72713,-37.634281)"><g
       inkscape:groupmode="layer"
       id="layer7"
       inkscape:label="Hshoes"><g
         id="g18"
         inkscape:label="Hammer"><g
           id="g20"
           inkscape:label="Tip"
           transform="rotate(-3.378269,196.58595,51.806593)"
           inkscape:transform-center-x="0.090450703"
           inkscape:transform-center-y="-0.70190466"><ellipse
             style="fill:#666666;stroke:#373e48;stroke-width:1.05833;stroke-linecap:round;stroke-linejoin:round;stroke-dasharray:none"
             id="path19"
             transform="rotate(-31.741088)"
             ry="6.0678234"
             rx="4.0231624"
             cy="146.88956"
             cx="137.38521" /><path
             style="fill:#666666;stroke:#373e48;stroke-width:1.05833;stroke-linecap:round;stroke-linejoin:round;stroke-dasharray:none"
             d="m 189.68051,55.256129 c -1.38929,-2.348553 -1.90846,-4.354085 -0.79299,-6.185808 0,0 1.3637,-1.376749 2.78105,-1.97246 -0.98076,1.136872 -0.45087,4.47659 0.79869,6.369125 1.24957,1.892536 2.41733,3.309077 5.47892,3.936738 l -2.48841,1.434298 c -3.03257,0.275519 -4.38797,-1.233339 -5.77726,-3.581893 z"
             id="path20"
             sodipodi:nodetypes="zcczccz" /></g><path
           style="fill:#373e48;stroke:#373e48;stroke-width:1.5875;stroke-linecap:round;stroke-linejoin:round;stroke-dasharray:none"
           d="m 196.8838,55.987016 2.14269,-0.146234 2.35171,-2.693 7.89634,-1.533075 c 0,0 1.9821,-3.770646 2.43849,-4.005757 1.87089,-0.65481 5.29815,-2.09867 8.20857,-2.09867 2.91041,0 5.27189,-0.332629 5.27189,-0.332629 l -9.69037,-4.497917 -7.9375,-0.198438 z"
           id="path18"
           inkscape:label="HeadB"
           sodipodi:nodetypes="cccccscccc" /><path
           style="fill:#a05a2c;stroke:#552200;stroke-width:1.5875;stroke-linecap:round;stroke-linejoin:round;stroke-dasharray:none"
           d="m 219.82918,82.880278 c 0,0 2.71529,0.947788 5.01735,-0.527219 1.59438,-1.021573 1.6838,-3.180506 1.6838,-3.180506 -6.15156,-8.797395 -20.19309,-32.838427 -24.49257,-40.180615 0,0 -1.6611,-0.782402 -3.53198,0.527219 -1.87089,1.309622 -1.40787,3.324149 -1.40787,3.324149 4.01427,7.895129 19.11755,33.633315 22.73127,40.036972 z"
           id="path16"
           sodipodi:nodetypes="csccscc"
           inkscape:label="Handle" /><path
           style="fill:#666666;stroke:#373e48;stroke-width:1.5875;stroke-linecap:round;stroke-linejoin:round;stroke-dasharray:none"
           d="m 191.76588,48.455965 4.91109,7.530319 c 0,0 0.5363,-1.219243 3.19807,-2.911652 0.95828,-0.609291 2.61103,2.393196 3.52678,1.655728 1.08217,-0.871493 6.05153,-3.219795 6.05153,-3.219795 0,0 -0.68016,-2.583436 0.45762,-4.135868 1.13267,-1.545469 3.38318,-2.472112 4.90053,-2.675178 1.51735,-0.203067 4.90075,-0.569984 4.90075,-0.569984 1.67594,0.494541 5.61696,0.919435 5.61696,0.919435 0,0 -6.45516,-6.421812 -10.01297,-6.6089 -3.5578,-0.187089 -9.15393,1.977159 -9.15393,1.977159 l -5.84554,2.713159 z"
           id="path17"
           sodipodi:nodetypes="ccsscszcczccc"
           inkscape:label="Head" /></g></g></g></svg>
