<?xml version="1.0" encoding="UTF-8" standalone="no"?>
<!-- Created with Inkscape (http://www.inkscape.org/) -->

<svg
   width="834.14337"
   height="472.11972"
   viewBox="0 0 220.70043 124.91501"
   version="1.1"
   id="svg1"
   inkscape:version="1.4 (86a8ad7, 2024-10-11)"
   sodipodi:docname="GMTK2025.svg"
   xml:space="preserve"
   inkscape:export-filename="Pit.svg"
   inkscape:export-xdpi="96"
   inkscape:export-ydpi="96"
   xmlns:inkscape="http://www.inkscape.org/namespaces/inkscape"
   xmlns:sodipodi="http://sodipodi.sourceforge.net/DTD/sodipodi-0.dtd"
   xmlns="http://www.w3.org/2000/svg"
   xmlns:svg="http://www.w3.org/2000/svg"><sodipodi:namedview
     id="namedview1"
     pagecolor="#ffffff"
     bordercolor="#000000"
     borderopacity="0.25"
     inkscape:showpageshadow="2"
     inkscape:pageopacity="0.0"
     inkscape:pagecheckerboard="true"
     inkscape:deskcolor="#d1d1d1"
     inkscape:document-units="px"
     inkscape:zoom="0.70710675"
     inkscape:cx="497.09609"
     inkscape:cy="312.54121"
     inkscape:window-width="1920"
     inkscape:window-height="1001"
     inkscape:window-x="-9"
     inkscape:window-y="-9"
     inkscape:window-maximized="1"
     inkscape:current-layer="layer7"><inkscape:page
       x="0"
       y="0"
       width="220.70042"
       height="124.91501"
       id="page2"
       margin="0"
       bleed="0" /></sodipodi:namedview><defs
     id="defs1" /><g
     id="layer5"
     inkscape:label="Mini-games"
     transform="translate(-38.385276,-19.298267)"><g
       inkscape:groupmode="layer"
       id="layer7"
       inkscape:label="Hshoes"><rect
         style="fill:#cede68;fill-opacity:1;stroke:#cede68;stroke-width:1.05833;stroke-linecap:square;stroke-linejoin:miter;stroke-dasharray:none;stroke-opacity:1"
         id="rect15"
         width="219.64211"
         height="123.8527"
         x="38.914444"
         y="19.8314"
         inkscape:label="BG"
         inkscape:export-filename="Minigames\Horseshoe\MG_Hshoe_BG.png"
         inkscape:export-xdpi="96"
         inkscape:export-ydpi="96" /><path
         style="fill:#c83737;stroke:#aa0000;stroke-width:2.64583;stroke-linecap:butt;stroke-linejoin:round;stroke-dasharray:none"
         d="m 73.705831,19.299109 c -0.0011,1.727861 0.603861,3.415952 0.93435,5.120407 4.531519,23.370722 9.736308,43.057186 16.641068,61.305483 7.408331,19.579161 20.788121,36.309621 33.337501,42.333331 13.22916,6.35 41.09868,9.4175 49.21249,5.02709 13.77142,-7.45176 17.81167,-28.8573 13.22917,-50.535421 C 182.2018,59.565708 160.86666,43.391671 154.78124,39.6875 c -5.08442,-3.094868 -7.95245,-6.720746 -11.84477,-14.928488 -0.7663,-1.615892 -2.42919,-3.519455 -2.43445,-5.452698"
         id="path14"
         sodipodi:nodetypes="csssssssc"
         inkscape:label="Leg" /><g
         id="g2"
         inkscape:label="Shoe"><path
           style="fill:#ffd42a;stroke:#aa8800;stroke-width:2.64583;stroke-linecap:round;stroke-linejoin:round;stroke-dasharray:none"
           d="m 162.45416,42.862499 c 0,0 14.98462,16.990558 20.34861,25.907138 5.19507,8.635796 7.09979,22.401057 7.31128,31.509703 0.17302,7.45218 -1.44439,17.48439 -5.37069,23.82354 -2.46477,3.97947 -10.38295,11.36378 -28.11003,10.04087 -17.72708,-1.32292 -28.83958,-18.78542 -31.48541,-24.34167 -2.64584,-5.55625 -6.02636,-16.103693 -6.92457,-23.918866 -0.88886,-7.733856 -1.27752,-23.441548 -1.27752,-23.441548 l 14.55208,-6.614584 c 0,0 1.49014,3.714087 2.70024,7.02709 -3.91037,1.708009 -4.59274,8.745434 -4.19571,13.237995 0.62414,7.062349 1.97617,12.828015 3.41175,16.808681 3.59801,9.976812 11.85491,18.312382 18.30165,21.936102 5.42211,3.04778 13.36535,3.3942 17.86327,1.27753 4.49791,-2.11667 7.67292,-10.20593 7.89761,-17.189187 0.15416,-4.791115 -2.78323,-20.026943 -5.79125,-25.840482 -3.56006,-6.880477 -10.06867,-14.108189 -11.87714,-15.537937 -3.40416,-2.691262 -9.12813,-1.455208 -9.12813,-1.455208 l -3.17499,-6.085416 c 6.28414,-2.855115 9.65626,-4.891539 14.94895,-7.143751 z"
           id="path15"
           sodipodi:nodetypes="csssssscccsssssssccc"
           inkscape:label="HShoe" /><ellipse
           style="fill:#aa8800;fill-opacity:1;stroke:#aa8800;stroke-width:1.05833;stroke-linecap:round;stroke-linejoin:round;stroke-dasharray:none;stroke-opacity:1"
           id="path22"
           cx="127.31384"
           cy="95.041039"
           rx="2.7127855"
           ry="2.9934187"
           inkscape:label="Hole" /><ellipse
           style="fill:#aa8800;fill-opacity:1;stroke:#aa8800;stroke-width:1.07359;stroke-linecap:round;stroke-linejoin:round;stroke-dasharray:none;stroke-opacity:1"
           id="ellipse22"
           cx="142.56155"
           cy="118.9884"
           rx="2.7987013"
           ry="2.98579"
           inkscape:label="Hole" /><ellipse
           style="fill:#aa8800;fill-opacity:1;stroke:#aa8800;stroke-width:1.05833;stroke-linecap:round;stroke-linejoin:round;stroke-dasharray:none;stroke-opacity:1"
           id="ellipse23"
           cx="173.52472"
           cy="122.91725"
           rx="2.7127855"
           ry="2.9934187"
           inkscape:label="Hole" /><ellipse
           style="fill:#aa8800;fill-opacity:1;stroke:#aa8800;stroke-width:0.956328;stroke-linecap:round;stroke-linejoin:round;stroke-dasharray:none;stroke-opacity:1"
           id="ellipse24"
           cx="183.90813"
           cy="94.853958"
           rx="2.4831536"
           ry="2.6702425"
           inkscape:label="Hole" /><ellipse
           style="fill:#aa8800;fill-opacity:1;stroke:#aa8800;stroke-width:0.938828;stroke-linecap:round;stroke-linejoin:round;stroke-dasharray:none;stroke-opacity:1"
           id="ellipse25"
           cx="177.54713"
           cy="71.374329"
           rx="2.3048146"
           ry="2.7725365"
           inkscape:label="Hole" /></g></g></g></svg>
