<?xml version="1.0" encoding="UTF-8" standalone="no"?>
<!-- Created with Inkscape (http://www.inkscape.org/) -->

<svg
   width="1152"
   height="648"
   viewBox="0 0 304.79999 171.45"
   version="1.1"
   id="svg1"
   inkscape:version="1.4 (86a8ad7, 2024-10-11)"
   sodipodi:docname="GMTK2025.svg"
   xml:space="preserve"
   inkscape:export-filename="Minigames\Rider\MG_Rider_BG.svg"
   inkscape:export-xdpi="96"
   inkscape:export-ydpi="96"
   xmlns:inkscape="http://www.inkscape.org/namespaces/inkscape"
   xmlns:sodipodi="http://sodipodi.sourceforge.net/DTD/sodipodi-0.dtd"
   xmlns="http://www.w3.org/2000/svg"
   xmlns:svg="http://www.w3.org/2000/svg"><sodipodi:namedview
     id="namedview1"
     pagecolor="#ffffff"
     bordercolor="#000000"
     borderopacity="0.25"
     inkscape:showpageshadow="2"
     inkscape:pageopacity="0.0"
     inkscape:pagecheckerboard="true"
     inkscape:deskcolor="#d1d1d1"
     inkscape:document-units="px"
     inkscape:zoom="0.99999996"
     inkscape:cx="592.50003"
     inkscape:cy="396.50002"
     inkscape:window-width="1920"
     inkscape:window-height="1001"
     inkscape:window-x="-9"
     inkscape:window-y="-9"
     inkscape:window-maximized="1"
     inkscape:current-layer="g14"><inkscape:page
       x="0"
       y="0"
       width="304.79999"
       height="171.45"
       id="page2"
       margin="0"
       bleed="0" /></sodipodi:namedview><defs
     id="defs1" /><g
     id="layer2"
     inkscape:label="Race"
     transform="matrix(0.97161855,0,0,0.93590716,8.7879003,0.53646917)"
     style="display:inline"><g
       inkscape:groupmode="layer"
       id="layer4"
       inkscape:label="Pit"
       style="display:inline"
       transform="matrix(1.0292105,0,0,1.068482,-9.0445991,-0.57320768)"><g
         id="g16"
         inkscape:label="PitBG"><rect
           style="display:inline;opacity:1;fill:#56a3bf;fill-opacity:1;stroke:#447821;stroke-width:0.144462"
           id="rect9"
           width="320.51721"
           height="189.27586"
           x="-9.067667"
           y="-1.694309"
           sodipodi:insensitive="true"
           inkscape:label="Sky"
           transform="matrix(0.97161854,0,0,0.93590717,8.7879003,0.53646916)" /><rect
           style="display:inline;opacity:1;fill:#80ac40;fill-opacity:1;stroke:#447821;stroke-width:0.139928"
           id="rect10"
           width="330.00455"
           height="132.38368"
           x="-12.519507"
           y="48.928848"
           sodipodi:insensitive="true"
           inkscape:label="Grass" /><rect
           style="fill:#cede68;fill-opacity:1;stroke:#cede68;stroke-width:3.98001;stroke-dasharray:none;stroke-opacity:1"
           id="rect11"
           width="373.42444"
           height="71.493401"
           x="-26.263945"
           y="108.01192"
           inkscape:label="PitLane" /><rect
           style="fill:#cede68;fill-opacity:1;stroke:#cede68;stroke-width:1.61203;stroke-dasharray:none;stroke-opacity:1"
           id="rect11-7"
           width="375.79242"
           height="11.6545"
           x="-34.62545"
           y="60.740139"
           inkscape:label="RaceTrack" /></g><g
         id="g14"
         inkscape:label="Cart"
         style="display:inline"><circle
           style="fill:none;fill-opacity:1;stroke:#502d16;stroke-width:5.01984;stroke-dasharray:none;stroke-opacity:1"
           id="path32-1"
           cx="204.61739"
           cy="116.81354"
           r="23.664934"
           inkscape:label="WheelR" /><path
           style="fill:#784421;fill-opacity:1;stroke:#784421;stroke-width:2.64583;stroke-opacity:1"
           d="m 179.61543,101.09326 c 12.47322,2.26786 64.06696,-9.449404 64.06696,-9.449404 l -12.09523,33.072914 c 0,0 -36.75086,5.40311 -48.00189,4.93038 -11.25103,-0.47273 -16.44305,-30.821749 -3.96984,-28.55389 z"
           id="path31-8"
           sodipodi:nodetypes="scczs"
           inkscape:label="Back" /><g
           id="g73"
           inkscape:label="BookStack"
           transform="matrix(-0.87461931,0,0,1.0054022,404.19155,1.151177)"
           inkscape:export-filename="Pit_cart.svg"
           inkscape:export-xdpi="96"
           inkscape:export-ydpi="96"><g
             id="g72"
             inkscape:label="Book"
             style="display:inline;fill:#aa0000;stroke:#800000"
             transform="matrix(0.90919566,0.1587671,-0.13413041,0.76811123,62.503422,-55.751935)"><path
               style="fill:#aa87de;fill-opacity:1;stroke:#aa87de;stroke-width:1.24755;stroke-linecap:round;stroke-linejoin:round;stroke-dasharray:none;stroke-opacity:1"
               d="m 207.64177,165.86752 c -33.55591,7.28041 -32.47564,6.71266 -32.47564,6.71266 0,0 -4.48252,-0.79577 -5.37015,-6.81257 -0.88764,-6.01681 3.48277,-7.95354 3.48277,-7.95354 l 34.91859,-7.90652 -8.33284,8.61157 z"
               id="path71"
               inkscape:label="Cover" /><path
               style="fill:#fff6d5;fill-opacity:1;stroke:#ffeeaa;stroke-width:1.24755;stroke-linecap:round;stroke-linejoin:round;stroke-dasharray:none;stroke-opacity:1"
               d="m 171.55761,165.36201 c 0.54505,2.99639 3.62613,5.40062 3.62613,5.40062 l 32.09299,-6.32909 0.10121,-12.56477 -34.03277,7.82611 c 0,0 -2.33261,2.67074 -1.78756,5.66713 z"
               id="path72"
               sodipodi:nodetypes="zccccz"
               inkscape:label="Pages" /></g><g
             id="g74"
             inkscape:label="Book"
             style="display:inline;fill:#aa0000;stroke:#800000"
             transform="matrix(-1.0020794,0.15815634,0.14783322,0.76515638,374.6244,-67.625773)"><path
               style="fill:#87aade;fill-opacity:1;stroke:#87aade;stroke-width:1.24755;stroke-linecap:round;stroke-linejoin:round;stroke-dasharray:none;stroke-opacity:1"
               d="m 207.64177,165.86752 c -33.55591,7.28041 -32.47564,6.71266 -32.47564,6.71266 0,0 -4.48252,-0.79577 -5.37015,-6.81257 -0.88764,-6.01681 3.48277,-7.95354 3.48277,-7.95354 l 34.91859,-7.90652 -8.33284,8.61157 z"
               id="path73"
               inkscape:label="Cover" /><path
               style="fill:#fff6d5;fill-opacity:1;stroke:#ffeeaa;stroke-width:1.24755;stroke-linecap:round;stroke-linejoin:round;stroke-dasharray:none;stroke-opacity:1"
               d="m 171.55761,165.36201 c 0.54505,2.99639 3.62613,5.40062 3.62613,5.40062 l 32.09299,-6.32909 0.10121,-12.56477 -34.03277,7.82611 c 0,0 -2.33261,2.67074 -1.78756,5.66713 z"
               id="path74"
               sodipodi:nodetypes="zccccz"
               inkscape:label="Pages" /></g><g
             id="g76"
             inkscape:label="Book"
             style="display:inline;fill:#aa0000;stroke:#800000"
             transform="matrix(1.0921534,0.11582499,-0.16112153,0.56035834,32.42641,-37.956853)"><path
               style="fill:#ff8080;fill-opacity:1;stroke:#ff8080;stroke-width:1.24755;stroke-linecap:round;stroke-linejoin:round;stroke-dasharray:none;stroke-opacity:1"
               d="m 207.64177,165.86752 c -33.55591,7.28041 -32.47564,6.71266 -32.47564,6.71266 0,0 -4.48252,-0.79577 -5.37015,-6.81257 -0.88764,-6.01681 3.48277,-7.95354 3.48277,-7.95354 l 34.91859,-7.90652 -8.33284,8.61157 z"
               id="path75"
               inkscape:label="Cover" /><path
               style="fill:#fff6d5;fill-opacity:1;stroke:#ffeeaa;stroke-width:1.24755;stroke-linecap:round;stroke-linejoin:round;stroke-dasharray:none;stroke-opacity:1"
               d="m 171.55761,165.36201 c 0.54505,2.99639 3.62613,5.40062 3.62613,5.40062 l 32.09299,-6.32909 0.10121,-12.56477 -34.03277,7.82611 c 0,0 -2.33261,2.67074 -1.78756,5.66713 z"
               id="path76"
               sodipodi:nodetypes="zccccz"
               inkscape:label="Pages" /></g></g><g
           id="g79"
           inkscape:label="Chair"
           style="display:inline"
           transform="matrix(-0.87461931,0,0,1.0054022,404.19154,1.151177)"
           inkscape:export-filename="Pit_rider.svg"
           inkscape:export-xdpi="96"
           inkscape:export-ydpi="96"><path
             style="display:inline;fill:#d29c52;fill-opacity:1;stroke:#936237;stroke-width:1.12861;stroke-linecap:round;stroke-linejoin:round;stroke-dasharray:none;stroke-opacity:1"
             d="m 219.24095,70.124955 h -3.7434 l -0.42782,-13.398006 -2.99472,-34.425431 3.95731,-0.372167 3.7434,33.215888 z"
             id="path81"
             inkscape:label="LegBR"
             transform="translate(8.2955394e-6)" /><path
             style="display:inline;fill:#d29c52;fill-opacity:1;stroke:#936237;stroke-width:1.12861;stroke-linecap:round;stroke-linejoin:round;stroke-dasharray:none;stroke-opacity:1"
             d="m 197.42227,70.031911 0.32086,-13.491046 -5.24077,-33.495013 -4.81294,-0.558251 4.70599,35.821057 0.74868,12.188463 z"
             id="path80"
             inkscape:label="LegBL"
             transform="translate(8.2955394e-6)" /><path
             style="display:inline;fill:#800000;fill-opacity:1;stroke:#550000;stroke-width:1.12861;stroke-linecap:round;stroke-linejoin:round;stroke-dasharray:none;stroke-opacity:1"
             d="m 215.28364,56.261739 -16.79183,0.837376 -6.95203,-31.262013 20.96305,-1.860833 z"
             id="path83"
             inkscape:label="Back"
             transform="translate(8.2955394e-6)" /><path
             style="display:inline;fill:#800000;fill-opacity:1;stroke:#550000;stroke-width:1.12861;stroke-linecap:round;stroke-linejoin:round;stroke-dasharray:none;stroke-opacity:1"
             d="m 236.78146,58.959949 -28.02204,0.558252 -14.01102,-0.279126 -0.74867,-3.907752 13.69015,-2.233001 29.62635,0.837376 z"
             id="path82"
             transform="translate(8.2955394e-6)"
             sodipodi:nodetypes="ccccccc"
             inkscape:label="Seat" /><path
             style="fill:#d29c52;fill-opacity:1;stroke:#936237;stroke-width:1.12861;stroke-linecap:round;stroke-linejoin:round;stroke-dasharray:none;stroke-opacity:1"
             d="m 212.48577,69.57971 -2.04196,-14.934425 -3.93266,0.06579 1.05879,14.934425 z"
             id="path78"
             inkscape:label="LegFL" /><path
             style="fill:#d29c52;fill-opacity:1;stroke:#936237;stroke-width:1.12861;stroke-linecap:round;stroke-linejoin:round;stroke-dasharray:none;stroke-opacity:1"
             d="m 237.14054,55.237398 -5.06708,0.06579 -2.34447,14.342311 3.85703,-0.06579 3.32764,-9.210659 z"
             id="path79"
             inkscape:label="LegFR" /></g><path
           style="fill:#d29c52;fill-opacity:1;stroke:#936237;stroke-width:2.11667;stroke-dasharray:none;stroke-opacity:1"
           d="m 164.04166,130.40178 -7.55952,-58.208329 c 0,0 18.14286,-8.315476 32.88393,-1.511904 14.74107,6.80357 17.76487,7.559522 17.76487,7.559522 0,0 -0.56695,25.702381 11.90626,27.970241 12.47322,2.26786 64.06696,-9.449404 64.06696,-9.449404 l -12.09523,33.072914 c 0,0 -65.47705,5.02513 -76.72808,4.5524 -11.25103,-0.47273 -30.23919,-3.98544 -30.23919,-3.98544 z"
           id="path31"
           sodipodi:nodetypes="ccscscczc"
           inkscape:label="Main" /></g><g
         id="g15"
         inkscape:label="Gnome"
         style="display:inline"><path
           style="display:inline;fill:#333333;fill-opacity:1;stroke:#1a1a1a;stroke-width:0.529167;stroke-linecap:round;stroke-linejoin:round;stroke-dasharray:none;stroke-opacity:1"
           d="m 197.37855,53.741219 1.26284,3.274052 7.81095,-2.61924 5.00463,0.187087 1.54348,3.601458 4.5369,0.795125 1.07576,-3.648228 2.61924,-0.982215 -0.0935,-4.349811 -13.84457,-1.309621 c 0,0 -3.55468,1.917657 -4.91107,2.338607 -1.3564,0.420952 -5.00462,2.712786 -5.00462,2.712786 z"
           id="path95"
           inkscape:label="Legs" /><path
           style="display:inline;fill:#2c2ca0;fill-opacity:1;stroke:#000080;stroke-width:0.529167;stroke-linecap:round;stroke-linejoin:round;stroke-dasharray:none;stroke-opacity:1"
           d="m 203.33229,50.403124 c 0,0 3.421,0.870403 5.57074,1.11845 3.02617,-0.330729 10.89957,-1.316887 12.95009,0.435978 -0.39687,-2.513542 1.55443,-8.235157 0.1323,-11.211719 l -15.875,-0.463022 c -2.18281,2.050521 -1.19063,6.945313 -2.77813,10.120313 z"
           id="path94"
           inkscape:label="Body"
           sodipodi:nodetypes="cccccc" /><g
           id="g93"
           inkscape:label="Head"
           style="display:inline"><path
             style="display:inline;fill:#e9c6af;fill-opacity:1;stroke:#deaa87;stroke-width:0.529167;stroke-linecap:round;stroke-linejoin:round;stroke-dasharray:none;stroke-opacity:1"
             d="m 206.92007,40.036974 7.67063,2.33861 7.95127,-3.741774 -4.02241,-8.044813 -10.00924,-1.122531 -2.80633,6.361014 z"
             id="path85"
             inkscape:label="Head" /><path
             style="display:inline;fill:#cccccc;fill-opacity:1;stroke:#b3b3b3;stroke-width:0.529167;stroke-linecap:round;stroke-linejoin:round;stroke-dasharray:none;stroke-opacity:1"
             d="m 207.76196,37.511278 c 0,0 -3.08696,0.561266 -2.89987,0.935442 0.18709,0.374179 0.46772,2.899876 0.46772,2.899876 l 1.59026,-1.403165 -2.61924,2.899873 3.46113,-0.748353 -2.24506,4.864304 1.87089,-1.683798 0.37417,5.238483 4.02241,-2.15152 -3.46114,5.706205 6.36101,-3.928862 2.15153,-2.057976 0.6548,-6.080382 4.39659,-0.935442 -0.46772,-2.525697 -0.74836,-0.935445 0.18709,-1.870884 -3.08696,-2.245067 v 2.432154 c 0,0 -1.02899,1.777343 -3.55469,2.432153 -2.52569,0.654809 -4.58367,1.403164 -5.23848,0.374176 -0.65481,-1.028986 -1.21608,-1.216075 -1.21608,-1.216075 z"
             id="path88"
             inkscape:label="Beard" /><path
             style="display:inline;fill:#cccccc;fill-opacity:1;stroke:#b3b3b3;stroke-width:0.529167;stroke-linecap:round;stroke-linejoin:round;stroke-dasharray:none;stroke-opacity:1"
             d="m 205.14272,34.050136 c 0,0 0.93545,2.619243 4.67722,2.619243 3.74177,0 2.89987,0.561266 5.89329,0 2.99342,-0.561266 2.24507,-1.496708 2.24507,-1.496708 l 0.65481,1.777341 h 0.93544 c 0,0 -0.37418,1.870887 -2.43215,1.964431 -2.05798,0.09354 -3.46114,-0.65481 -6.73519,-1.216076 -3.27405,-0.561266 -5.23849,-0.09355 -5.23849,-0.09355 l 0.46772,-0.654809 -1.87088,-1.122532 1.6838,0.09354 z"
             id="path87"
             inkscape:label="Moustache" /><path
             style="display:inline;fill:#e9c6af;fill-opacity:1;stroke:#deaa87;stroke-width:0.529167;stroke-linecap:round;stroke-linejoin:round;stroke-dasharray:none;stroke-opacity:1"
             d="m 210.08971,37.703066 c 0.62839,0.198438 2.14085,0.226728 2.91593,-0.421838 0.77508,-0.648566 0.59134,-1.006357 0.30754,-1.531241 -0.2838,-0.524884 -1.4386,-1.33637 -2.23372,-1.452291 -0.79512,-0.115921 -2.04958,0.290226 -2.55211,0.694045 -0.50254,0.403818 -0.68882,0.988782 -0.39116,1.584094 0.13229,0.496094 1.19285,1.028012 1.95352,1.127231 z"
             id="path86"
             inkscape:label="Nose"
             sodipodi:nodetypes="czzzzcc" /><path
             style="display:inline;fill:#800000;fill-opacity:1;stroke:#550000;stroke-width:0.529167;stroke-linecap:round;stroke-linejoin:round;stroke-dasharray:none;stroke-opacity:1"
             d="m 205.97292,34.494472 c 0.1754,-0.479415 -0.38586,-1.8475 5.0631,-1.099145 6.56681,0.901879 11.03823,3.554685 11.22532,4.022407 0.18708,0.46772 0.37417,2.151518 0.37417,2.151518 h 0.8419 c 0,0 1.12253,-2.151518 0.56127,-3.274049 -0.56127,-1.122532 -1.21608,-2.33861 -0.74836,-3.180509 0.46773,-0.841899 0,-3.367595 -0.46772,-5.051393 -0.46772,-1.683799 -0.93544,-2.806331 -1.49671,-5.051395 -0.56126,-2.245064 0.69534,2.30829 2.71279,3.928863 0.47956,-1.405599 0.74365,-6.656725 0.28063,-7.483548 -1.32292,-0.909505 -6.66191,-1.832139 -7.67063,-1.964431 -1.96784,0.09922 -4.34982,1.251155 -6.93397,4.992929 -1.5045,2.17846 -2.32692,5.764669 -2.7011,6.793657 -0.37418,1.028988 -1.77734,0.654812 -1.77734,0.654812 0,0 0.44343,1.342378 0.1866,2.104991 -0.27447,0.814986 -1.21559,1.262604 -1.21559,1.262604 0,0 1.12253,1.075758 1.76564,1.192689 z"
             id="path84"
             inkscape:label="Cap"
             sodipodi:nodetypes="cssccsssscccsscscc" /></g><path
           style="display:inline;fill:#784421;fill-opacity:1;stroke:#552200;stroke-width:0.529167;stroke-linecap:round;stroke-linejoin:round;stroke-dasharray:none;stroke-opacity:1"
           d="m 196.08348,59.077132 -2.09603,-2.571929 0.47796,-0.348686 -3.1666,-4.390705 2.16644,-2.752242 c 0,0 0.098,1.539658 1.03041,2.61701 0.93244,1.07735 2.88151,1.339792 2.88151,1.339792 l 1.66501,-0.628834 2.1862,4.703162 z"
           id="path91"
           inkscape:label="FootR" /><path
           style="display:inline;fill:#784421;fill-opacity:1;stroke:#552200;stroke-width:0.529167;stroke-linecap:round;stroke-linejoin:round;stroke-dasharray:none;stroke-opacity:1"
           d="m 213.18754,51.449385 c -1.59026,3.461139 -1.59026,1.122532 -1.59026,3.461139 0,2.338609 -0.8419,5.051393 1.30962,5.519115 2.15152,0.467723 5.33203,0.65481 5.79975,-1.309621 0.46772,-1.964431 1.59026,-4.677217 1.59026,-6.454558 0,-1.777344 -1.59026,-5.612659 -1.59026,-5.612659 z"
           id="path89"
           inkscape:label="FootL" /><path
           style="display:inline;fill:#784421;fill-opacity:1;stroke:#552200;stroke-width:0.529167;stroke-linecap:round;stroke-linejoin:round;stroke-dasharray:none;stroke-opacity:1"
           d="m 203.45893,49.578498 -2.71279,-0.748356 -1.59025,-6.361014 4.8643,-1.122532 4.02241,3.086962 z"
           id="path92"
           inkscape:label="HandR" /><path
           style="display:inline;fill:#2c2ca0;fill-opacity:1;stroke:#000080;stroke-width:0.529167;stroke-linecap:round;stroke-linejoin:round;stroke-dasharray:none;stroke-opacity:1"
           d="m 210.10057,50.51394 c 0,0 10.48716,-1.958445 12.06722,-3.928862 0.82398,-1.027546 0.54858,-5.812158 -0.74835,-5.986838 -2.13428,-0.287461 -5.7915,3.36093 -6.60761,3.639802 -0.56126,0.191788 -2.93391,0.476149 -3.86936,0.476149 -0.93544,0 -1.96443,0.280633 -1.96443,0.280633 z"
           id="path93"
           inkscape:label="ArmL"
           sodipodi:nodetypes="csssscc" /><path
           style="display:inline;fill:#784421;fill-opacity:1;stroke:#552200;stroke-width:0.529167;stroke-linecap:round;stroke-linejoin:round;stroke-dasharray:none;stroke-opacity:1"
           d="m 211.78437,49.952674 -0.46772,-5.612659 -0.8419,-0.09355 c 0,0 -4.13934,-1.496708 -4.95785,-1.590252 -0.63142,0.163703 -1.75395,1.028986 -2.43215,2.712784 -0.0234,1.426551 0.93544,4.209497 0.93544,4.209497 0.32741,1.028988 2.43215,1.122531 2.43215,1.122531 h 3.46114 z"
           id="path90"
           inkscape:label="HandL"
           sodipodi:nodetypes="ccccccccc" /></g><path
         style="display:inline;fill:none;fill-opacity:1;stroke:#502d16;stroke-width:1.5875;stroke-linecap:round;stroke-linejoin:round;stroke-dasharray:none;stroke-opacity:1"
         d="m 206.54589,43.591659 0.37418,7.483547 1.30962,-8.980255 c 0,0 -14.9671,-0.74836 -23.01191,4.864304 -4.38581,3.05987 -33.75185,20.260042 -62.61754,28.013148 -11.51329,3.092384 -26.30848,5.934682 -32.610594,15.204335"
         id="path96"
         sodipodi:nodetypes="cccssc"
         inkscape:label="Reins" /><g
         id="g13"
         inkscape:label="Pony"
         transform="matrix(0.8644879,0,0,0.86402062,20.252668,6.54047)"
         style="fill:#aa0000;stroke:#800000"><path
           style="fill:#aa0000;fill-opacity:1;stroke:#aa0000;stroke-width:1.05833;stroke-dasharray:none;stroke-opacity:1"
           d="m 98.297549,115.99811 c -0.49789,4.61212 4.688961,10.28218 5.471851,12.81906 0.93341,3.02465 -2.11444,8.59669 -3.941931,13.76049 -1.54796,4.37395 -8.638541,14.19447 -8.44533,15.49757 0.26184,1.76597 1.2933,2.86457 7.34092,2.86457 6.047621,0 6.907771,-3.0833 6.907771,-3.0833 0,0 4.94785,-8.89071 6.18451,-16.39897 1.04426,-6.34008 2.10775,-13.13814 2.10775,-13.13814 h -3.77976 l 6.27487,-7.97238 2.65894,-15.20582"
           id="path47"
           inkscape:label="LegBR"
           sodipodi:nodetypes="csssscscccc" /><g
           id="g69"
           inkscape:label="Tail"><path
             style="display:inline;fill:#2a7fff;fill-opacity:1;stroke:#5f8dd3;stroke-width:1.05833;stroke-linecap:round;stroke-linejoin:miter;stroke-dasharray:none;stroke-opacity:1"
             d="m 123.04955,88.036566 -1.90964,-4.501475 3.46114,0.748352 0.19314,-4.377891 3.11404,2.20013 0.71522,-4.744519 2.99342,3.835319 2.68973,-3.586721 1.03915,3.796921 6.04651,-1.613366 -1.73057,3.835317 6.78197,0.701582 -3.13004,1.947519 6.76364,5.059715 -4.42873,0.569859 5.14494,6.03361 -2.43216,0.374178 2.82633,6.090644 -3.50763,-2.09458 3.9565,7.26524 -3.97564,-1.92178 5.09817,9.31179 -4.34981,-2.34274 2.20299,10.78637 -4.12934,-2.27196 -1.01666,7.55026 -3.53895,-5.43839 -1.79786,6.27338 -2.06875,-8.21034 -3.35681,5.5911 -0.11764,-8.67554 -4.3725,1.75326 2.25723,-8.33898 -2.78055,1.81357 2.27327,-10.8038 -4.06116,0.75581 3.2353,-5.40092 -1.48535,-6.463157 -3.13901,-2.817677 z"
             id="path69"
             transform="matrix(1.1567542,0,0,1.1573798,-23.427359,-7.5698078)"
             inkscape:label="Hair"
             sodipodi:nodetypes="cccccccccccccccccccccccccccccccccccccccc" /></g><path
           style="fill:#aa0000;fill-opacity:1;stroke:#aa0000;stroke-width:0.735154;stroke-dasharray:none;stroke-opacity:1"
           d="m 67.393838,123.91654 c -0.0035,5.58464 -2.838435,12.36996 -6.787587,20.47465 -4.857018,9.96788 -10.191971,13.56467 -10.191971,15.1287 0,1.56404 1.983401,3.15864 6.611338,3.15864 4.627938,0 5.950206,-1.56403 5.950206,-1.56403 0,0 3.675458,-5.29448 6.583096,-14.24081 2.83667,-8.72798 4.121869,-20.9274 4.121869,-20.9274"
           id="path49"
           inkscape:label="LegFR"
           sodipodi:nodetypes="cssscsc" /><path
           style="fill:#c83737;fill-opacity:1;stroke:#aa0000;stroke-width:1.05833;stroke-dasharray:none;stroke-opacity:1"
           d="m 93.640143,132.84253 c 3.668301,-1.65656 8.645857,-4.38579 12.983427,-7.3993 4.62206,-3.21116 9.05963,-6.54589 9.05963,-6.54589 0,0 2.66395,-3.04387 6.82169,-3.79982 4.15774,-0.75596 6.40101,-2.43587 6.40101,-5.83766 0,-3.40178 -0.40147,-14.768523 -12.63871,-14.50904 -6.95701,0.147519 -8.11094,0.464464 -13.39341,3.307967 -5.325779,2.866813 -17.813002,6.520183 -25.322469,4.760723 -7.030978,-1.64735 -10.245088,-2.25907 -10.245088,-2.25907 0,0 -7.787395,3.57692 -7.924127,10.06002 -0.08108,3.8444 0.206441,8.3064 1.852775,12.08592 1.844921,4.23541 4.451718,8.60295 8.192086,10.61843 7.972388,4.29589 20.544885,1.17428 24.213186,-0.48228 z"
           id="path45"
           inkscape:label="Body"
           sodipodi:nodetypes="zscssssscsssz" /><path
           style="fill:#c83737;fill-opacity:1;stroke:#aa0000;stroke-width:1.05833;stroke-linecap:round;stroke-linejoin:miter;stroke-dasharray:none;stroke-opacity:1"
           d="m 108.84694,118.15691 c 1.90827,14.74107 8.07439,10.94394 9.65473,15.4815 1.2822,3.68153 1.77869,10.55735 0.83527,15.79913 -1.36054,7.55934 -5.18072,15.76353 -4.59665,16.77222 0.58408,1.0087 3.99076,1.60686 8.3383,1.57642 4.67997,-0.0328 6.65916,-0.91072 8.22422,-2.69113 1.56506,-1.78041 1.16673,-8.79538 0.61906,-15.99583 -0.44641,-5.86916 -3.06058,-18.44029 -4.26295,-19.75267 l -2.27195,0.42786 c 0,0 0.12537,-5.25974 1.78435,-9.66252 1.08593,-2.88194 3.14149,-6.55267 2.99196,-9.54333 -0.37798,-7.55951 -2.20401,-9.43019 -4.71806,-12.492423"
           id="path46"
           inkscape:label="LegBL"
           sodipodi:nodetypes="csszszsccssc" /><path
           style="fill:#c83737;fill-opacity:1;stroke:#aa0000;stroke-width:0.809909;stroke-linecap:round;stroke-dasharray:none;stroke-opacity:1"
           d="m 77.475152,124.93407 c 1.133509,8.0372 1.388306,13.96442 -0.08951,26.8494 -1.338687,11.67194 -3.912724,16.1269 -3.912724,17.78013 0,1.65323 1.840163,3.30135 7.154074,3.30135 5.31391,0 9.455524,-2.85624 9.455524,-2.85624 0,0 0.476016,-15.30377 -0.283115,-25.22316 -0.759131,-9.91937 -4.773393,-20.40853 -4.773393,-20.40853"
           id="path48"
           inkscape:label="LegFL"
           sodipodi:nodetypes="cssscsc" /><path
           style="fill:#d29c52;fill-opacity:1;stroke:#936237;stroke-width:1.05833;stroke-dasharray:none;stroke-opacity:1"
           d="m 88.759553,95.471411 c 7.559524,-0.566962 8.758303,-2.867245 12.727057,0.912515 3.96875,3.779764 4.53571,12.473214 2.83482,18.709824 -1.7009,6.23661 -3.02381,8.31547 -3.02381,8.31547 0,0 4.34672,0.37798 6.04762,-0.18898 1.70089,-0.56697 4.91369,-11.33929 5.10268,-17.38691 0.18898,-6.047616 0,-13.79613 -6.23661,-17.57589 -6.23661,-3.779764 -11.799141,-1.747651 -15.317535,0.77888 -2.534951,1.820329 -2.134222,6.435091 -2.134222,6.435091 z"
           id="path41"
           sodipodi:nodetypes="csscssssc"
           transform="matrix(1.1567542,0,0,1.1573798,-23.427359,-7.5698078)"
           inkscape:label="Yoke" /><path
           style="fill:#c83737;fill-opacity:1;stroke:#aa0000;stroke-width:1.05833;stroke-linecap:round;stroke-dasharray:none;stroke-opacity:1"
           d="m 61.218625,122.68608 c -2.367379,-6.34724 -3.010188,-9.34543 -3.193441,-15.8516 -0.311586,-11.062431 0.415702,-17.636844 0.415702,-17.636844 l 10.821305,-5.309169 c 0,0 3.821535,7.341033 5.552738,13.184637 1.453867,4.907466 4.124638,7.475006 7.068337,9.800496"
           id="path50"
           inkscape:label="Neck"
           sodipodi:nodetypes="csccsc" /><g
           id="g57"
           inkscape:label="Head"
           transform="matrix(0.98106506,-0.19378323,0.19357379,0.98106506,-13.646655,22.696683)"
           style="fill:#aa0000;stroke:#800000"
           inkscape:export-filename="Pit_pony.svg"
           inkscape:export-xdpi="96"
           inkscape:export-ydpi="96"><path
             style="fill:#c83737;fill-opacity:1;stroke:#aa0000;stroke-width:1.05833;stroke-linecap:round;stroke-dasharray:none;stroke-opacity:1"
             d="m 60.716695,91.786346 c -5.916691,1.803794 -15.089483,2.176657 -17.938576,1.548937 -2.19409,-0.483408 -6.836708,-3.577143 -6.883808,-6.043351 -0.0255,-1.335391 3.911621,-1.310004 4.156514,-3.127616 0.79746,-5.918789 -1.721785,-6.691499 -1.774061,-11.325216 -0.06881,-6.099172 4.007845,-11.759037 8.146536,-13.49348 5.189084,-2.174641 17.810444,-1.653629 20.727484,3.970504 2.91704,5.624133 4.567196,21.055046 5.28247,27.680246"
             id="path52"
             sodipodi:nodetypes="cssssssc"
             inkscape:label="Head" /><path
             style="fill:none;fill-opacity:1;stroke:#aa0000;stroke-width:1.22456;stroke-linecap:round;stroke-linejoin:miter;stroke-dasharray:none;stroke-opacity:1"
             d="m 43.769685,105.35197 c 3.78727,-2.05707 4.111893,-2.54426 4.382415,-3.13973"
             id="path66"
             inkscape:label="Mouth"
             transform="matrix(0.98106506,0.19378323,-0.19357379,0.98106505,17.781739,-19.62243)" /><g
             id="g58"
             inkscape:label="Eye"
             transform="matrix(0.99623178,0.38407936,-0.32430445,0.84209669,30.570056,-16.424723)"
             style="display:inline;fill:#aa0000;stroke:#800000"><g
               id="g1"
               inkscape:label="Ball"><path
                 style="fill:#ffffff;fill-opacity:1;stroke:#ffffff;stroke-width:0.612281;stroke-linecap:round;stroke-linejoin:miter;stroke-dasharray:none;stroke-opacity:1"
                 d="m 46.146154,89.492072 c 1.312665,4.436404 3.200992,6.273216 6.50373,5.851054 3.053279,-0.390276 6.492405,-2.431148 5.246705,-8.093044 -1.195499,-5.433724 -6.621267,-10.812403 -9.400349,-9.842898 -4.075029,1.421606 -3.662751,7.648483 -2.350086,12.084888 z"
                 id="path57"
                 sodipodi:nodetypes="zsssz"
                 inkscape:label="White" /><path
                 style="fill:#008000;fill-opacity:1;stroke:#008000;stroke-width:0.668673;stroke-linecap:round;stroke-linejoin:miter;stroke-dasharray:none;stroke-opacity:1"
                 d="m 48.079815,90.694247 c 0.664637,2.49147 1.568665,3.387364 2.566289,4.302038 0.835366,0.765907 2.838583,0.350711 2.838583,0.350711 3.959312,-1.486342 4.428776,-3.758679 4.627949,-6.365439 0.22426,-2.935095 -2.331982,-7.216025 -4.545456,-9.359788 0,0 -1.320254,-0.559943 -2.251854,-0.35727 -3.678732,0.800339 -3.90015,8.938276 -3.235511,11.429748 z"
                 id="path58"
                 sodipodi:nodetypes="zscscsz"
                 inkscape:label="Iris" /><path
                 style="fill:#000000;fill-opacity:1;stroke:#000000;stroke-width:0.580233;stroke-linecap:round;stroke-linejoin:miter;stroke-dasharray:none;stroke-opacity:1"
                 d="m 50.291568,90.611645 c 0.541878,2.301005 1.310122,3.022356 2.123483,3.867105 0.681072,0.707355 2.064763,0.606714 2.064763,0.606714 3.22802,-1.372715 3.601331,-3.065341 3.69702,-5.477826 0.150728,-3.800142 -1.616786,-6.479612 -3.793076,-9.235166 0,0 -1.430953,0.477077 -2.190485,0.664252 -2.999263,0.739156 -2.443583,7.273915 -1.901705,9.574921 z"
                 id="path59"
                 sodipodi:nodetypes="zscscsz"
                 inkscape:label="Black" /><path
                 style="display:inline;fill:#ffffff;fill-opacity:1;stroke:#ffffff;stroke-width:0.612281;stroke-linecap:round;stroke-linejoin:miter;stroke-dasharray:none;stroke-opacity:1"
                 d="m 49.266293,76.269678 c -0.162078,0.961189 2.03024,1.449401 2.03024,1.449401 0,0 2.027154,0.207287 2.586643,-0.951293 0.236457,-0.918909 -1.887749,-1.752324 -1.887749,-1.752324 0,0 -2.044101,-0.695395 -2.729134,1.254216 z"
                 id="path70"
                 sodipodi:nodetypes="ccccc"
                 transform="matrix(0.87401381,-0.39863672,0.33659623,1.0339909,-21.190152,29.169361)" /></g><path
               style="fill:#c83737;fill-opacity:1;stroke:#c83737;stroke-width:1.22456;stroke-linecap:round;stroke-linejoin:miter;stroke-dasharray:none;stroke-opacity:1"
               d="m 45.338697,88.191753 c 0,0 2.029032,-1.965118 4.707038,-3.57279 2.705196,-1.623993 4.057792,-4.114117 5.897325,-3.356254 1.839533,0.757863 3.679067,-0.595466 4.761143,-0.162399 1.08208,0.433064 -3.246232,-8.119976 -3.246232,-8.119976 l -13.363665,5.08852 z"
               id="path65"
               transform="matrix(0.92269111,-0.19071846,0.16103663,1.091578,-12.253502,1.7914927)"
               inkscape:label="LidU"
               sodipodi:nodetypes="csssccc" /><path
               style="fill:none;fill-opacity:1;stroke:#000000;stroke-width:1.22456;stroke-linecap:round;stroke-linejoin:miter;stroke-dasharray:none;stroke-opacity:1"
               d="m 45.582127,88.517812 c 3.624961,-3.08559 2.684341,-2.606507 7.385239,-5.35759 1.943622,-1.137456 5.870893,-2.015401 7.107689,-1.801589"
               id="path64"
               sodipodi:nodetypes="csc"
               inkscape:label="Lash"
               transform="matrix(0.92269111,-0.19071846,0.16103663,1.091578,-12.253502,1.791493)" /><path
               style="fill:#c83737;fill-opacity:1;stroke:#c83737;stroke-width:1.24415;stroke-linecap:round;stroke-linejoin:miter;stroke-dasharray:none;stroke-opacity:1"
               d="m 61.51416,91.630294 c 0,0 -2.454987,-0.03027 -5.352113,1.21462 -2.204019,0.947061 -5.194539,2.789183 -5.471794,4.427385 -0.441117,2.606397 -2.15993,-1.860009 1.147286,5.182981 l 9.375632,-3.401487 z"
               id="path67"
               inkscape:label="LidD"
               sodipodi:nodetypes="cssccc" /></g><g
             id="g68"
             inkscape:label="Mane"
             style="fill:#aa0000;stroke:#800000"><path
               style="display:inline;fill:#2a7fff;fill-opacity:1;stroke:#5f8dd3;stroke-width:1.24755;stroke-linecap:round;stroke-linejoin:miter;stroke-dasharray:none;stroke-opacity:1"
               d="m 53.376919,67.031331 c -6.290344,3.646747 -11.827568,8.576144 -11.827568,8.576144 0,0 -5.292925,0.292796 -6.630135,-0.541341 -1.531961,-0.955621 -6.472217,-8.62595 -6.472217,-8.62595 l 3.248976,1.24783 -4.028307,-10.672877 4.493557,3.301268 1.891572,-9.429466 1.584678,6.507615 4.974981,-11.019442 1.075642,7.569799 7.832763,-9.783367 1.079998,7.060864 6.77233,-5.928247 1.906713,10.353682 5.392829,-2.72744 -0.502015,6.832288 5.264634,0.562424 -3.086091,4.896008 5.292365,2.030727 -2.456454,0.982644 5.44945,5.915929 -3.186594,-0.211141 6.434536,10.540312 -4.309139,-2.078649 5.798551,11.706216 -3.89071,-1.666115 0.351348,8.728404 -3.010332,-8.639972 -2.367112,3.5318 -0.521094,-11.393485 -2.696695,1.75584 -0.08013,-7.37708 -8.714668,-12.274158 z"
               id="path68"
               transform="matrix(0.99623178,0.38407936,-0.32430445,0.84209669,30.570056,-16.424723)"
               inkscape:label="Hair"
               sodipodi:nodetypes="ccscccccccccccccccccccccccccccccccc" /></g><g
             id="g56"
             inkscape:label="Ear"
             transform="translate(-3.4008165,0.77333086)"
             style="fill:#c83737;stroke:#aa0000"><path
               style="fill:#c83737;fill-opacity:1;stroke:#aa0000;stroke-width:1.05833;stroke-linecap:round;stroke-dasharray:none;stroke-opacity:1"
               d="m 66.229665,61.569282 c -2.224486,-3.685051 -1.551492,-6.172802 -0.446786,-8.761226 1.277726,-2.993826 5.721494,-6.58895 5.721494,-6.58895 0,0 3.375203,9.544112 4.990979,14.544699 1.922911,5.951122 -1.24413,11.924917 -3.280114,15.292817"
               id="path53"
               inkscape:label="Ear"
               sodipodi:nodetypes="cscsc" /><path
               style="fill:#c83737;fill-opacity:1;stroke:#aa0000;stroke-width:0.529167;stroke-linecap:round;stroke-dasharray:none;stroke-opacity:1"
               d="m 81.520564,51.499989 c 0,0 2.157727,7.039568 2.421638,10.168519 0.247158,2.93032 -1.355918,5.282507 -1.355918,5.282507"
               id="path56"
               sodipodi:nodetypes="csc"
               transform="matrix(1.1567542,0,0,1.1573798,-23.427359,-7.5698078)"
               inkscape:label="EarLine" /></g></g><path
           style="fill:#c83737;fill-opacity:1;stroke:#aa0000;stroke-width:1.05833;stroke-linecap:round;stroke-linejoin:miter;stroke-dasharray:none;stroke-opacity:1"
           d="m 110.3652,124.81664 c 2.60057,6.92559 6.86132,5.1605 8.13647,8.82177 1.2822,3.68153 1.77869,10.55735 0.83527,15.79913 -1.36054,7.55934 -5.18072,15.76353 -4.59665,16.77222 0.58408,1.0087 3.99076,1.60686 8.3383,1.57642 4.67997,-0.0328 6.65916,-0.91072 8.22422,-2.69113 1.56506,-1.78041 1.16673,-8.79538 0.61906,-15.99583 -0.44641,-5.86916 -3.06058,-18.44029 -4.26295,-19.75267 l -2.27195,0.42786 c 0,0 0.12537,-5.25974 1.78435,-9.66252"
           id="path314"
           inkscape:label="LegBL"
           sodipodi:nodetypes="csszszsccc" /><path
           style="fill:#aa0000;fill-opacity:1;stroke:#aa0000;stroke-width:0.735154;stroke-dasharray:none;stroke-opacity:1"
           d="m 65.544483,133.02415 c -1.206337,3.45756 -2.92792,7.24136 -4.938232,11.36704 -4.857023,9.96788 -10.191971,13.56467 -10.191971,15.1287 0,1.56404 1.983401,3.15864 6.611338,3.15864 4.627938,0 5.950206,-1.56403 5.950206,-1.56403 0,0 3.67546,-5.29448 6.583096,-14.24081 1.117829,-3.43938 1.994736,-7.41783 2.647015,-10.9764"
           id="path315"
           inkscape:label="LegFR"
           sodipodi:nodetypes="cssscsc" /><path
           style="fill:#c83737;fill-opacity:1;stroke:#aa0000;stroke-width:0.809909;stroke-linecap:round;stroke-dasharray:none;stroke-opacity:1"
           d="m 78.406646,137.72155 c -0.03811,3.82232 -0.352039,8.22926 -1.021004,14.06192 -1.338689,11.67194 -3.912724,16.1269 -3.912724,17.78013 0,1.65323 1.840163,3.30135 7.154074,3.30135 5.31391,0 9.455524,-2.85624 9.455524,-2.85624 0,0 0.476018,-15.30377 -0.283115,-25.22316 -0.197012,-2.57431 -0.613266,-5.187 -1.121695,-7.64476"
           id="path316"
           inkscape:label="LegFL"
           sodipodi:nodetypes="cssscsc" /><path
           style="fill:#aa0000;fill-opacity:1;stroke:#aa0000;stroke-width:1.05833;stroke-dasharray:none;stroke-opacity:1"
           d="m 103.29896,133.52043 c -0.85405,2.74517 -2.38031,5.97397 -3.471491,9.05723 -1.54796,4.37395 -8.638541,14.19447 -8.44533,15.49757 0.26184,1.76597 1.2933,2.86457 7.34092,2.86457 6.047621,0 6.907771,-3.0833 6.907771,-3.0833 0,0 4.94784,-8.89071 6.18451,-16.39897 0.41437,-2.51579 0.83177,-5.1037 1.18455,-7.31036"
           id="path317"
           inkscape:label="LegBR"
           sodipodi:nodetypes="cssscsc"
           inkscape:export-filename="Pit_legs.svg"
           inkscape:export-xdpi="96"
           inkscape:export-ydpi="96" /></g><g
         id="g32"
         inkscape:label="Wheel"
         inkscape:export-filename="Pit_wheel.svg"
         inkscape:export-xdpi="96"
         inkscape:export-ydpi="96"><circle
           style="opacity:0.401;fill:#000000;fill-opacity:1;stroke:#000000;stroke-width:5.29167;stroke-dasharray:none;stroke-opacity:1"
           id="circle39"
           cx="243.6895"
           cy="127.00001"
           r="24.946428" /><ellipse
           style="fill:#936237;fill-opacity:1;stroke:#936237;stroke-width:1.63068;stroke-dasharray:none;stroke-opacity:1"
           id="path33"
           cx="245.49554"
           cy="127.28349"
           rx="5.5724564"
           ry="5.4779625" /><path
           style="fill:#d29c52;fill-opacity:1;stroke:#936237;stroke-width:1.05833;stroke-dasharray:none;stroke-opacity:1"
           d="m 259.85863,146.0878 -32.31697,-35.34078 3.59078,-3.77976 33.07291,38.36458 z"
           id="path42" /><path
           style="fill:#d29c52;fill-opacity:1;stroke:#936237;stroke-width:1.05833;stroke-dasharray:none;stroke-opacity:1"
           d="m 221.68303,133.04762 48.19197,-13.79613 0.94493,6.42559 -48.19196,11.33929 z"
           id="path43" /><path
           style="fill:#d29c52;fill-opacity:1;stroke:#936237;stroke-width:1.05833;stroke-dasharray:none;stroke-opacity:1"
           d="m 239.6369,150.8125 4.91369,1.13393 10.20536,-49.13691 -4.53571,-0.56696 z"
           id="path44" /><circle
           style="fill:none;fill-opacity:1;stroke:#936237;stroke-width:5.29167;stroke-dasharray:none;stroke-opacity:1"
           id="path32"
           cx="243.41667"
           cy="126.24406"
           r="24.946428" /><circle
           style="fill:none;fill-opacity:1;stroke:#d29c52;stroke-width:5.29167;stroke-dasharray:none;stroke-opacity:1"
           id="circle32"
           cx="246.62947"
           cy="127.00001"
           r="24.946428" /><ellipse
           style="fill:#d29c52;fill-opacity:1;stroke:#936237;stroke-width:1.60511;stroke-dasharray:none;stroke-opacity:1"
           id="ellipse39"
           cx="247.19643"
           cy="128.03943"
           rx="5.2072649"
           ry="5.6797347" /></g><path
         style="display:inline;fill:#d29c52;fill-opacity:1;stroke:#936237;stroke-width:1.05833;stroke-dasharray:none;stroke-opacity:1"
         d="m 107.15068,103.7299 -1.5119,-6.803565 c 0,0 39.69306,-10.747764 52.54425,-5.078121 12.85119,5.669642 8.50447,11.717256 23.62352,12.662206 15.11904,0.94494 32.88392,-1.32292 32.88392,-1.32292 l 1.32292,5.48065 c 0,0 -37.98661,3.59078 -47.05803,0.18899 -9.07143,-3.40178 -4.72471,-10.961308 -15.68602,-13.607141 -10.96131,-2.645833 -46.11866,8.479901 -46.11866,8.479901 z"
         id="path40"
         sodipodi:nodetypes="ccssccssc"
         inkscape:label="Connector"
         inkscape:export-filename="Pit_connector.svg"
         inkscape:export-xdpi="96"
         inkscape:export-ydpi="96" /><path
         style="display:inline;fill:none;fill-opacity:1;stroke:#502d16;stroke-width:1.5875;stroke-linecap:round;stroke-linejoin:round;stroke-dasharray:none;stroke-opacity:1"
         d="m 204.675,42.469128 c -2.61924,-0.65481 -7.76418,-1.964431 -18.05405,3.461138 -10.28988,5.425573 -29.18584,16.650894 -37.79192,22.450643 -8.60608,5.799748 -43.03038,28.343931 -43.03038,28.343931"
         id="path97"
         inkscape:label="Reins2"
         sodipodi:nodetypes="cssc" /></g></g></svg>
