<?xml version="1.0" encoding="UTF-8" standalone="no"?>
<!-- Created with Inkscape (http://www.inkscape.org/) -->

<svg
   width="489.19861"
   height="287.4906"
   viewBox="0 0 129.43379 76.065221"
   version="1.1"
   id="svg1"
   inkscape:version="1.4 (86a8ad7, 2024-10-11)"
   sodipodi:docname="GMTK2025.svg"
   xml:space="preserve"
   inkscape:export-filename="Minigames\Rider\MG_Rider_BG.svg"
   inkscape:export-xdpi="96"
   inkscape:export-ydpi="96"
   xmlns:inkscape="http://www.inkscape.org/namespaces/inkscape"
   xmlns:sodipodi="http://sodipodi.sourceforge.net/DTD/sodipodi-0.dtd"
   xmlns="http://www.w3.org/2000/svg"
   xmlns:svg="http://www.w3.org/2000/svg"><sodipodi:namedview
     id="namedview1"
     pagecolor="#ffffff"
     bordercolor="#000000"
     borderopacity="0.25"
     inkscape:showpageshadow="2"
     inkscape:pageopacity="0.0"
     inkscape:pagecheckerboard="true"
     inkscape:deskcolor="#d1d1d1"
     inkscape:document-units="px"
     inkscape:zoom="0.99999996"
     inkscape:cx="592.50003"
     inkscape:cy="396.50002"
     inkscape:window-width="1920"
     inkscape:window-height="1001"
     inkscape:window-x="-9"
     inkscape:window-y="-9"
     inkscape:window-maximized="1"
     inkscape:current-layer="g14"><inkscape:page
       x="0"
       y="0"
       width="129.43379"
       height="76.065224"
       id="page2"
       margin="0"
       bleed="0" /></sodipodi:namedview><defs
     id="defs1" /><g
     id="layer2"
     inkscape:label="Race"
     transform="matrix(0.97161855,0,0,0.93590716,-146.5443,-66.386686)"
     style="display:inline"><g
       inkscape:groupmode="layer"
       id="layer4"
       inkscape:label="Pit"
       style="display:inline"
       transform="matrix(1.0292105,0,0,1.068482,-9.0445991,-0.57320768)"><g
         id="g14"
         inkscape:label="Cart"
         style="display:inline"><circle
           style="fill:none;fill-opacity:1;stroke:#502d16;stroke-width:5.01984;stroke-dasharray:none;stroke-opacity:1"
           id="path32-1"
           cx="204.61739"
           cy="116.81354"
           r="23.664934"
           inkscape:label="WheelR" /><path
           style="fill:#784421;fill-opacity:1;stroke:#784421;stroke-width:2.64583;stroke-opacity:1"
           d="m 179.61543,101.09326 c 12.47322,2.26786 64.06696,-9.449404 64.06696,-9.449404 l -12.09523,33.072914 c 0,0 -36.75086,5.40311 -48.00189,4.93038 -11.25103,-0.47273 -16.44305,-30.821749 -3.96984,-28.55389 z"
           id="path31-8"
           sodipodi:nodetypes="scczs"
           inkscape:label="Back" /><g
           id="g73"
           inkscape:label="BookStack"
           transform="matrix(-0.87461931,0,0,1.0054022,404.19155,1.151177)"><g
             id="g72"
             inkscape:label="Book"
             style="display:inline;fill:#aa0000;stroke:#800000"
             transform="matrix(0.90919566,0.1587671,-0.13413041,0.76811123,62.503422,-55.751935)"><path
               style="fill:#aa87de;fill-opacity:1;stroke:#aa87de;stroke-width:1.24755;stroke-linecap:round;stroke-linejoin:round;stroke-dasharray:none;stroke-opacity:1"
               d="m 207.64177,165.86752 c -33.55591,7.28041 -32.47564,6.71266 -32.47564,6.71266 0,0 -4.48252,-0.79577 -5.37015,-6.81257 -0.88764,-6.01681 3.48277,-7.95354 3.48277,-7.95354 l 34.91859,-7.90652 -8.33284,8.61157 z"
               id="path71"
               inkscape:label="Cover" /><path
               style="fill:#fff6d5;fill-opacity:1;stroke:#ffeeaa;stroke-width:1.24755;stroke-linecap:round;stroke-linejoin:round;stroke-dasharray:none;stroke-opacity:1"
               d="m 171.55761,165.36201 c 0.54505,2.99639 3.62613,5.40062 3.62613,5.40062 l 32.09299,-6.32909 0.10121,-12.56477 -34.03277,7.82611 c 0,0 -2.33261,2.67074 -1.78756,5.66713 z"
               id="path72"
               sodipodi:nodetypes="zccccz"
               inkscape:label="Pages" /></g><g
             id="g74"
             inkscape:label="Book"
             style="display:inline;fill:#aa0000;stroke:#800000"
             transform="matrix(-1.0020794,0.15815634,0.14783322,0.76515638,374.6244,-67.625773)"><path
               style="fill:#87aade;fill-opacity:1;stroke:#87aade;stroke-width:1.24755;stroke-linecap:round;stroke-linejoin:round;stroke-dasharray:none;stroke-opacity:1"
               d="m 207.64177,165.86752 c -33.55591,7.28041 -32.47564,6.71266 -32.47564,6.71266 0,0 -4.48252,-0.79577 -5.37015,-6.81257 -0.88764,-6.01681 3.48277,-7.95354 3.48277,-7.95354 l 34.91859,-7.90652 -8.33284,8.61157 z"
               id="path73"
               inkscape:label="Cover" /><path
               style="fill:#fff6d5;fill-opacity:1;stroke:#ffeeaa;stroke-width:1.24755;stroke-linecap:round;stroke-linejoin:round;stroke-dasharray:none;stroke-opacity:1"
               d="m 171.55761,165.36201 c 0.54505,2.99639 3.62613,5.40062 3.62613,5.40062 l 32.09299,-6.32909 0.10121,-12.56477 -34.03277,7.82611 c 0,0 -2.33261,2.67074 -1.78756,5.66713 z"
               id="path74"
               sodipodi:nodetypes="zccccz"
               inkscape:label="Pages" /></g><g
             id="g76"
             inkscape:label="Book"
             style="display:inline;fill:#aa0000;stroke:#800000"
             transform="matrix(1.0921534,0.11582499,-0.16112153,0.56035834,32.42641,-37.956853)"><path
               style="fill:#ff8080;fill-opacity:1;stroke:#ff8080;stroke-width:1.24755;stroke-linecap:round;stroke-linejoin:round;stroke-dasharray:none;stroke-opacity:1"
               d="m 207.64177,165.86752 c -33.55591,7.28041 -32.47564,6.71266 -32.47564,6.71266 0,0 -4.48252,-0.79577 -5.37015,-6.81257 -0.88764,-6.01681 3.48277,-7.95354 3.48277,-7.95354 l 34.91859,-7.90652 -8.33284,8.61157 z"
               id="path75"
               inkscape:label="Cover" /><path
               style="fill:#fff6d5;fill-opacity:1;stroke:#ffeeaa;stroke-width:1.24755;stroke-linecap:round;stroke-linejoin:round;stroke-dasharray:none;stroke-opacity:1"
               d="m 171.55761,165.36201 c 0.54505,2.99639 3.62613,5.40062 3.62613,5.40062 l 32.09299,-6.32909 0.10121,-12.56477 -34.03277,7.82611 c 0,0 -2.33261,2.67074 -1.78756,5.66713 z"
               id="path76"
               sodipodi:nodetypes="zccccz"
               inkscape:label="Pages" /></g></g><path
           style="fill:#d29c52;fill-opacity:1;stroke:#936237;stroke-width:2.11667;stroke-dasharray:none;stroke-opacity:1"
           d="m 164.04166,130.40178 -7.55952,-58.208329 c 0,0 18.14286,-8.315476 32.88393,-1.511904 14.74107,6.80357 17.76487,7.559522 17.76487,7.559522 0,0 -0.56695,25.702381 11.90626,27.970241 12.47322,2.26786 64.06696,-9.449404 64.06696,-9.449404 l -12.09523,33.072914 c 0,0 -65.47705,5.02513 -76.72808,4.5524 -11.25103,-0.47273 -30.23919,-3.98544 -30.23919,-3.98544 z"
           id="path31"
           sodipodi:nodetypes="ccscscczc"
           inkscape:label="Main" /></g></g></g></svg>
