<?xml version="1.0" encoding="UTF-8" standalone="no"?>
<!-- Created with Inkscape (http://www.inkscape.org/) -->

<svg
   width="270.8288"
   height="175.32028"
   viewBox="0 0 71.656783 46.386825"
   version="1.1"
   id="svg1"
   inkscape:version="1.4 (86a8ad7, 2024-10-11)"
   sodipodi:docname="GMTK2025.svg"
   xml:space="preserve"
   inkscape:export-filename="Minigames\Rider\MG_Rider_BG.svg"
   inkscape:export-xdpi="96"
   inkscape:export-ydpi="96"
   xmlns:inkscape="http://www.inkscape.org/namespaces/inkscape"
   xmlns:sodipodi="http://sodipodi.sourceforge.net/DTD/sodipodi-0.dtd"
   xmlns="http://www.w3.org/2000/svg"
   xmlns:svg="http://www.w3.org/2000/svg"><sodipodi:namedview
     id="namedview1"
     pagecolor="#ffffff"
     bordercolor="#000000"
     borderopacity="0.25"
     inkscape:showpageshadow="2"
     inkscape:pageopacity="0.0"
     inkscape:pagecheckerboard="true"
     inkscape:deskcolor="#d1d1d1"
     inkscape:document-units="px"
     inkscape:zoom="7.9999996"
     inkscape:cx="858.43754"
     inkscape:cy="460.43752"
     inkscape:window-width="1920"
     inkscape:window-height="1001"
     inkscape:window-x="-9"
     inkscape:window-y="-9"
     inkscape:window-maximized="1"
     inkscape:current-layer="layer10"><inkscape:page
       x="0"
       y="0"
       width="71.656784"
       height="46.386826"
       id="page2"
       margin="0"
       bleed="0" /></sodipodi:namedview><defs
     id="defs1" /><g
     id="layer2"
     inkscape:label="Race"
     transform="matrix(0.97161855,0,0,0.93590716,-54.729542,-109.32594)"
     style="display:inline"><g
       inkscape:groupmode="layer"
       id="layer4"
       inkscape:label="Pit"
       style="display:inline"
       transform="matrix(1.0292105,0,0,1.068482,-9.0445991,-0.57320768)"><g
         id="g13"
         inkscape:label="Pony"
         transform="matrix(0.8644879,0,0,0.86402062,20.252668,6.54047)"
         style="fill:#aa0000;stroke:#800000"><path
           style="fill:#c83737;fill-opacity:1;stroke:#aa0000;stroke-width:1.05833;stroke-linecap:round;stroke-linejoin:miter;stroke-dasharray:none;stroke-opacity:1"
           d="m 110.3652,124.81664 c 2.60057,6.92559 6.86132,5.1605 8.13647,8.82177 1.2822,3.68153 1.77869,10.55735 0.83527,15.79913 -1.36054,7.55934 -5.18072,15.76353 -4.59665,16.77222 0.58408,1.0087 3.99076,1.60686 8.3383,1.57642 4.67997,-0.0328 6.65916,-0.91072 8.22422,-2.69113 1.56506,-1.78041 1.16673,-8.79538 0.61906,-15.99583 -0.44641,-5.86916 -3.06058,-18.44029 -4.26295,-19.75267 l -2.27195,0.42786 c 0,0 0.12537,-5.25974 1.78435,-9.66252"
           id="path314"
           inkscape:label="LegBL"
           sodipodi:nodetypes="csszszsccc" /><path
           style="fill:#aa0000;fill-opacity:1;stroke:#aa0000;stroke-width:0.735154;stroke-dasharray:none;stroke-opacity:1"
           d="m 65.544483,133.02415 c -1.206337,3.45756 -2.92792,7.24136 -4.938232,11.36704 -4.857023,9.96788 -10.191971,13.56467 -10.191971,15.1287 0,1.56404 1.983401,3.15864 6.611338,3.15864 4.627938,0 5.950206,-1.56403 5.950206,-1.56403 0,0 3.67546,-5.29448 6.583096,-14.24081 1.117829,-3.43938 1.994736,-7.41783 2.647015,-10.9764"
           id="path315"
           inkscape:label="LegFR"
           sodipodi:nodetypes="cssscsc" /><path
           style="fill:#c83737;fill-opacity:1;stroke:#aa0000;stroke-width:0.809909;stroke-linecap:round;stroke-dasharray:none;stroke-opacity:1"
           d="m 78.406646,137.72155 c -0.03811,3.82232 -0.352039,8.22926 -1.021004,14.06192 -1.338689,11.67194 -3.912724,16.1269 -3.912724,17.78013 0,1.65323 1.840163,3.30135 7.154074,3.30135 5.31391,0 9.455524,-2.85624 9.455524,-2.85624 0,0 0.476018,-15.30377 -0.283115,-25.22316 -0.197012,-2.57431 -0.613266,-5.187 -1.121695,-7.64476"
           id="path316"
           inkscape:label="LegFL"
           sodipodi:nodetypes="cssscsc" /><path
           style="fill:#aa0000;fill-opacity:1;stroke:#aa0000;stroke-width:1.05833;stroke-dasharray:none;stroke-opacity:1"
           d="m 103.29896,133.52043 c -0.85405,2.74517 -2.38031,5.97397 -3.471491,9.05723 -1.54796,4.37395 -8.638541,14.19447 -8.44533,15.49757 0.26184,1.76597 1.2933,2.86457 7.34092,2.86457 6.047621,0 6.907771,-3.0833 6.907771,-3.0833 0,0 4.94784,-8.89071 6.18451,-16.39897 0.41437,-2.51579 0.83177,-5.1037 1.18455,-7.31036"
           id="path317"
           inkscape:label="LegBR"
           sodipodi:nodetypes="cssscsc" /></g></g></g></svg>
