<?xml version="1.0" encoding="UTF-8" standalone="no"?>
<!-- Created with Inkscape (http://www.inkscape.org/) -->

<svg
   width="403.4328"
   height="410.9144"
   viewBox="0 0 106.74159 108.7211"
   version="1.1"
   id="svg1"
   inkscape:version="1.4 (86a8ad7, 2024-10-11)"
   sodipodi:docname="GMTK2025.svg"
   xml:space="preserve"
   inkscape:export-filename="PitBG.svg"
   inkscape:export-xdpi="96"
   inkscape:export-ydpi="96"
   xmlns:inkscape="http://www.inkscape.org/namespaces/inkscape"
   xmlns:sodipodi="http://sodipodi.sourceforge.net/DTD/sodipodi-0.dtd"
   xmlns="http://www.w3.org/2000/svg"
   xmlns:svg="http://www.w3.org/2000/svg"><sodipodi:namedview
     id="namedview1"
     pagecolor="#ffffff"
     bordercolor="#000000"
     borderopacity="0.25"
     inkscape:showpageshadow="2"
     inkscape:pageopacity="0.0"
     inkscape:pagecheckerboard="true"
     inkscape:deskcolor="#d1d1d1"
     inkscape:document-units="px"
     inkscape:zoom="0.49999998"
     inkscape:cx="363.00002"
     inkscape:cy="349.00002"
     inkscape:window-width="1920"
     inkscape:window-height="1001"
     inkscape:window-x="-9"
     inkscape:window-y="-9"
     inkscape:window-maximized="1"
     inkscape:current-layer="layer4"><inkscape:page
       x="0"
       y="0"
       width="106.74159"
       height="108.7211"
       id="page2"
       margin="0"
       bleed="0" /></sodipodi:namedview><defs
     id="defs1" /><g
     id="layer2"
     inkscape:label="Race"
     transform="matrix(0.97161855,0,0,0.93590716,-38.5518,-46.991664)"
     style="display:inline"><g
       inkscape:groupmode="layer"
       id="layer4"
       inkscape:label="Pit"
       style="display:inline"
       transform="matrix(1.0292105,0,0,1.068482,-9.0445991,-0.57320768)"><g
         id="g13"
         inkscape:label="Pony"
         transform="matrix(0.8644879,0,0,0.86402062,20.252668,6.54047)"
         style="fill:#aa0000;stroke:#800000"><path
           style="fill:#aa0000;fill-opacity:1;stroke:#aa0000;stroke-width:1.05833;stroke-dasharray:none;stroke-opacity:1"
           d="m 98.297549,115.99811 c -0.49789,4.61212 4.688961,10.28218 5.471851,12.81906 0.93341,3.02465 -2.11444,8.59669 -3.941931,13.76049 -1.54796,4.37395 -8.638541,14.19447 -8.44533,15.49757 0.26184,1.76597 1.2933,2.86457 7.34092,2.86457 6.047621,0 6.907771,-3.0833 6.907771,-3.0833 0,0 4.94785,-8.89071 6.18451,-16.39897 1.04426,-6.34008 2.10775,-13.13814 2.10775,-13.13814 h -3.77976 l 6.27487,-7.97238 2.65894,-15.20582"
           id="path47"
           inkscape:label="LegBR"
           sodipodi:nodetypes="csssscscccc" /><g
           id="g69"
           inkscape:label="Tail"><path
             style="display:inline;fill:#2a7fff;fill-opacity:1;stroke:#5f8dd3;stroke-width:1.05833;stroke-linecap:round;stroke-linejoin:miter;stroke-dasharray:none;stroke-opacity:1"
             d="m 123.04955,88.036566 -1.90964,-4.501475 3.46114,0.748352 0.19314,-4.377891 3.11404,2.20013 0.71522,-4.744519 2.99342,3.835319 2.68973,-3.586721 1.03915,3.796921 6.04651,-1.613366 -1.73057,3.835317 6.78197,0.701582 -3.13004,1.947519 6.76364,5.059715 -4.42873,0.569859 5.14494,6.03361 -2.43216,0.374178 2.82633,6.090644 -3.50763,-2.09458 3.9565,7.26524 -3.97564,-1.92178 5.09817,9.31179 -4.34981,-2.34274 2.20299,10.78637 -4.12934,-2.27196 -1.01666,7.55026 -3.53895,-5.43839 -1.79786,6.27338 -2.06875,-8.21034 -3.35681,5.5911 -0.11764,-8.67554 -4.3725,1.75326 2.25723,-8.33898 -2.78055,1.81357 2.27327,-10.8038 -4.06116,0.75581 3.2353,-5.40092 -1.48535,-6.463157 -3.13901,-2.817677 z"
             id="path69"
             transform="matrix(1.1567542,0,0,1.1573798,-23.427359,-7.5698078)"
             inkscape:label="Hair"
             sodipodi:nodetypes="cccccccccccccccccccccccccccccccccccccccc" /></g><path
           style="fill:#aa0000;fill-opacity:1;stroke:#aa0000;stroke-width:0.735154;stroke-dasharray:none;stroke-opacity:1"
           d="m 67.393838,123.91654 c -0.0035,5.58464 -2.838435,12.36996 -6.787587,20.47465 -4.857018,9.96788 -10.191971,13.56467 -10.191971,15.1287 0,1.56404 1.983401,3.15864 6.611338,3.15864 4.627938,0 5.950206,-1.56403 5.950206,-1.56403 0,0 3.675458,-5.29448 6.583096,-14.24081 2.83667,-8.72798 4.121869,-20.9274 4.121869,-20.9274"
           id="path49"
           inkscape:label="LegFR"
           sodipodi:nodetypes="cssscsc" /><path
           style="fill:#c83737;fill-opacity:1;stroke:#aa0000;stroke-width:1.05833;stroke-dasharray:none;stroke-opacity:1"
           d="m 93.640143,132.84253 c 3.668301,-1.65656 8.645857,-4.38579 12.983427,-7.3993 4.62206,-3.21116 9.05963,-6.54589 9.05963,-6.54589 0,0 2.66395,-3.04387 6.82169,-3.79982 4.15774,-0.75596 6.40101,-2.43587 6.40101,-5.83766 0,-3.40178 -0.40147,-14.768523 -12.63871,-14.50904 -6.95701,0.147519 -8.11094,0.464464 -13.39341,3.307967 -5.325779,2.866813 -17.813002,6.520183 -25.322469,4.760723 -7.030978,-1.64735 -10.245088,-2.25907 -10.245088,-2.25907 0,0 -7.787395,3.57692 -7.924127,10.06002 -0.08108,3.8444 0.206441,8.3064 1.852775,12.08592 1.844921,4.23541 4.451718,8.60295 8.192086,10.61843 7.972388,4.29589 20.544885,1.17428 24.213186,-0.48228 z"
           id="path45"
           inkscape:label="Body"
           sodipodi:nodetypes="zscssssscsssz" /><path
           style="fill:#c83737;fill-opacity:1;stroke:#aa0000;stroke-width:1.05833;stroke-linecap:round;stroke-linejoin:miter;stroke-dasharray:none;stroke-opacity:1"
           d="m 108.84694,118.15691 c 1.90827,14.74107 8.07439,10.94394 9.65473,15.4815 1.2822,3.68153 1.77869,10.55735 0.83527,15.79913 -1.36054,7.55934 -5.18072,15.76353 -4.59665,16.77222 0.58408,1.0087 3.99076,1.60686 8.3383,1.57642 4.67997,-0.0328 6.65916,-0.91072 8.22422,-2.69113 1.56506,-1.78041 1.16673,-8.79538 0.61906,-15.99583 -0.44641,-5.86916 -3.06058,-18.44029 -4.26295,-19.75267 l -2.27195,0.42786 c 0,0 0.12537,-5.25974 1.78435,-9.66252 1.08593,-2.88194 3.14149,-6.55267 2.99196,-9.54333 -0.37798,-7.55951 -2.20401,-9.43019 -4.71806,-12.492423"
           id="path46"
           inkscape:label="LegBL"
           sodipodi:nodetypes="csszszsccssc" /><path
           style="fill:#c83737;fill-opacity:1;stroke:#aa0000;stroke-width:0.809909;stroke-linecap:round;stroke-dasharray:none;stroke-opacity:1"
           d="m 77.475152,124.93407 c 1.133509,8.0372 1.388306,13.96442 -0.08951,26.8494 -1.338687,11.67194 -3.912724,16.1269 -3.912724,17.78013 0,1.65323 1.840163,3.30135 7.154074,3.30135 5.31391,0 9.455524,-2.85624 9.455524,-2.85624 0,0 0.476016,-15.30377 -0.283115,-25.22316 -0.759131,-9.91937 -4.773393,-20.40853 -4.773393,-20.40853"
           id="path48"
           inkscape:label="LegFL"
           sodipodi:nodetypes="cssscsc" /><path
           style="fill:#d29c52;fill-opacity:1;stroke:#936237;stroke-width:1.05833;stroke-dasharray:none;stroke-opacity:1"
           d="m 88.759553,95.471411 c 7.559524,-0.566962 8.758303,-2.867245 12.727057,0.912515 3.96875,3.779764 4.53571,12.473214 2.83482,18.709824 -1.7009,6.23661 -3.02381,8.31547 -3.02381,8.31547 0,0 4.34672,0.37798 6.04762,-0.18898 1.70089,-0.56697 4.91369,-11.33929 5.10268,-17.38691 0.18898,-6.047616 0,-13.79613 -6.23661,-17.57589 -6.23661,-3.779764 -11.799141,-1.747651 -15.317535,0.77888 -2.534951,1.820329 -2.134222,6.435091 -2.134222,6.435091 z"
           id="path41"
           sodipodi:nodetypes="csscssssc"
           transform="matrix(1.1567542,0,0,1.1573798,-23.427359,-7.5698078)"
           inkscape:label="Yoke" /><path
           style="fill:#c83737;fill-opacity:1;stroke:#aa0000;stroke-width:1.05833;stroke-linecap:round;stroke-dasharray:none;stroke-opacity:1"
           d="m 61.218625,122.68608 c -2.367379,-6.34724 -3.010188,-9.34543 -3.193441,-15.8516 -0.311586,-11.062431 0.415702,-17.636844 0.415702,-17.636844 l 10.821305,-5.309169 c 0,0 3.821535,7.341033 5.552738,13.184637 1.453867,4.907466 4.124638,7.475006 7.068337,9.800496"
           id="path50"
           inkscape:label="Neck"
           sodipodi:nodetypes="csccsc" /><g
           id="g57"
           inkscape:label="Head"
           transform="matrix(0.98106506,-0.19378323,0.19357379,0.98106506,-13.646655,22.696683)"
           style="fill:#aa0000;stroke:#800000"
           inkscape:export-filename="Pit_pony.svg"
           inkscape:export-xdpi="96"
           inkscape:export-ydpi="96"><path
             style="fill:#c83737;fill-opacity:1;stroke:#aa0000;stroke-width:1.05833;stroke-linecap:round;stroke-dasharray:none;stroke-opacity:1"
             d="m 60.716695,91.786346 c -5.916691,1.803794 -15.089483,2.176657 -17.938576,1.548937 -2.19409,-0.483408 -6.836708,-3.577143 -6.883808,-6.043351 -0.0255,-1.335391 3.911621,-1.310004 4.156514,-3.127616 0.79746,-5.918789 -1.721785,-6.691499 -1.774061,-11.325216 -0.06881,-6.099172 4.007845,-11.759037 8.146536,-13.49348 5.189084,-2.174641 17.810444,-1.653629 20.727484,3.970504 2.91704,5.624133 4.567196,21.055046 5.28247,27.680246"
             id="path52"
             sodipodi:nodetypes="cssssssc"
             inkscape:label="Head" /><path
             style="fill:none;fill-opacity:1;stroke:#aa0000;stroke-width:1.22456;stroke-linecap:round;stroke-linejoin:miter;stroke-dasharray:none;stroke-opacity:1"
             d="m 43.769685,105.35197 c 3.78727,-2.05707 4.111893,-2.54426 4.382415,-3.13973"
             id="path66"
             inkscape:label="Mouth"
             transform="matrix(0.98106506,0.19378323,-0.19357379,0.98106505,17.781739,-19.62243)" /><g
             id="g58"
             inkscape:label="Eye"
             transform="matrix(0.99623178,0.38407936,-0.32430445,0.84209669,30.570056,-16.424723)"
             style="display:inline;fill:#aa0000;stroke:#800000"><g
               id="g1"
               inkscape:label="Ball"><path
                 style="fill:#ffffff;fill-opacity:1;stroke:#ffffff;stroke-width:0.612281;stroke-linecap:round;stroke-linejoin:miter;stroke-dasharray:none;stroke-opacity:1"
                 d="m 46.146154,89.492072 c 1.312665,4.436404 3.200992,6.273216 6.50373,5.851054 3.053279,-0.390276 6.492405,-2.431148 5.246705,-8.093044 -1.195499,-5.433724 -6.621267,-10.812403 -9.400349,-9.842898 -4.075029,1.421606 -3.662751,7.648483 -2.350086,12.084888 z"
                 id="path57"
                 sodipodi:nodetypes="zsssz"
                 inkscape:label="White" /><path
                 style="fill:#008000;fill-opacity:1;stroke:#008000;stroke-width:0.668673;stroke-linecap:round;stroke-linejoin:miter;stroke-dasharray:none;stroke-opacity:1"
                 d="m 48.079815,90.694247 c 0.664637,2.49147 1.568665,3.387364 2.566289,4.302038 0.835366,0.765907 2.838583,0.350711 2.838583,0.350711 3.959312,-1.486342 4.428776,-3.758679 4.627949,-6.365439 0.22426,-2.935095 -2.331982,-7.216025 -4.545456,-9.359788 0,0 -1.320254,-0.559943 -2.251854,-0.35727 -3.678732,0.800339 -3.90015,8.938276 -3.235511,11.429748 z"
                 id="path58"
                 sodipodi:nodetypes="zscscsz"
                 inkscape:label="Iris" /><path
                 style="fill:#000000;fill-opacity:1;stroke:#000000;stroke-width:0.580233;stroke-linecap:round;stroke-linejoin:miter;stroke-dasharray:none;stroke-opacity:1"
                 d="m 50.291568,90.611645 c 0.541878,2.301005 1.310122,3.022356 2.123483,3.867105 0.681072,0.707355 2.064763,0.606714 2.064763,0.606714 3.22802,-1.372715 3.601331,-3.065341 3.69702,-5.477826 0.150728,-3.800142 -1.616786,-6.479612 -3.793076,-9.235166 0,0 -1.430953,0.477077 -2.190485,0.664252 -2.999263,0.739156 -2.443583,7.273915 -1.901705,9.574921 z"
                 id="path59"
                 sodipodi:nodetypes="zscscsz"
                 inkscape:label="Black" /><path
                 style="display:inline;fill:#ffffff;fill-opacity:1;stroke:#ffffff;stroke-width:0.612281;stroke-linecap:round;stroke-linejoin:miter;stroke-dasharray:none;stroke-opacity:1"
                 d="m 49.266293,76.269678 c -0.162078,0.961189 2.03024,1.449401 2.03024,1.449401 0,0 2.027154,0.207287 2.586643,-0.951293 0.236457,-0.918909 -1.887749,-1.752324 -1.887749,-1.752324 0,0 -2.044101,-0.695395 -2.729134,1.254216 z"
                 id="path70"
                 sodipodi:nodetypes="ccccc"
                 transform="matrix(0.87401381,-0.39863672,0.33659623,1.0339909,-21.190152,29.169361)" /></g><path
               style="fill:#c83737;fill-opacity:1;stroke:#c83737;stroke-width:1.22456;stroke-linecap:round;stroke-linejoin:miter;stroke-dasharray:none;stroke-opacity:1"
               d="m 45.338697,88.191753 c 0,0 2.029032,-1.965118 4.707038,-3.57279 2.705196,-1.623993 4.057792,-4.114117 5.897325,-3.356254 1.839533,0.757863 3.679067,-0.595466 4.761143,-0.162399 1.08208,0.433064 -3.246232,-8.119976 -3.246232,-8.119976 l -13.363665,5.08852 z"
               id="path65"
               transform="matrix(0.92269111,-0.19071846,0.16103663,1.091578,-12.253502,1.7914927)"
               inkscape:label="LidU"
               sodipodi:nodetypes="csssccc" /><path
               style="fill:none;fill-opacity:1;stroke:#000000;stroke-width:1.22456;stroke-linecap:round;stroke-linejoin:miter;stroke-dasharray:none;stroke-opacity:1"
               d="m 45.582127,88.517812 c 3.624961,-3.08559 2.684341,-2.606507 7.385239,-5.35759 1.943622,-1.137456 5.870893,-2.015401 7.107689,-1.801589"
               id="path64"
               sodipodi:nodetypes="csc"
               inkscape:label="Lash"
               transform="matrix(0.92269111,-0.19071846,0.16103663,1.091578,-12.253502,1.791493)" /><path
               style="fill:#c83737;fill-opacity:1;stroke:#c83737;stroke-width:1.24415;stroke-linecap:round;stroke-linejoin:miter;stroke-dasharray:none;stroke-opacity:1"
               d="m 61.51416,91.630294 c 0,0 -2.454987,-0.03027 -5.352113,1.21462 -2.204019,0.947061 -5.194539,2.789183 -5.471794,4.427385 -0.441117,2.606397 -2.15993,-1.860009 1.147286,5.182981 l 9.375632,-3.401487 z"
               id="path67"
               inkscape:label="LidD"
               sodipodi:nodetypes="cssccc" /></g><g
             id="g68"
             inkscape:label="Mane"
             style="fill:#aa0000;stroke:#800000"><path
               style="display:inline;fill:#2a7fff;fill-opacity:1;stroke:#5f8dd3;stroke-width:1.24755;stroke-linecap:round;stroke-linejoin:miter;stroke-dasharray:none;stroke-opacity:1"
               d="m 53.376919,67.031331 c -6.290344,3.646747 -11.827568,8.576144 -11.827568,8.576144 0,0 -5.292925,0.292796 -6.630135,-0.541341 -1.531961,-0.955621 -6.472217,-8.62595 -6.472217,-8.62595 l 3.248976,1.24783 -4.028307,-10.672877 4.493557,3.301268 1.891572,-9.429466 1.584678,6.507615 4.974981,-11.019442 1.075642,7.569799 7.832763,-9.783367 1.079998,7.060864 6.77233,-5.928247 1.906713,10.353682 5.392829,-2.72744 -0.502015,6.832288 5.264634,0.562424 -3.086091,4.896008 5.292365,2.030727 -2.456454,0.982644 5.44945,5.915929 -3.186594,-0.211141 6.434536,10.540312 -4.309139,-2.078649 5.798551,11.706216 -3.89071,-1.666115 0.351348,8.728404 -3.010332,-8.639972 -2.367112,3.5318 -0.521094,-11.393485 -2.696695,1.75584 -0.08013,-7.37708 -8.714668,-12.274158 z"
               id="path68"
               transform="matrix(0.99623178,0.38407936,-0.32430445,0.84209669,30.570056,-16.424723)"
               inkscape:label="Hair"
               sodipodi:nodetypes="ccscccccccccccccccccccccccccccccccc" /></g><g
             id="g56"
             inkscape:label="Ear"
             transform="translate(-3.4008165,0.77333086)"
             style="fill:#c83737;stroke:#aa0000"><path
               style="fill:#c83737;fill-opacity:1;stroke:#aa0000;stroke-width:1.05833;stroke-linecap:round;stroke-dasharray:none;stroke-opacity:1"
               d="m 66.229665,61.569282 c -2.224486,-3.685051 -1.551492,-6.172802 -0.446786,-8.761226 1.277726,-2.993826 5.721494,-6.58895 5.721494,-6.58895 0,0 3.375203,9.544112 4.990979,14.544699 1.922911,5.951122 -1.24413,11.924917 -3.280114,15.292817"
               id="path53"
               inkscape:label="Ear"
               sodipodi:nodetypes="cscsc" /><path
               style="fill:#c83737;fill-opacity:1;stroke:#aa0000;stroke-width:0.529167;stroke-linecap:round;stroke-dasharray:none;stroke-opacity:1"
               d="m 81.520564,51.499989 c 0,0 2.157727,7.039568 2.421638,10.168519 0.247158,2.93032 -1.355918,5.282507 -1.355918,5.282507"
               id="path56"
               sodipodi:nodetypes="csc"
               transform="matrix(1.1567542,0,0,1.1573798,-23.427359,-7.5698078)"
               inkscape:label="EarLine" /></g></g><path
           style="fill:#c83737;fill-opacity:1;stroke:#aa0000;stroke-width:1.05833;stroke-linecap:round;stroke-linejoin:miter;stroke-dasharray:none;stroke-opacity:1"
           d="m 110.3652,124.81664 c 2.60057,6.92559 6.86132,5.1605 8.13647,8.82177 1.2822,3.68153 1.77869,10.55735 0.83527,15.79913 -1.36054,7.55934 -5.18072,15.76353 -4.59665,16.77222 0.58408,1.0087 3.99076,1.60686 8.3383,1.57642 4.67997,-0.0328 6.65916,-0.91072 8.22422,-2.69113 1.56506,-1.78041 1.16673,-8.79538 0.61906,-15.99583 -0.44641,-5.86916 -3.06058,-18.44029 -4.26295,-19.75267 l -2.27195,0.42786 c 0,0 0.12537,-5.25974 1.78435,-9.66252"
           id="path314"
           inkscape:label="LegBL"
           sodipodi:nodetypes="csszszsccc" /><path
           style="fill:#aa0000;fill-opacity:1;stroke:#aa0000;stroke-width:0.735154;stroke-dasharray:none;stroke-opacity:1"
           d="m 65.544483,133.02415 c -1.206337,3.45756 -2.92792,7.24136 -4.938232,11.36704 -4.857023,9.96788 -10.191971,13.56467 -10.191971,15.1287 0,1.56404 1.983401,3.15864 6.611338,3.15864 4.627938,0 5.950206,-1.56403 5.950206,-1.56403 0,0 3.67546,-5.29448 6.583096,-14.24081 1.117829,-3.43938 1.994736,-7.41783 2.647015,-10.9764"
           id="path315"
           inkscape:label="LegFR"
           sodipodi:nodetypes="cssscsc" /><path
           style="fill:#c83737;fill-opacity:1;stroke:#aa0000;stroke-width:0.809909;stroke-linecap:round;stroke-dasharray:none;stroke-opacity:1"
           d="m 78.406646,137.72155 c -0.03811,3.82232 -0.352039,8.22926 -1.021004,14.06192 -1.338689,11.67194 -3.912724,16.1269 -3.912724,17.78013 0,1.65323 1.840163,3.30135 7.154074,3.30135 5.31391,0 9.455524,-2.85624 9.455524,-2.85624 0,0 0.476018,-15.30377 -0.283115,-25.22316 -0.197012,-2.57431 -0.613266,-5.187 -1.121695,-7.64476"
           id="path316"
           inkscape:label="LegFL"
           sodipodi:nodetypes="cssscsc" /><path
           style="fill:#aa0000;fill-opacity:1;stroke:#aa0000;stroke-width:1.05833;stroke-dasharray:none;stroke-opacity:1"
           d="m 103.29896,133.52043 c -0.85405,2.74517 -2.38031,5.97397 -3.471491,9.05723 -1.54796,4.37395 -8.638541,14.19447 -8.44533,15.49757 0.26184,1.76597 1.2933,2.86457 7.34092,2.86457 6.047621,0 6.907771,-3.0833 6.907771,-3.0833 0,0 4.94784,-8.89071 6.18451,-16.39897 0.41437,-2.51579 0.83177,-5.1037 1.18455,-7.31036"
           id="path317"
           inkscape:label="LegBR"
           sodipodi:nodetypes="cssscsc"
           inkscape:export-filename="Pit_legs.svg"
           inkscape:export-xdpi="96"
           inkscape:export-ydpi="96" /></g></g></g></svg>
