<?xml version="1.0" encoding="UTF-8" standalone="no"?>
<!-- Created with Inkscape (http://www.inkscape.org/) -->

<svg
   width="187.06415"
   height="209.26591"
   viewBox="0 0 49.494054 55.368273"
   version="1.1"
   id="svg1"
   inkscape:version="1.4 (86a8ad7, 2024-10-11)"
   sodipodi:docname="GMTK2025.svg"
   xml:space="preserve"
   inkscape:export-filename="Minigames\Rider\MG_Rider_BG.svg"
   inkscape:export-xdpi="96"
   inkscape:export-ydpi="96"
   xmlns:inkscape="http://www.inkscape.org/namespaces/inkscape"
   xmlns:sodipodi="http://sodipodi.sourceforge.net/DTD/sodipodi-0.dtd"
   xmlns="http://www.w3.org/2000/svg"
   xmlns:svg="http://www.w3.org/2000/svg"><sodipodi:namedview
     id="namedview1"
     pagecolor="#ffffff"
     bordercolor="#000000"
     borderopacity="0.25"
     inkscape:showpageshadow="2"
     inkscape:pageopacity="0.0"
     inkscape:pagecheckerboard="true"
     inkscape:deskcolor="#d1d1d1"
     inkscape:document-units="px"
     inkscape:zoom="0.99999996"
     inkscape:cx="592.50003"
     inkscape:cy="396.50002"
     inkscape:window-width="1920"
     inkscape:window-height="1001"
     inkscape:window-x="-9"
     inkscape:window-y="-9"
     inkscape:window-maximized="1"
     inkscape:current-layer="g14"><inkscape:page
       x="0"
       y="0"
       width="49.494053"
       height="55.368275"
       id="page2"
       margin="0"
       bleed="0" /></sodipodi:namedview><defs
     id="defs1" /><g
     id="layer2"
     inkscape:label="Race"
     transform="matrix(0.97161855,0,0,0.93590716,-182.24633,-16.691737)"
     style="display:inline"><g
       inkscape:groupmode="layer"
       id="layer4"
       inkscape:label="Pit"
       style="display:inline"
       transform="matrix(1.0292105,0,0,1.068482,-9.0445991,-0.57320768)"><g
         id="g14"
         inkscape:label="Cart"
         style="display:inline"><g
           id="g79"
           inkscape:label="Chair"
           style="display:inline"
           transform="matrix(-0.87461931,0,0,1.0054022,404.19154,1.151177)"><path
             style="display:inline;fill:#d29c52;fill-opacity:1;stroke:#936237;stroke-width:1.12861;stroke-linecap:round;stroke-linejoin:round;stroke-dasharray:none;stroke-opacity:1"
             d="m 219.24095,70.124955 h -3.7434 l -0.42782,-13.398006 -2.99472,-34.425431 3.95731,-0.372167 3.7434,33.215888 z"
             id="path81"
             inkscape:label="LegBR"
             transform="translate(8.2955394e-6)" /><path
             style="display:inline;fill:#d29c52;fill-opacity:1;stroke:#936237;stroke-width:1.12861;stroke-linecap:round;stroke-linejoin:round;stroke-dasharray:none;stroke-opacity:1"
             d="m 197.42227,70.031911 0.32086,-13.491046 -5.24077,-33.495013 -4.81294,-0.558251 4.70599,35.821057 0.74868,12.188463 z"
             id="path80"
             inkscape:label="LegBL"
             transform="translate(8.2955394e-6)" /><path
             style="display:inline;fill:#800000;fill-opacity:1;stroke:#550000;stroke-width:1.12861;stroke-linecap:round;stroke-linejoin:round;stroke-dasharray:none;stroke-opacity:1"
             d="m 215.28364,56.261739 -16.79183,0.837376 -6.95203,-31.262013 20.96305,-1.860833 z"
             id="path83"
             inkscape:label="Back"
             transform="translate(8.2955394e-6)" /><path
             style="display:inline;fill:#800000;fill-opacity:1;stroke:#550000;stroke-width:1.12861;stroke-linecap:round;stroke-linejoin:round;stroke-dasharray:none;stroke-opacity:1"
             d="m 236.78146,58.959949 -28.02204,0.558252 -14.01102,-0.279126 -0.74867,-3.907752 13.69015,-2.233001 29.62635,0.837376 z"
             id="path82"
             transform="translate(8.2955394e-6)"
             sodipodi:nodetypes="ccccccc"
             inkscape:label="Seat" /><path
             style="fill:#d29c52;fill-opacity:1;stroke:#936237;stroke-width:1.12861;stroke-linecap:round;stroke-linejoin:round;stroke-dasharray:none;stroke-opacity:1"
             d="m 212.48577,69.57971 -2.04196,-14.934425 -3.93266,0.06579 1.05879,14.934425 z"
             id="path78"
             inkscape:label="LegFL" /><path
             style="fill:#d29c52;fill-opacity:1;stroke:#936237;stroke-width:1.12861;stroke-linecap:round;stroke-linejoin:round;stroke-dasharray:none;stroke-opacity:1"
             d="m 237.14054,55.237398 -5.06708,0.06579 -2.34447,14.342311 3.85703,-0.06579 3.32764,-9.210659 z"
             id="path79"
             inkscape:label="LegFR" /></g></g><g
         id="g15"
         inkscape:label="Gnome"
         style="display:inline"><path
           style="display:inline;fill:#333333;fill-opacity:1;stroke:#1a1a1a;stroke-width:0.529167;stroke-linecap:round;stroke-linejoin:round;stroke-dasharray:none;stroke-opacity:1"
           d="m 197.37855,53.741219 1.26284,3.274052 7.81095,-2.61924 5.00463,0.187087 1.54348,3.601458 4.5369,0.795125 1.07576,-3.648228 2.61924,-0.982215 -0.0935,-4.349811 -13.84457,-1.309621 c 0,0 -3.55468,1.917657 -4.91107,2.338607 -1.3564,0.420952 -5.00462,2.712786 -5.00462,2.712786 z"
           id="path95"
           inkscape:label="Legs" /><path
           style="display:inline;fill:#2c2ca0;fill-opacity:1;stroke:#000080;stroke-width:0.529167;stroke-linecap:round;stroke-linejoin:round;stroke-dasharray:none;stroke-opacity:1"
           d="m 203.33229,50.403124 c 0,0 3.421,0.870403 5.57074,1.11845 3.02617,-0.330729 10.89957,-1.316887 12.95009,0.435978 -0.39687,-2.513542 1.55443,-8.235157 0.1323,-11.211719 l -15.875,-0.463022 c -2.18281,2.050521 -1.19063,6.945313 -2.77813,10.120313 z"
           id="path94"
           inkscape:label="Body"
           sodipodi:nodetypes="cccccc" /><g
           id="g93"
           inkscape:label="Head"
           style="display:inline"><path
             style="display:inline;fill:#e9c6af;fill-opacity:1;stroke:#deaa87;stroke-width:0.529167;stroke-linecap:round;stroke-linejoin:round;stroke-dasharray:none;stroke-opacity:1"
             d="m 206.92007,40.036974 7.67063,2.33861 7.95127,-3.741774 -4.02241,-8.044813 -10.00924,-1.122531 -2.80633,6.361014 z"
             id="path85"
             inkscape:label="Head" /><path
             style="display:inline;fill:#cccccc;fill-opacity:1;stroke:#b3b3b3;stroke-width:0.529167;stroke-linecap:round;stroke-linejoin:round;stroke-dasharray:none;stroke-opacity:1"
             d="m 207.76196,37.511278 c 0,0 -3.08696,0.561266 -2.89987,0.935442 0.18709,0.374179 0.46772,2.899876 0.46772,2.899876 l 1.59026,-1.403165 -2.61924,2.899873 3.46113,-0.748353 -2.24506,4.864304 1.87089,-1.683798 0.37417,5.238483 4.02241,-2.15152 -3.46114,5.706205 6.36101,-3.928862 2.15153,-2.057976 0.6548,-6.080382 4.39659,-0.935442 -0.46772,-2.525697 -0.74836,-0.935445 0.18709,-1.870884 -3.08696,-2.245067 v 2.432154 c 0,0 -1.02899,1.777343 -3.55469,2.432153 -2.52569,0.654809 -4.58367,1.403164 -5.23848,0.374176 -0.65481,-1.028986 -1.21608,-1.216075 -1.21608,-1.216075 z"
             id="path88"
             inkscape:label="Beard" /><path
             style="display:inline;fill:#cccccc;fill-opacity:1;stroke:#b3b3b3;stroke-width:0.529167;stroke-linecap:round;stroke-linejoin:round;stroke-dasharray:none;stroke-opacity:1"
             d="m 205.14272,34.050136 c 0,0 0.93545,2.619243 4.67722,2.619243 3.74177,0 2.89987,0.561266 5.89329,0 2.99342,-0.561266 2.24507,-1.496708 2.24507,-1.496708 l 0.65481,1.777341 h 0.93544 c 0,0 -0.37418,1.870887 -2.43215,1.964431 -2.05798,0.09354 -3.46114,-0.65481 -6.73519,-1.216076 -3.27405,-0.561266 -5.23849,-0.09355 -5.23849,-0.09355 l 0.46772,-0.654809 -1.87088,-1.122532 1.6838,0.09354 z"
             id="path87"
             inkscape:label="Moustache" /><path
             style="display:inline;fill:#e9c6af;fill-opacity:1;stroke:#deaa87;stroke-width:0.529167;stroke-linecap:round;stroke-linejoin:round;stroke-dasharray:none;stroke-opacity:1"
             d="m 210.08971,37.703066 c 0.62839,0.198438 2.14085,0.226728 2.91593,-0.421838 0.77508,-0.648566 0.59134,-1.006357 0.30754,-1.531241 -0.2838,-0.524884 -1.4386,-1.33637 -2.23372,-1.452291 -0.79512,-0.115921 -2.04958,0.290226 -2.55211,0.694045 -0.50254,0.403818 -0.68882,0.988782 -0.39116,1.584094 0.13229,0.496094 1.19285,1.028012 1.95352,1.127231 z"
             id="path86"
             inkscape:label="Nose"
             sodipodi:nodetypes="czzzzcc" /><path
             style="display:inline;fill:#800000;fill-opacity:1;stroke:#550000;stroke-width:0.529167;stroke-linecap:round;stroke-linejoin:round;stroke-dasharray:none;stroke-opacity:1"
             d="m 205.97292,34.494472 c 0.1754,-0.479415 -0.38586,-1.8475 5.0631,-1.099145 6.56681,0.901879 11.03823,3.554685 11.22532,4.022407 0.18708,0.46772 0.37417,2.151518 0.37417,2.151518 h 0.8419 c 0,0 1.12253,-2.151518 0.56127,-3.274049 -0.56127,-1.122532 -1.21608,-2.33861 -0.74836,-3.180509 0.46773,-0.841899 0,-3.367595 -0.46772,-5.051393 -0.46772,-1.683799 -0.93544,-2.806331 -1.49671,-5.051395 -0.56126,-2.245064 0.69534,2.30829 2.71279,3.928863 0.47956,-1.405599 0.74365,-6.656725 0.28063,-7.483548 -1.32292,-0.909505 -6.66191,-1.832139 -7.67063,-1.964431 -1.96784,0.09922 -4.34982,1.251155 -6.93397,4.992929 -1.5045,2.17846 -2.32692,5.764669 -2.7011,6.793657 -0.37418,1.028988 -1.77734,0.654812 -1.77734,0.654812 0,0 0.44343,1.342378 0.1866,2.104991 -0.27447,0.814986 -1.21559,1.262604 -1.21559,1.262604 0,0 1.12253,1.075758 1.76564,1.192689 z"
             id="path84"
             inkscape:label="Cap"
             sodipodi:nodetypes="cssccsssscccsscscc" /></g><path
           style="display:inline;fill:#784421;fill-opacity:1;stroke:#552200;stroke-width:0.529167;stroke-linecap:round;stroke-linejoin:round;stroke-dasharray:none;stroke-opacity:1"
           d="m 196.08348,59.077132 -2.09603,-2.571929 0.47796,-0.348686 -3.1666,-4.390705 2.16644,-2.752242 c 0,0 0.098,1.539658 1.03041,2.61701 0.93244,1.07735 2.88151,1.339792 2.88151,1.339792 l 1.66501,-0.628834 2.1862,4.703162 z"
           id="path91"
           inkscape:label="FootR" /><path
           style="display:inline;fill:#784421;fill-opacity:1;stroke:#552200;stroke-width:0.529167;stroke-linecap:round;stroke-linejoin:round;stroke-dasharray:none;stroke-opacity:1"
           d="m 213.18754,51.449385 c -1.59026,3.461139 -1.59026,1.122532 -1.59026,3.461139 0,2.338609 -0.8419,5.051393 1.30962,5.519115 2.15152,0.467723 5.33203,0.65481 5.79975,-1.309621 0.46772,-1.964431 1.59026,-4.677217 1.59026,-6.454558 0,-1.777344 -1.59026,-5.612659 -1.59026,-5.612659 z"
           id="path89"
           inkscape:label="FootL" /><path
           style="display:inline;fill:#784421;fill-opacity:1;stroke:#552200;stroke-width:0.529167;stroke-linecap:round;stroke-linejoin:round;stroke-dasharray:none;stroke-opacity:1"
           d="m 203.45893,49.578498 -2.71279,-0.748356 -1.59025,-6.361014 4.8643,-1.122532 4.02241,3.086962 z"
           id="path92"
           inkscape:label="HandR" /><path
           style="display:inline;fill:#2c2ca0;fill-opacity:1;stroke:#000080;stroke-width:0.529167;stroke-linecap:round;stroke-linejoin:round;stroke-dasharray:none;stroke-opacity:1"
           d="m 210.10057,50.51394 c 0,0 10.48716,-1.958445 12.06722,-3.928862 0.82398,-1.027546 0.54858,-5.812158 -0.74835,-5.986838 -2.13428,-0.287461 -5.7915,3.36093 -6.60761,3.639802 -0.56126,0.191788 -2.93391,0.476149 -3.86936,0.476149 -0.93544,0 -1.96443,0.280633 -1.96443,0.280633 z"
           id="path93"
           inkscape:label="ArmL"
           sodipodi:nodetypes="csssscc" /><path
           style="display:inline;fill:#784421;fill-opacity:1;stroke:#552200;stroke-width:0.529167;stroke-linecap:round;stroke-linejoin:round;stroke-dasharray:none;stroke-opacity:1"
           d="m 211.78437,49.952674 -0.46772,-5.612659 -0.8419,-0.09355 c 0,0 -4.13934,-1.496708 -4.95785,-1.590252 -0.63142,0.163703 -1.75395,1.028986 -2.43215,2.712784 -0.0234,1.426551 0.93544,4.209497 0.93544,4.209497 0.32741,1.028988 2.43215,1.122531 2.43215,1.122531 h 3.46114 z"
           id="path90"
           inkscape:label="HandL"
           sodipodi:nodetypes="ccccccccc" /></g></g></g></svg>
