<?xml version="1.0" encoding="UTF-8" standalone="no"?>
<!-- Created with Inkscape (http://www.inkscape.org/) -->

<svg
   width="830"
   height="467"
   viewBox="0 0 219.60416 123.56042"
   version="1.1"
   id="svg1"
   inkscape:version="1.4 (86a8ad7, 2024-10-11)"
   sodipodi:docname="GMTK2025.svg"
   xml:space="preserve"
   inkscape:export-filename="Minigames\Cart\MG_Cart_BG.png"
   inkscape:export-xdpi="96"
   inkscape:export-ydpi="96"
   xmlns:inkscape="http://www.inkscape.org/namespaces/inkscape"
   xmlns:sodipodi="http://sodipodi.sourceforge.net/DTD/sodipodi-0.dtd"
   xmlns="http://www.w3.org/2000/svg"
   xmlns:svg="http://www.w3.org/2000/svg"><sodipodi:namedview
     id="namedview1"
     pagecolor="#ffffff"
     bordercolor="#000000"
     borderopacity="0.25"
     inkscape:showpageshadow="2"
     inkscape:pageopacity="0.0"
     inkscape:pagecheckerboard="true"
     inkscape:deskcolor="#d1d1d1"
     inkscape:document-units="px"
     inkscape:zoom="1.4142135"
     inkscape:cx="447.24506"
     inkscape:cy="215.31402"
     inkscape:window-width="1920"
     inkscape:window-height="1001"
     inkscape:window-x="-9"
     inkscape:window-y="-9"
     inkscape:window-maximized="1"
     inkscape:current-layer="g232"><inkscape:page
       x="0"
       y="0"
       width="219.60416"
       height="123.56042"
       id="page2"
       margin="0"
       bleed="0" /></sodipodi:namedview><defs
     id="defs1"><clipPath
       clipPathUnits="userSpaceOnUse"
       id="clipPath20"><rect
         style="display:inline;fill:#cede68;fill-opacity:1;stroke:#cede68;stroke-width:1.05833;stroke-linecap:square;stroke-linejoin:miter;stroke-dasharray:none;stroke-opacity:1"
         id="rect21"
         width="219.64212"
         height="123.8527"
         x="38.914444"
         y="19.8314"
         inkscape:label="BG"
         inkscape:export-filename="Minigames\Horseshoe\MG_Hshoe_BG.svg"
         inkscape:export-xdpi="96"
         inkscape:export-ydpi="96" /></clipPath></defs><g
     id="layer5"
     inkscape:label="Mini-games"
     clip-path="url(#clipPath20)"
     transform="translate(-38.89375,-19.843749)"><g
       inkscape:groupmode="layer"
       id="layer8"
       inkscape:label="Washing"><g
         id="g200"
         inkscape:label="BG"
         style="display:inline"><rect
           style="display:inline;fill:#53a2c7;fill-opacity:1;stroke:#53a2c7;stroke-width:1.05833;stroke-linecap:square;stroke-linejoin:miter;stroke-dasharray:none;stroke-opacity:1"
           id="rect198"
           width="219.64211"
           height="123.8527"
           x="38.914444"
           y="19.8314"
           inkscape:label="Sky"
           inkscape:export-filename="Minigames\Horseshoe\MG_Hshoe_BG.svg"
           inkscape:export-xdpi="96"
           inkscape:export-ydpi="96" /><rect
           style="display:inline;fill:#80ac40;fill-opacity:1;stroke:#80ac40;stroke-width:1.05518;stroke-linecap:square;stroke-linejoin:miter;stroke-dasharray:none;stroke-opacity:1"
           id="rect199"
           width="219.64526"
           height="123.11473"
           x="38.912872"
           y="20.570951"
           inkscape:label="Grass"
           inkscape:export-filename="Minigames\Horseshoe\MG_Hshoe_BG.svg"
           inkscape:export-xdpi="96"
           inkscape:export-ydpi="96" /><rect
           style="display:inline;fill:#cede68;fill-opacity:1;stroke:#cede68;stroke-width:0.861971;stroke-linecap:square;stroke-linejoin:miter;stroke-dasharray:none;stroke-opacity:1"
           id="rect200"
           width="219.83847"
           height="82.084236"
           x="38.816265"
           y="61.698051"
           inkscape:label="Grass"
           inkscape:export-filename="Minigames\Horseshoe\MG_Hshoe_BG.svg"
           inkscape:export-xdpi="96"
           inkscape:export-ydpi="96" /></g><g
         id="g228"
         inkscape:label="Cart"
         style="display:inline"
         transform="translate(-41.804168,-28.575001)"><circle
           style="fill:none;fill-opacity:1;stroke:#502d16;stroke-width:5.01984;stroke-dasharray:none;stroke-opacity:1"
           id="circle214"
           cx="204.61739"
           cy="116.81354"
           r="23.664934"
           inkscape:label="WheelR" /><path
           style="fill:#784421;fill-opacity:1;stroke:#784421;stroke-width:2.64583;stroke-opacity:1"
           d="m 179.61543,101.09326 c 12.47322,2.26786 64.06696,-9.449404 64.06696,-9.449404 l -12.09523,33.072914 c 0,0 -36.75086,5.40311 -48.00189,4.93038 -11.25103,-0.47273 -16.44305,-30.821749 -3.96984,-28.55389 z"
           id="path214"
           sodipodi:nodetypes="scczs"
           inkscape:label="Back" /><g
           id="g227"
           inkscape:label="BookStack"
           transform="matrix(-0.87461931,0,0,1.0054022,404.19155,1.151177)"><g
             id="g216"
             inkscape:label="Book"
             style="display:inline;fill:#aa0000;stroke:#800000"
             transform="matrix(0.90919566,0.1587671,-0.13413041,0.76811123,62.503422,-55.751935)"><path
               style="fill:#aa87de;fill-opacity:1;stroke:#aa87de;stroke-width:1.24755;stroke-linecap:round;stroke-linejoin:round;stroke-dasharray:none;stroke-opacity:1"
               d="m 207.64177,165.86752 c -33.55591,7.28041 -32.47564,6.71266 -32.47564,6.71266 0,0 -4.48252,-0.79577 -5.37015,-6.81257 -0.88764,-6.01681 3.48277,-7.95354 3.48277,-7.95354 l 34.91859,-7.90652 -8.33284,8.61157 z"
               id="path215"
               inkscape:label="Cover" /><path
               style="fill:#fff6d5;fill-opacity:1;stroke:#ffeeaa;stroke-width:1.24755;stroke-linecap:round;stroke-linejoin:round;stroke-dasharray:none;stroke-opacity:1"
               d="m 171.55761,165.36201 c 0.54505,2.99639 3.62613,5.40062 3.62613,5.40062 l 32.09299,-6.32909 0.10121,-12.56477 -34.03277,7.82611 c 0,0 -2.33261,2.67074 -1.78756,5.66713 z"
               id="path216"
               sodipodi:nodetypes="zccccz"
               inkscape:label="Pages" /></g><g
             id="g218"
             inkscape:label="Book"
             style="display:inline;fill:#aa0000;stroke:#800000"
             transform="matrix(-1.0020794,0.15815634,0.14783322,0.76515638,374.6244,-67.625773)"><path
               style="fill:#87aade;fill-opacity:1;stroke:#87aade;stroke-width:1.24755;stroke-linecap:round;stroke-linejoin:round;stroke-dasharray:none;stroke-opacity:1"
               d="m 207.64177,165.86752 c -33.55591,7.28041 -32.47564,6.71266 -32.47564,6.71266 0,0 -4.48252,-0.79577 -5.37015,-6.81257 -0.88764,-6.01681 3.48277,-7.95354 3.48277,-7.95354 l 34.91859,-7.90652 -8.33284,8.61157 z"
               id="path217"
               inkscape:label="Cover" /><path
               style="fill:#fff6d5;fill-opacity:1;stroke:#ffeeaa;stroke-width:1.24755;stroke-linecap:round;stroke-linejoin:round;stroke-dasharray:none;stroke-opacity:1"
               d="m 171.55761,165.36201 c 0.54505,2.99639 3.62613,5.40062 3.62613,5.40062 l 32.09299,-6.32909 0.10121,-12.56477 -34.03277,7.82611 c 0,0 -2.33261,2.67074 -1.78756,5.66713 z"
               id="path218"
               sodipodi:nodetypes="zccccz"
               inkscape:label="Pages" /></g><g
             id="g220"
             inkscape:label="Book"
             style="display:inline;fill:#aa0000;stroke:#800000"
             transform="matrix(1.0921534,0.11582499,-0.16112153,0.56035834,32.42641,-37.956853)"><path
               style="fill:#ff8080;fill-opacity:1;stroke:#ff8080;stroke-width:1.24755;stroke-linecap:round;stroke-linejoin:round;stroke-dasharray:none;stroke-opacity:1"
               d="m 207.64177,165.86752 c -33.55591,7.28041 -32.47564,6.71266 -32.47564,6.71266 0,0 -4.48252,-0.79577 -5.37015,-6.81257 -0.88764,-6.01681 3.48277,-7.95354 3.48277,-7.95354 l 34.91859,-7.90652 -8.33284,8.61157 z"
               id="path219"
               inkscape:label="Cover" /><path
               style="fill:#fff6d5;fill-opacity:1;stroke:#ffeeaa;stroke-width:1.24755;stroke-linecap:round;stroke-linejoin:round;stroke-dasharray:none;stroke-opacity:1"
               d="m 171.55761,165.36201 c 0.54505,2.99639 3.62613,5.40062 3.62613,5.40062 l 32.09299,-6.32909 0.10121,-12.56477 -34.03277,7.82611 c 0,0 -2.33261,2.67074 -1.78756,5.66713 z"
               id="path220"
               sodipodi:nodetypes="zccccz"
               inkscape:label="Pages" /></g><g
             id="g226"
             inkscape:label="Chair"><path
               style="display:inline;fill:#d29c52;fill-opacity:1;stroke:#936237;stroke-width:1.12861;stroke-linecap:round;stroke-linejoin:round;stroke-dasharray:none;stroke-opacity:1"
               d="m 219.24095,70.124955 h -3.7434 l -0.42782,-13.398006 -2.99472,-34.425431 3.95731,-0.372167 3.7434,33.215888 z"
               id="path221"
               inkscape:label="LegBR"
               transform="translate(8.2955394e-6)" /><path
               style="display:inline;fill:#d29c52;fill-opacity:1;stroke:#936237;stroke-width:1.12861;stroke-linecap:round;stroke-linejoin:round;stroke-dasharray:none;stroke-opacity:1"
               d="m 197.42227,70.031911 0.32086,-13.491046 -5.24077,-33.495013 -4.81294,-0.558251 4.70599,35.821057 0.74868,12.188463 z"
               id="path222"
               inkscape:label="LegBL"
               transform="translate(8.2955394e-6)" /><path
               style="display:inline;fill:#800000;fill-opacity:1;stroke:#550000;stroke-width:1.12861;stroke-linecap:round;stroke-linejoin:round;stroke-dasharray:none;stroke-opacity:1"
               d="m 215.28364,56.261739 -16.79183,0.837376 -6.95203,-31.262013 20.96305,-1.860833 z"
               id="path223"
               inkscape:label="Back"
               transform="translate(8.2955394e-6)" /><path
               style="display:inline;fill:#800000;fill-opacity:1;stroke:#550000;stroke-width:1.12861;stroke-linecap:round;stroke-linejoin:round;stroke-dasharray:none;stroke-opacity:1"
               d="m 236.78146,58.959949 -28.02204,0.558252 -14.01102,-0.279126 -0.74867,-3.907752 13.69015,-2.233001 29.62635,0.837376 z"
               id="path224"
               transform="translate(8.2955394e-6)"
               sodipodi:nodetypes="ccccccc"
               inkscape:label="Seat" /><path
               style="fill:#d29c52;fill-opacity:1;stroke:#936237;stroke-width:1.12861;stroke-linecap:round;stroke-linejoin:round;stroke-dasharray:none;stroke-opacity:1"
               d="m 212.48577,69.57971 -2.04196,-14.934425 -3.93266,0.06579 1.05879,14.934425 z"
               id="path225"
               inkscape:label="LegFL" /><path
               style="fill:#d29c52;fill-opacity:1;stroke:#936237;stroke-width:1.12861;stroke-linecap:round;stroke-linejoin:round;stroke-dasharray:none;stroke-opacity:1"
               d="m 237.14054,55.237398 -5.06708,0.06579 -2.34447,14.342311 3.85703,-0.06579 3.32764,-9.210659 z"
               id="path226"
               inkscape:label="LegFR" /></g></g><path
           style="fill:#d29c52;fill-opacity:1;stroke:#936237;stroke-width:2.11667;stroke-dasharray:none;stroke-opacity:1"
           d="m 164.04166,130.40178 -7.55952,-58.208329 c 0,0 18.14286,-8.315476 32.88393,-1.511904 14.74107,6.80357 17.76487,7.559522 17.76487,7.559522 0,0 -0.56695,25.702381 11.90626,27.970241 12.47322,2.26786 64.06696,-9.449404 64.06696,-9.449404 l -12.09523,33.072914 c 0,0 -65.47705,5.02513 -76.72808,4.5524 -11.25103,-0.47273 -30.23919,-3.98544 -30.23919,-3.98544 z"
           id="path227"
           sodipodi:nodetypes="ccscscczc"
           inkscape:label="Main" /></g><g
         id="g231"
         inkscape:label="Wheel"
         style="display:inline"
         transform="translate(-41.804168,-28.575001)"><circle
           style="opacity:0.401;fill:#000000;fill-opacity:1;stroke:#000000;stroke-width:5.29167;stroke-dasharray:none;stroke-opacity:1"
           id="circle228"
           cx="243.6895"
           cy="127.00001"
           r="24.946428" /><ellipse
           style="fill:#936237;fill-opacity:1;stroke:#936237;stroke-width:1.63068;stroke-dasharray:none;stroke-opacity:1"
           id="ellipse228"
           cx="245.49554"
           cy="127.28349"
           rx="5.5724564"
           ry="5.4779625" /><path
           style="fill:#d29c52;fill-opacity:1;stroke:#936237;stroke-width:1.05833;stroke-dasharray:none;stroke-opacity:1"
           d="m 259.85863,146.0878 -32.31697,-35.34078 3.59078,-3.77976 33.07291,38.36458 z"
           id="path228" /><path
           style="fill:#d29c52;fill-opacity:1;stroke:#936237;stroke-width:1.05833;stroke-dasharray:none;stroke-opacity:1"
           d="m 221.68303,133.04762 48.19197,-13.79613 0.94493,6.42559 -48.19196,11.33929 z"
           id="path229" /><path
           style="fill:#d29c52;fill-opacity:1;stroke:#936237;stroke-width:1.05833;stroke-dasharray:none;stroke-opacity:1"
           d="m 239.6369,150.8125 4.91369,1.13393 10.20536,-49.13691 -4.53571,-0.56696 z"
           id="path230" /><circle
           style="fill:none;fill-opacity:1;stroke:#936237;stroke-width:5.29167;stroke-dasharray:none;stroke-opacity:1"
           id="circle230"
           cx="243.41667"
           cy="126.24406"
           r="24.946428" /><circle
           style="fill:none;fill-opacity:1;stroke:#d29c52;stroke-width:5.29167;stroke-dasharray:none;stroke-opacity:1"
           id="circle231"
           cx="246.62947"
           cy="127.00001"
           r="24.946428" /><ellipse
           style="fill:#d29c52;fill-opacity:1;stroke:#936237;stroke-width:1.60511;stroke-dasharray:none;stroke-opacity:1"
           id="ellipse231"
           cx="247.19643"
           cy="128.03943"
           rx="5.2072649"
           ry="5.6797347" /></g><path
         style="display:inline;fill:#d29c52;fill-opacity:1;stroke:#936237;stroke-width:1.05833;stroke-dasharray:none;stroke-opacity:1"
         d="m 65.346512,75.154899 -1.5119,-6.803565 c 0,0 39.693058,-10.747764 52.544248,-5.078121 12.85119,5.669642 8.50447,11.717256 23.62352,12.662206 15.11904,0.94494 32.88392,-1.32292 32.88392,-1.32292 l 1.32292,5.48065 c 0,0 -37.98661,3.59078 -47.05803,0.18899 -9.07143,-3.40178 -4.72471,-10.961308 -15.68602,-13.607141 -10.96131,-2.645833 -46.118658,8.479901 -46.118658,8.479901 z"
         id="path231"
         sodipodi:nodetypes="ccssccssc"
         inkscape:label="Connector" /></g></g></svg>
