<?xml version="1.0" encoding="UTF-8" standalone="no"?>
<!-- Created with Inkscape (http://www.inkscape.org/) -->

<svg
   width="472.12982"
   height="260.43985"
   viewBox="0 0 124.91768 68.908044"
   version="1.1"
   id="svg1"
   inkscape:version="1.4 (86a8ad7, 2024-10-11)"
   sodipodi:docname="GMTK2025.svg"
   xml:space="preserve"
   inkscape:export-filename="Minigames\Cart\MG_Cart_BG.svg"
   inkscape:export-xdpi="96"
   inkscape:export-ydpi="96"
   xmlns:inkscape="http://www.inkscape.org/namespaces/inkscape"
   xmlns:sodipodi="http://sodipodi.sourceforge.net/DTD/sodipodi-0.dtd"
   xmlns="http://www.w3.org/2000/svg"
   xmlns:svg="http://www.w3.org/2000/svg"><sodipodi:namedview
     id="namedview1"
     pagecolor="#ffffff"
     bordercolor="#000000"
     borderopacity="0.25"
     inkscape:showpageshadow="2"
     inkscape:pageopacity="0.0"
     inkscape:pagecheckerboard="true"
     inkscape:deskcolor="#d1d1d1"
     inkscape:document-units="px"
     inkscape:zoom="1.4142135"
     inkscape:cx="447.24506"
     inkscape:cy="215.31402"
     inkscape:window-width="1920"
     inkscape:window-height="1001"
     inkscape:window-x="-9"
     inkscape:window-y="-9"
     inkscape:window-maximized="1"
     inkscape:current-layer="g232"><inkscape:page
       x="0"
       y="0"
       width="124.91768"
       height="68.908043"
       id="page2"
       margin="0"
       bleed="0" /></sodipodi:namedview><defs
     id="defs1"><clipPath
       clipPathUnits="userSpaceOnUse"
       id="clipPath20"><rect
         style="display:inline;fill:#cede68;fill-opacity:1;stroke:#cede68;stroke-width:1.05833;stroke-linecap:square;stroke-linejoin:miter;stroke-dasharray:none;stroke-opacity:1"
         id="rect21"
         width="219.64212"
         height="123.8527"
         x="38.914444"
         y="19.8314"
         inkscape:label="BG"
         inkscape:export-filename="Minigames\Horseshoe\MG_Hshoe_BG.svg"
         inkscape:export-xdpi="96"
         inkscape:export-ydpi="96" /></clipPath></defs><g
     id="layer5"
     inkscape:label="Mini-games"
     clip-path="url(#clipPath20)"
     transform="translate(-111.92911,-40.310218)"><g
       inkscape:groupmode="layer"
       id="layer8"
       inkscape:label="Washing"><g
         id="g232"
         inkscape:label="Dirt"><path
           style="fill:#6c5353;fill-opacity:1;stroke:#483737;stroke-width:0.76351;stroke-linecap:round;stroke-linejoin:miter;stroke-dasharray:none;stroke-opacity:1"
           d="m 128.25998,59.412595 c 0.79561,2.335509 -1.98903,3.434573 -1.06081,4.808403 0.92821,1.37383 3.44764,-3.434574 4.11065,-3.434574 0.66301,0 -1.32602,3.297191 1.19341,2.885042 2.51944,-0.412149 0.53041,-2.198127 0.53041,-3.434574 0,-1.236446 4.37586,-0.137383 3.71285,-2.610275 -0.66301,-2.472893 -3.58024,1.236446 -3.97805,-0.137384 -0.3978,-1.373828 0.5304,-5.220552 -1.59122,-5.6327 -2.12163,-0.412149 0.79561,5.357935 -0.66301,5.357935 -1.45862,0 -3.71285,-5.907466 -4.64106,-3.984106 -0.92821,1.923362 1.59122,3.159808 1.59122,3.846723 0,0.686915 -4.64106,-2.198128 -4.50846,1.236445 0.1326,3.434574 4.64106,-0.274765 5.30407,1.099065 z"
           id="path232" /><path
           style="fill:#6c5353;fill-opacity:1;stroke:#483737;stroke-width:0.76351;stroke-linecap:round;stroke-linejoin:miter;stroke-dasharray:none;stroke-opacity:1"
           d="m 151.83315,59.412595 c 0.79561,2.335509 -1.98903,3.434573 -1.06081,4.808403 0.92821,1.37383 3.44764,-3.434574 4.11065,-3.434574 0.66301,0 -1.32602,3.297191 1.19341,2.885042 2.51944,-0.412149 0.53041,-2.198127 0.53041,-3.434574 0,-1.236446 4.37586,-0.137383 3.71285,-2.610275 -0.66301,-2.472893 -3.58024,1.236446 -3.97805,-0.137384 -0.3978,-1.373828 0.5304,-5.220552 -1.59122,-5.6327 -2.12163,-0.412149 0.79561,5.357935 -0.66301,5.357935 -1.45862,0 -3.71285,-5.907466 -4.64106,-3.984106 -0.92821,1.923362 1.59122,3.159808 1.59122,3.846723 0,0.686915 -4.64106,-2.198128 -4.50846,1.236445 0.1326,3.434574 4.64106,-0.274765 5.30407,1.099065 z"
           id="path233" /><path
           style="fill:#6c5353;fill-opacity:1;stroke:#483737;stroke-width:0.76351;stroke-linecap:round;stroke-linejoin:miter;stroke-dasharray:none;stroke-opacity:1"
           d="m 128.00285,92.677961 c 2.18789,-1.140487 3.69642,1.445344 4.91365,0.319574 1.21723,-1.125759 -3.91756,-2.887094 -4.01807,-3.54244 -0.10052,-0.655347 3.46011,0.810825 2.67077,-1.617 -0.78934,-2.427835 -2.25313,-0.191034 -3.47529,-0.0036 -1.22215,0.187451 -0.79919,-4.304453 -3.14299,-3.274205 -2.34379,1.030247 1.76494,3.351406 0.4673,3.952896 -1.29764,0.60148 -5.24062,0.267189 -5.32636,2.426769 -0.0857,2.15959 5.17539,-1.598699 5.39652,-0.156939 0.22113,1.44176 -5.2763,4.565531 -3.23445,5.191422 2.04185,0.625892 2.88205,-2.051867 3.56102,-2.156006 0.67898,-0.10414 -1.46912,4.92066 1.90566,4.268897 3.37477,-0.651763 -0.9752,-4.545759 0.28224,-5.409384 z"
           id="path234" /><path
           style="fill:#6c5353;fill-opacity:1;stroke:#483737;stroke-width:0.76351;stroke-linecap:round;stroke-linejoin:miter;stroke-dasharray:none;stroke-opacity:1"
           d="m 176.37524,102.01265 c -1.59884,1.87917 -3.96864,0.0499 -4.67351,1.55062 -0.70488,1.50071 4.71543,1.20303 5.05488,1.77255 0.33945,0.56952 -3.51117,0.54908 -1.86722,2.50224 1.64396,1.95316 2.15974,-0.66979 3.22184,-1.30284 1.0621,-0.63305 2.35839,3.68849 4.14314,1.85288 1.78474,-1.83561 -2.89514,-2.44235 -1.9187,-3.48745 0.97644,-1.04509 4.75597,-2.21725 4.02376,-4.25072 -0.73221,-2.033475 -4.19509,3.42662 -4.94188,2.17368 -0.7468,-1.25295 3.17354,-6.213865 1.04615,-6.026455 -2.12738,0.18741 -1.89957,2.98463 -2.48962,3.336315 -0.59006,0.3517 -0.48798,-5.112045 -3.37037,-3.239685 -2.88238,1.87236 2.61219,3.845955 1.77153,5.118865 z"
           id="path235" /><path
           style="fill:#6c5353;fill-opacity:1;stroke:#483737;stroke-width:0.76351;stroke-linecap:round;stroke-linejoin:miter;stroke-dasharray:none;stroke-opacity:1"
           d="m 206.11257,79.214411 c -1.85374,1.628269 -3.93416,-0.524413 -4.8486,0.858626 -0.91444,1.38303 4.49195,1.872156 4.74549,2.484771 0.25355,0.612615 -3.55366,0.03566 -2.20937,2.205981 1.34429,2.170327 2.23388,-0.350499 3.37635,-0.823335 1.14247,-0.472837 1.80033,3.990718 3.83172,2.432431 2.03138,-1.558284 -2.5116,-2.835273 -1.39433,-3.728219 1.11729,-0.892936 5.02658,-1.506328 4.59606,-3.624298 -0.43052,-2.117979 -4.64643,2.78409 -5.20423,1.436338 -0.5578,-1.347751 4.0386,-5.689741 1.90647,-5.811878 -2.13212,-0.122137 -2.31113,2.67863 -2.94583,2.941314 -0.6347,0.262688 0.25625,-5.128894 -2.86656,-3.69294 -3.12281,1.43595 2.02869,4.183221 1.01283,5.321209 z"
           id="path236" /><path
           style="fill:#6c5353;fill-opacity:1;stroke:#483737;stroke-width:0.76351;stroke-linecap:round;stroke-linejoin:miter;stroke-dasharray:none;stroke-opacity:1"
           d="m 159.75806,92.092046 c 1.29747,-2.09861 3.91582,-0.647252 4.38655,-2.237037 0.47073,-1.589778 -4.84286,-0.478869 -5.26424,-0.990747 -0.42139,-0.511877 3.38836,-1.07181 1.46891,-2.754991 -1.91946,-1.68319 -2.03417,0.987535 -2.98877,1.773374 -0.9546,0.785839 -2.88719,-3.291073 -4.37501,-1.207517 -1.48781,2.083549 3.23006,1.978288 2.42223,3.15857 -0.80784,1.180274 -4.36763,2.908481 -3.33742,4.808426 1.03023,1.899953 3.63095,-4.019548 4.55799,-2.893419 0.92704,1.126129 -2.20113,6.621065 -0.12626,6.115278 2.07487,-0.505787 1.42822,-3.236754 1.95855,-3.673327 0.53033,-0.436579 1.2526,4.98018 3.82,2.694921 2.56739,-2.285252 -3.16181,-3.408501 -2.52253,-4.793531 z"
           id="path237" /><path
           style="fill:#6c5353;fill-opacity:1;stroke:#483737;stroke-width:0.797444;stroke-linecap:round;stroke-linejoin:miter;stroke-dasharray:none;stroke-opacity:1"
           d="m 140.83548,43.255658 c 1.08864,2.365137 2.72372,2.058903 2.04722,3.297677 -0.67649,1.238792 -1.58951,3.615717 -2.69484,3.473313 -1.10533,-0.142414 -2.47011,0.333484 -3.13425,-0.965652 -0.66414,-1.299136 0.10769,-3.62684 -1.23294,-3.687193 -1.34063,-0.06035 -1.34592,-1.589232 0.55851,-2.939496 1.90442,-1.350254 3.61164,-0.995465 3.55902,-0.23814 -0.0526,0.757314 0.89728,1.059491 0.89728,1.059491 z"
           id="path238"
           sodipodi:nodetypes="cssssssc" /><path
           style="fill:#6c5353;fill-opacity:1;stroke:#483737;stroke-width:0.797444;stroke-linecap:round;stroke-linejoin:miter;stroke-dasharray:none;stroke-opacity:1"
           d="m 143.57976,71.521349 c 0.78203,2.483432 2.44265,2.385606 1.6155,3.529294 -0.82715,1.143708 -2.03232,3.386686 -3.1109,3.106179 -1.07859,-0.280517 -2.49244,0.01967 -2.98764,-1.352779 -0.49521,-1.372448 0.5637,-3.584382 -0.75865,-3.813133 -1.32235,-0.228751 -1.135,-1.746117 0.92434,-2.845726 2.05935,-1.099599 3.70828,-0.532579 3.56068,0.212084 -0.14761,0.744652 0.75667,1.164081 0.75667,1.164081 z"
           id="path239"
           sodipodi:nodetypes="cssssssc" /><path
           style="fill:#6c5353;fill-opacity:1;stroke:#483737;stroke-width:0.797444;stroke-linecap:round;stroke-linejoin:miter;stroke-dasharray:none;stroke-opacity:1"
           d="m 143.08573,94.192083 c 1.49413,2.132272 3.04806,1.538512 2.60405,2.878312 -0.444,1.33982 -0.91714,3.841715 -2.03012,3.899315 -1.11298,0.0576 -2.37062,0.76993 -3.25643,-0.38946 -0.8858,-1.159385 -0.54276,-3.587615 -1.87261,-3.407175 -1.32981,0.18042 -1.60848,-1.32286 0.0237,-2.991989 1.6322,-1.669121 3.37535,-1.625418 3.45904,-0.870895 0.0837,0.754515 1.07231,0.881912 1.07231,0.881912 z"
           id="path240"
           sodipodi:nodetypes="cssssssc" /><path
           style="fill:#6c5353;fill-opacity:1;stroke:#483737;stroke-width:0.797444;stroke-linecap:round;stroke-linejoin:miter;stroke-dasharray:none;stroke-opacity:1"
           d="m 114.79568,41.901103 c 2.5917,-0.249202 2.8409,-1.893934 3.78786,-0.847286 0.94698,1.046648 2.89075,2.691377 2.39235,3.688187 -0.49841,0.99681 -0.49841,2.44218 -1.94378,2.64154 -1.44537,0.19936 -3.38915,-1.29585 -3.88755,-0.0498 -0.4984,1.24601 -1.94377,0.74761 -2.5917,-1.49521 -0.64792,-2.24282 0.2492,-3.738029 0.94697,-3.438987 0.69776,0.299042 1.29585,-0.498404 1.29585,-0.498404 z"
           id="path241"
           sodipodi:nodetypes="cssssssc" /><path
           style="fill:#6c5353;fill-opacity:1;stroke:#483737;stroke-width:0.797444;stroke-linecap:round;stroke-linejoin:miter;stroke-dasharray:none;stroke-opacity:1"
           d="m 170.92228,77.447951 c 2.5917,-0.249202 2.8409,-1.893934 3.78786,-0.847286 0.94698,1.046648 2.89075,2.691377 2.39235,3.688187 -0.49841,0.99681 -0.49841,2.44218 -1.94378,2.64154 -1.44537,0.19936 -3.38915,-1.29585 -3.88755,-0.0498 -0.4984,1.24601 -1.94377,0.74761 -2.5917,-1.49521 -0.64792,-2.24282 0.2492,-3.738029 0.94697,-3.438987 0.69776,0.299042 1.29585,-0.498404 1.29585,-0.498404 z"
           id="path242"
           sodipodi:nodetypes="cssssssc" /><path
           style="fill:#6c5353;fill-opacity:1;stroke:#483737;stroke-width:0.797444;stroke-linecap:round;stroke-linejoin:miter;stroke-dasharray:none;stroke-opacity:1"
           d="m 190.63374,92.661493 c 2.5917,-0.249202 2.8409,-1.893934 3.78786,-0.847286 0.94698,1.046648 2.89075,2.691377 2.39235,3.688187 -0.49841,0.99681 -0.49841,2.44218 -1.94378,2.64154 -1.44537,0.19936 -3.38915,-1.29585 -3.88755,-0.0498 -0.4984,1.24601 -1.94377,0.74761 -2.5917,-1.49521 -0.64792,-2.24282 0.2492,-3.738029 0.94697,-3.438987 0.69776,0.299042 1.29585,-0.498404 1.29585,-0.498404 z"
           id="path243"
           sodipodi:nodetypes="cssssssc" /><path
           style="fill:#6c5353;fill-opacity:1;stroke:#483737;stroke-width:0.797444;stroke-linecap:round;stroke-linejoin:miter;stroke-dasharray:none;stroke-opacity:1"
           d="m 216.16604,102.71566 c 2.5917,-0.2492 2.8409,-1.89393 3.78786,-0.84729 0.94698,1.04665 2.89075,2.69138 2.39235,3.68819 -0.49841,0.99681 -0.49841,2.44218 -1.94378,2.64154 -1.44537,0.19936 -3.38915,-1.29585 -3.88755,-0.0498 -0.4984,1.24601 -1.94377,0.74761 -2.5917,-1.49521 -0.64792,-2.24282 0.2492,-3.73803 0.94697,-3.43899 0.69776,0.29905 1.29585,-0.4984 1.29585,-0.4984 z"
           id="path244"
           sodipodi:nodetypes="cssssssc" /><path
           style="fill:#6c5353;fill-opacity:1;stroke:#483737;stroke-width:0.797444;stroke-linecap:round;stroke-linejoin:miter;stroke-dasharray:none;stroke-opacity:1"
           d="m 230.18895,71.494825 c 2.5917,-0.249202 2.8409,-1.893934 3.78786,-0.847286 0.94698,1.046648 2.89075,2.691377 2.39235,3.688187 -0.49841,0.99681 -0.49841,2.44218 -1.94378,2.64154 -1.44537,0.19936 -3.38915,-1.29585 -3.88755,-0.0498 -0.4984,1.24601 -1.94377,0.74761 -2.5917,-1.49521 -0.64792,-2.24282 0.2492,-3.738029 0.94697,-3.438987 0.69776,0.299042 1.29585,-0.498404 1.29585,-0.498404 z"
           id="path245"
           sodipodi:nodetypes="cssssssc" /><path
           style="fill:#6c5353;fill-opacity:1;stroke:#483737;stroke-width:0.797444;stroke-linecap:round;stroke-linejoin:miter;stroke-dasharray:none;stroke-opacity:1"
           d="m 228.49579,85.101391 c 1.51367,2.118448 3.06208,1.510432 2.6304,2.854256 -0.43166,1.343841 -0.88179,3.849986 -1.99419,3.917815 -1.1124,0.06782 -2.36344,0.791687 -3.25987,-0.359514 -0.89642,-1.1512 -0.57572,-3.582472 -1.90385,-3.38982 -1.32809,0.192633 -1.62057,-1.308019 -0.004,-2.99208 1.61678,-1.684054 3.36026,-1.656376 3.45088,-0.902654 0.0906,0.753713 1.08038,0.872017 1.08038,0.872017 z"
           id="path246"
           sodipodi:nodetypes="cssssssc" /></g></g></g></svg>
