<?xml version="1.0" encoding="UTF-8" standalone="no"?>
<!-- Created with Inkscape (http://www.inkscape.org/) -->

<svg
   width="830"
   height="468"
   viewBox="0 0 219.60416 123.825"
   version="1.1"
   id="svg1"
   inkscape:version="1.4 (86a8ad7, 2024-10-11)"
   sodipodi:docname="GMTK2025.svg"
   xml:space="preserve"
   inkscape:export-filename="Minigames\Wheel\MG_Wheel_BG.png"
   inkscape:export-xdpi="96"
   inkscape:export-ydpi="96"
   xmlns:inkscape="http://www.inkscape.org/namespaces/inkscape"
   xmlns:sodipodi="http://sodipodi.sourceforge.net/DTD/sodipodi-0.dtd"
   xmlns="http://www.w3.org/2000/svg"
   xmlns:svg="http://www.w3.org/2000/svg"><sodipodi:namedview
     id="namedview1"
     pagecolor="#ffffff"
     bordercolor="#000000"
     borderopacity="0.25"
     inkscape:showpageshadow="2"
     inkscape:pageopacity="0.0"
     inkscape:pagecheckerboard="true"
     inkscape:deskcolor="#d1d1d1"
     inkscape:document-units="px"
     inkscape:zoom="1.4142135"
     inkscape:cx="447.24506"
     inkscape:cy="215.31402"
     inkscape:window-width="1920"
     inkscape:window-height="1001"
     inkscape:window-x="-9"
     inkscape:window-y="-9"
     inkscape:window-maximized="1"
     inkscape:current-layer="g232"><inkscape:page
       x="0"
       y="0"
       width="219.60416"
       height="123.825"
       id="page2"
       margin="0"
       bleed="0" /></sodipodi:namedview><defs
     id="defs1"><clipPath
       clipPathUnits="userSpaceOnUse"
       id="clipPath20"><rect
         style="display:inline;fill:#cede68;fill-opacity:1;stroke:#cede68;stroke-width:1.05833;stroke-linecap:square;stroke-linejoin:miter;stroke-dasharray:none;stroke-opacity:1"
         id="rect21"
         width="219.64212"
         height="123.8527"
         x="38.914444"
         y="19.8314"
         inkscape:label="BG"
         inkscape:export-filename="Minigames\Horseshoe\MG_Hshoe_BG.svg"
         inkscape:export-xdpi="96"
         inkscape:export-ydpi="96" /></clipPath></defs><g
     id="layer5"
     inkscape:label="Mini-games"
     clip-path="url(#clipPath20)"
     transform="translate(-38.89375,-19.84375)"><g
       inkscape:groupmode="layer"
       id="layer9"
       inkscape:label="WheelChange"><g
         id="g276"
         inkscape:label="BG"
         style="display:inline"><rect
           style="display:inline;fill:#53a2c7;fill-opacity:1;stroke:#53a2c7;stroke-width:1.05833;stroke-linecap:square;stroke-linejoin:miter;stroke-dasharray:none;stroke-opacity:1"
           id="rect274"
           width="219.64211"
           height="123.8527"
           x="38.914444"
           y="19.8314"
           inkscape:label="Sky"
           inkscape:export-filename="Minigames\Horseshoe\MG_Hshoe_BG.svg"
           inkscape:export-xdpi="96"
           inkscape:export-ydpi="96" /><rect
           style="display:inline;fill:#80ac40;fill-opacity:1;stroke:#80ac40;stroke-width:1.05518;stroke-linecap:square;stroke-linejoin:miter;stroke-dasharray:none;stroke-opacity:1"
           id="rect275"
           width="219.64526"
           height="123.11473"
           x="38.912872"
           y="20.570951"
           inkscape:label="Grass"
           inkscape:export-filename="Minigames\Horseshoe\MG_Hshoe_BG.svg"
           inkscape:export-xdpi="96"
           inkscape:export-ydpi="96" /><rect
           style="display:inline;fill:#cede68;fill-opacity:1;stroke:#cede68;stroke-width:0.861971;stroke-linecap:square;stroke-linejoin:miter;stroke-dasharray:none;stroke-opacity:1"
           id="rect276"
           width="219.83847"
           height="82.084236"
           x="38.816265"
           y="61.698051"
           inkscape:label="Grass"
           inkscape:export-filename="Minigames\Horseshoe\MG_Hshoe_BG.svg"
           inkscape:export-xdpi="96"
           inkscape:export-ydpi="96" /></g><g
         id="g290"
         inkscape:label="Cart"
         style="display:inline"
         transform="matrix(1.9784721,0,0,1.9784721,-307.69735,-170.48478)"><circle
           style="fill:none;fill-opacity:1;stroke:#502d16;stroke-width:5.01984;stroke-dasharray:none;stroke-opacity:1"
           id="circle276"
           cx="222.77333"
           cy="122.10902"
           r="23.664934"
           inkscape:label="WheelR" /><path
           style="fill:#784421;fill-opacity:1;stroke:#784421;stroke-width:2.64583;stroke-opacity:1"
           d="m 179.61543,101.09326 c 12.47322,2.26786 64.06696,-9.449404 64.06696,-9.449404 l -12.09523,33.072914 c 0,0 -36.75086,5.40311 -48.00189,4.93038 -11.25103,-0.47273 -16.44305,-30.821749 -3.96984,-28.55389 z"
           id="path276"
           sodipodi:nodetypes="scczs"
           inkscape:label="Back" /><g
           id="g289"
           inkscape:label="BookStack"
           transform="matrix(-0.87461931,0,0,1.0054022,404.19155,1.151177)"><g
             id="g278"
             inkscape:label="Book"
             style="display:inline;fill:#aa0000;stroke:#800000"
             transform="matrix(0.90919566,0.1587671,-0.13413041,0.76811123,62.503422,-55.751935)"><path
               style="fill:#aa87de;fill-opacity:1;stroke:#aa87de;stroke-width:1.24755;stroke-linecap:round;stroke-linejoin:round;stroke-dasharray:none;stroke-opacity:1"
               d="m 207.64177,165.86752 c -33.55591,7.28041 -32.47564,6.71266 -32.47564,6.71266 0,0 -4.48252,-0.79577 -5.37015,-6.81257 -0.88764,-6.01681 3.48277,-7.95354 3.48277,-7.95354 l 34.91859,-7.90652 -8.33284,8.61157 z"
               id="path277"
               inkscape:label="Cover" /><path
               style="fill:#fff6d5;fill-opacity:1;stroke:#ffeeaa;stroke-width:1.24755;stroke-linecap:round;stroke-linejoin:round;stroke-dasharray:none;stroke-opacity:1"
               d="m 171.55761,165.36201 c 0.54505,2.99639 3.62613,5.40062 3.62613,5.40062 l 32.09299,-6.32909 0.10121,-12.56477 -34.03277,7.82611 c 0,0 -2.33261,2.67074 -1.78756,5.66713 z"
               id="path278"
               sodipodi:nodetypes="zccccz"
               inkscape:label="Pages" /></g><g
             id="g280"
             inkscape:label="Book"
             style="display:inline;fill:#aa0000;stroke:#800000"
             transform="matrix(-1.0020794,0.15815634,0.14783322,0.76515638,374.6244,-67.625773)"><path
               style="fill:#87aade;fill-opacity:1;stroke:#87aade;stroke-width:1.24755;stroke-linecap:round;stroke-linejoin:round;stroke-dasharray:none;stroke-opacity:1"
               d="m 207.64177,165.86752 c -33.55591,7.28041 -32.47564,6.71266 -32.47564,6.71266 0,0 -4.48252,-0.79577 -5.37015,-6.81257 -0.88764,-6.01681 3.48277,-7.95354 3.48277,-7.95354 l 34.91859,-7.90652 -8.33284,8.61157 z"
               id="path279"
               inkscape:label="Cover" /><path
               style="fill:#fff6d5;fill-opacity:1;stroke:#ffeeaa;stroke-width:1.24755;stroke-linecap:round;stroke-linejoin:round;stroke-dasharray:none;stroke-opacity:1"
               d="m 171.55761,165.36201 c 0.54505,2.99639 3.62613,5.40062 3.62613,5.40062 l 32.09299,-6.32909 0.10121,-12.56477 -34.03277,7.82611 c 0,0 -2.33261,2.67074 -1.78756,5.66713 z"
               id="path280"
               sodipodi:nodetypes="zccccz"
               inkscape:label="Pages" /></g><g
             id="g282"
             inkscape:label="Book"
             style="display:inline;fill:#aa0000;stroke:#800000"
             transform="matrix(1.0921534,0.11582499,-0.16112153,0.56035834,32.42641,-37.956853)"><path
               style="fill:#ff8080;fill-opacity:1;stroke:#ff8080;stroke-width:1.24755;stroke-linecap:round;stroke-linejoin:round;stroke-dasharray:none;stroke-opacity:1"
               d="m 207.64177,165.86752 c -33.55591,7.28041 -32.47564,6.71266 -32.47564,6.71266 0,0 -4.48252,-0.79577 -5.37015,-6.81257 -0.88764,-6.01681 3.48277,-7.95354 3.48277,-7.95354 l 34.91859,-7.90652 -8.33284,8.61157 z"
               id="path281"
               inkscape:label="Cover" /><path
               style="fill:#fff6d5;fill-opacity:1;stroke:#ffeeaa;stroke-width:1.24755;stroke-linecap:round;stroke-linejoin:round;stroke-dasharray:none;stroke-opacity:1"
               d="m 171.55761,165.36201 c 0.54505,2.99639 3.62613,5.40062 3.62613,5.40062 l 32.09299,-6.32909 0.10121,-12.56477 -34.03277,7.82611 c 0,0 -2.33261,2.67074 -1.78756,5.66713 z"
               id="path282"
               sodipodi:nodetypes="zccccz"
               inkscape:label="Pages" /></g><g
             id="g288"
             inkscape:label="Chair"><path
               style="display:inline;fill:#d29c52;fill-opacity:1;stroke:#936237;stroke-width:1.12861;stroke-linecap:round;stroke-linejoin:round;stroke-dasharray:none;stroke-opacity:1"
               d="m 219.24095,70.124955 h -3.7434 l -0.42782,-13.398006 -2.99472,-34.425431 3.95731,-0.372167 3.7434,33.215888 z"
               id="path283"
               inkscape:label="LegBR"
               transform="translate(8.2955394e-6)" /><path
               style="display:inline;fill:#d29c52;fill-opacity:1;stroke:#936237;stroke-width:1.12861;stroke-linecap:round;stroke-linejoin:round;stroke-dasharray:none;stroke-opacity:1"
               d="m 197.42227,70.031911 0.32086,-13.491046 -5.24077,-33.495013 -4.81294,-0.558251 4.70599,35.821057 0.74868,12.188463 z"
               id="path284"
               inkscape:label="LegBL"
               transform="translate(8.2955394e-6)" /><path
               style="display:inline;fill:#800000;fill-opacity:1;stroke:#550000;stroke-width:1.12861;stroke-linecap:round;stroke-linejoin:round;stroke-dasharray:none;stroke-opacity:1"
               d="m 215.28364,56.261739 -16.79183,0.837376 -6.95203,-31.262013 20.96305,-1.860833 z"
               id="path285"
               inkscape:label="Back"
               transform="translate(8.2955394e-6)" /><path
               style="display:inline;fill:#800000;fill-opacity:1;stroke:#550000;stroke-width:1.12861;stroke-linecap:round;stroke-linejoin:round;stroke-dasharray:none;stroke-opacity:1"
               d="m 236.78146,58.959949 -28.02204,0.558252 -14.01102,-0.279126 -0.74867,-3.907752 13.69015,-2.233001 29.62635,0.837376 z"
               id="path286"
               transform="translate(8.2955394e-6)"
               sodipodi:nodetypes="ccccccc"
               inkscape:label="Seat" /><path
               style="fill:#d29c52;fill-opacity:1;stroke:#936237;stroke-width:1.12861;stroke-linecap:round;stroke-linejoin:round;stroke-dasharray:none;stroke-opacity:1"
               d="m 212.48577,69.57971 -2.04196,-14.934425 -3.93266,0.06579 1.05879,14.934425 z"
               id="path287"
               inkscape:label="LegFL" /><path
               style="fill:#d29c52;fill-opacity:1;stroke:#936237;stroke-width:1.12861;stroke-linecap:round;stroke-linejoin:round;stroke-dasharray:none;stroke-opacity:1"
               d="m 237.14054,55.237398 -5.06708,0.06579 -2.34447,14.342311 3.85703,-0.06579 3.32764,-9.210659 z"
               id="path288"
               inkscape:label="LegFR" /></g></g><path
           style="fill:#d29c52;fill-opacity:1;stroke:#936237;stroke-width:2.11667;stroke-dasharray:none;stroke-opacity:1"
           d="m 164.04166,130.40178 -7.55952,-58.208329 c 0,0 18.14286,-8.315476 32.88393,-1.511904 14.74107,6.80357 17.76487,7.559522 17.76487,7.559522 0,0 -0.56695,25.702381 11.90626,27.970241 12.47322,2.26786 64.06696,-9.449404 64.06696,-9.449404 l -12.09523,33.072914 c 0,0 -65.47705,5.02513 -76.72808,4.5524 -11.25103,-0.47273 -30.23919,-3.98544 -30.23919,-3.98544 z"
           id="path289"
           sodipodi:nodetypes="ccscscczc"
           inkscape:label="Main" /><ellipse
           style="display:inline;fill:#936237;fill-opacity:1;stroke:#936237;stroke-width:1.65502;stroke-dasharray:none;stroke-opacity:1"
           id="ellipse298"
           cx="235.65984"
           cy="128.79593"
           rx="5.5605593"
           ry="5.6547799"
           transform="translate(-0.56737666,-0.18912592)" /></g></g></g></svg>
