<?xml version="1.0" encoding="UTF-8" standalone="no"?>
<!-- Created with Inkscape (http://www.inkscape.org/) -->

<svg
   width="126.03558"
   height="117.74088"
   viewBox="0 0 33.346912 31.152273"
   version="1.1"
   id="svg1"
   inkscape:version="1.4 (86a8ad7, 2024-10-11)"
   sodipodi:docname="GMTK2025.svg"
   xml:space="preserve"
   inkscape:export-filename="Minigames\Rider\MG_Rider_BG.svg"
   inkscape:export-xdpi="96"
   inkscape:export-ydpi="96"
   xmlns:inkscape="http://www.inkscape.org/namespaces/inkscape"
   xmlns:sodipodi="http://sodipodi.sourceforge.net/DTD/sodipodi-0.dtd"
   xmlns="http://www.w3.org/2000/svg"
   xmlns:svg="http://www.w3.org/2000/svg"><sodipodi:namedview
     id="namedview1"
     pagecolor="#ffffff"
     bordercolor="#000000"
     borderopacity="0.25"
     inkscape:showpageshadow="2"
     inkscape:pageopacity="0.0"
     inkscape:pagecheckerboard="true"
     inkscape:deskcolor="#d1d1d1"
     inkscape:document-units="px"
     inkscape:zoom="1.9999999"
     inkscape:cx="554.25002"
     inkscape:cy="283.25001"
     inkscape:window-width="1920"
     inkscape:window-height="1001"
     inkscape:window-x="-9"
     inkscape:window-y="-9"
     inkscape:window-maximized="1"
     inkscape:current-layer="g293"><inkscape:page
       x="0"
       y="0"
       width="33.346912"
       height="31.152273"
       id="page2"
       margin="0"
       bleed="0" /></sodipodi:namedview><defs
     id="defs1"><clipPath
       clipPathUnits="userSpaceOnUse"
       id="clipPath20"><rect
         style="display:inline;fill:#cede68;fill-opacity:1;stroke:#cede68;stroke-width:1.05833;stroke-linecap:square;stroke-linejoin:miter;stroke-dasharray:none;stroke-opacity:1"
         id="rect21"
         width="219.64212"
         height="123.8527"
         x="38.914444"
         y="19.8314"
         inkscape:label="BG"
         inkscape:export-filename="Minigames\Horseshoe\MG_Hshoe_BG.svg"
         inkscape:export-xdpi="96"
         inkscape:export-ydpi="96" /></clipPath></defs><g
     id="layer5"
     inkscape:label="Mini-games"
     clip-path="url(#clipPath20)"
     transform="translate(-60.534245,-102.18517)"><g
       inkscape:groupmode="layer"
       id="layer10"
       inkscape:label="Rider"
       style="display:inline"><g
         id="g303"
         inkscape:label="Mug"><path
           style="display:inline;fill:#d29c52;fill-opacity:1;stroke:#936237;stroke-width:1.05833;stroke-linecap:round;stroke-linejoin:miter;stroke-dasharray:none;stroke-opacity:1"
           d="m 62.341476,128.59415 c 0,0 -0.107875,-7.10556 0.647122,-12.19749 0.754998,-5.09194 1.569737,-9.63727 1.569737,-9.63727 l 19.05,-0.9922 c 0,0 1.190625,6.28385 2.182813,10.84792 0.843548,3.88032 0.661458,11.57552 0.661458,11.57552 z"
           id="path302"
           sodipodi:nodetypes="czccscc" /><path
           style="display:inline;fill:#d29c52;fill-opacity:1;stroke:#936237;stroke-width:1.05833;stroke-linecap:round;stroke-linejoin:miter;stroke-dasharray:none;stroke-opacity:1"
           d="m 66.697113,130.26049 c 0,0 0,-10.43019 0.09354,-11.69304 0.09355,-1.26285 1.637028,-11.36564 1.637028,-11.36564"
           id="path304" /><path
           style="display:inline;fill:#d29c52;fill-opacity:1;stroke:#936237;stroke-width:1.05833;stroke-linecap:round;stroke-linejoin:miter;stroke-dasharray:none;stroke-opacity:1"
           d="m 72.730722,129.79277 c 0,-0.56127 -0.42095,-10.05602 -0.42095,-11.97368 0,-1.91766 -0.327403,-11.64627 -0.327403,-11.64627"
           id="path305" /><path
           style="display:inline;fill:#d29c52;fill-opacity:1;stroke:#936237;stroke-width:1.05833;stroke-linecap:round;stroke-linejoin:miter;stroke-dasharray:none;stroke-opacity:1"
           d="M 79.465915,128.95087 76.799902,106.17282"
           id="path306" /><path
           style="display:inline;fill:#d29c52;fill-opacity:1;stroke:#936237;stroke-width:1.05833;stroke-linecap:round;stroke-linejoin:miter;stroke-dasharray:none;stroke-opacity:1"
           d="m 82.412561,128.81055 c 0,0 -0.654809,-9.0738 -0.748355,-10.71082 -0.09354,-1.63703 -1.964431,-12.72203 -1.964431,-12.72203"
           id="path307" /><path
           style="fill:#53676c;fill-opacity:1;stroke:#4d4d4d;stroke-width:1.05833;stroke-linecap:round;stroke-linejoin:miter;stroke-dasharray:none;stroke-opacity:1"
           d="m 61.100185,125.98041 c -0.132292,3.70417 0.132292,5.86761 0.132292,5.86761 0,0 5.513741,1.02714 10.642024,0.95677 5.362897,-0.0736 15.551488,-1.31352 15.551488,-1.31352 l -0.03072,-5.27755 c 0,0 -9.112695,1.29519 -15.428599,1.3636 -6.782691,0.0735 -10.866483,-1.59691 -10.866483,-1.59691 z"
           id="path301"
           sodipodi:nodetypes="ccsccsc" /><path
           style="fill:#d29c52;fill-opacity:1;stroke:#936237;stroke-width:1.05833;stroke-linecap:round;stroke-linejoin:miter;stroke-dasharray:none;stroke-opacity:1"
           d="m 84.666668,111.19115 8.665107,-0.7276 -0.396875,11.50937 -6.411447,1.70913 -0.140317,-3.91533 3.509056,-0.83651 0.46302,-5.39089 -4.994013,0.4961 z"
           id="path303"
           sodipodi:nodetypes="ccccccccc" /><path
           style="display:inline;fill:#53676c;fill-opacity:1;stroke:#4d4d4d;stroke-width:1.05833;stroke-linecap:round;stroke-linejoin:miter;stroke-dasharray:none;stroke-opacity:1"
           d="m 62.838544,104.97345 -0.03072,4.51591 c 0,0 5.991181,-1.84859 11.163403,-1.89748 6.607225,-0.0625 11.681555,1.5053 11.681555,1.5053 l -0.511169,-4.76308 c 0,0 -1.406255,-1.85069 -11.269438,-1.59551 -7.892856,0.2042 -11.033628,2.23486 -11.033628,2.23486 z"
           id="path300"
           sodipodi:nodetypes="ccsccscc" /></g></g></g></svg>
