<?xml version="1.0" encoding="UTF-8" standalone="no"?>
<!-- Created with Inkscape (http://www.inkscape.org/) -->

<svg
   width="151.56683"
   height="80.5"
   viewBox="0 0 40.102057 21.298958"
   version="1.1"
   id="svg1"
   inkscape:version="1.4 (86a8ad7, 2024-10-11)"
   sodipodi:docname="GMTK2025.svg"
   xml:space="preserve"
   inkscape:export-filename="Minigames\Rider\MG_Rider_BG.svg"
   inkscape:export-xdpi="96"
   inkscape:export-ydpi="96"
   xmlns:inkscape="http://www.inkscape.org/namespaces/inkscape"
   xmlns:sodipodi="http://sodipodi.sourceforge.net/DTD/sodipodi-0.dtd"
   xmlns="http://www.w3.org/2000/svg"
   xmlns:svg="http://www.w3.org/2000/svg"><sodipodi:namedview
     id="namedview1"
     pagecolor="#ffffff"
     bordercolor="#000000"
     borderopacity="0.25"
     inkscape:showpageshadow="2"
     inkscape:pageopacity="0.0"
     inkscape:pagecheckerboard="true"
     inkscape:deskcolor="#d1d1d1"
     inkscape:document-units="px"
     inkscape:zoom="1.9999999"
     inkscape:cx="554.25002"
     inkscape:cy="283.25001"
     inkscape:window-width="1920"
     inkscape:window-height="1001"
     inkscape:window-x="-9"
     inkscape:window-y="-9"
     inkscape:window-maximized="1"
     inkscape:current-layer="g293"><inkscape:page
       x="0"
       y="0"
       width="40.102058"
       height="21.298958"
       id="page2"
       margin="0"
       bleed="0" /></sodipodi:namedview><defs
     id="defs1"><clipPath
       clipPathUnits="userSpaceOnUse"
       id="clipPath20"><rect
         style="display:inline;fill:#cede68;fill-opacity:1;stroke:#cede68;stroke-width:1.05833;stroke-linecap:square;stroke-linejoin:miter;stroke-dasharray:none;stroke-opacity:1"
         id="rect21"
         width="219.64212"
         height="123.8527"
         x="38.914444"
         y="19.8314"
         inkscape:label="BG"
         inkscape:export-filename="Minigames\Horseshoe\MG_Hshoe_BG.svg"
         inkscape:export-xdpi="96"
         inkscape:export-ydpi="96" /></clipPath></defs><g
     id="layer5"
     inkscape:label="Mini-games"
     clip-path="url(#clipPath20)"
     transform="translate(-169.86249,-108.87605)"><g
       inkscape:groupmode="layer"
       id="layer10"
       inkscape:label="Rider"
       style="display:inline"><g
         id="g311"
         inkscape:label="Lolipop"
         inkscape:export-filename="Minigames\Rider\Minigames\Rider\Minigames\Rider\MG_Rider_Lolipop.svg"
         inkscape:export-xdpi="96"
         inkscape:export-ydpi="96"><rect
           style="display:inline;fill:#ffffff;fill-opacity:1;stroke:#f2f2f2;stroke-width:0.79375;stroke-linecap:round;stroke-linejoin:miter;stroke-dasharray:none;stroke-opacity:1"
           id="rect311"
           width="32.837963"
           height="2.4268794"
           x="202.37556"
           y="66.658493"
           transform="rotate(15.213803)" /><circle
           style="fill:#ccffaa;fill-opacity:1;stroke:#ffd5f6;stroke-width:0.79375;stroke-linecap:round;stroke-linejoin:miter;stroke-dasharray:none;stroke-opacity:1"
           id="path310"
           cx="180.64429"
           cy="119.52553"
           r="10.252604" /><path
           style="fill:#ccffaa;fill-opacity:1;stroke:#ffd5f6;stroke-width:0.79375;stroke-linecap:round;stroke-linejoin:miter;stroke-dasharray:none;stroke-opacity:1"
           d="m 170.25938,119.85625 c 0.92604,-2.57968 3.36751,-5.8085 5.02708,-6.61458 2.31511,-1.12448 5.59796,-2.39542 8.20209,-0.99219 2.55364,1.37603 4.16719,3.10886 4.69635,5.09323 0.44248,1.65927 -1.80133,6.96888 -3.96875,8.13594 -2.57969,1.38906 -5.4901,0.92604 -7.0776,-0.33073 -1.80921,-1.43229 -3.08796,-4.27012 -2.77812,-5.55625 0.95911,-3.98129 3.0427,-4.56406 5.29166,-4.63021 2.38022,-0.07 4.96094,1.05833 5.35781,2.18281 0.39688,1.12448 0.51051,2.94792 -0.59531,4.29948 -1.19062,1.45521 -2.4474,2.11667 -4.10104,1.78594 -1.65365,-0.33073 -2.38125,-1.52135 -2.71198,-2.77812 -0.33073,-1.25677 0.7276,-2.91042 2.91041,-3.10885 2.18281,-0.19844 2.51767,0.79264 2.71199,1.71978 0.21064,1.00502 -0.50531,1.35782 -1.98438,1.65365 -0.66146,0.13229 -1.07229,-0.74989 -0.79375,-1.4056"
           id="path311"
           sodipodi:nodetypes="cssssssssssssssc" /></g></g></g></svg>
