<?xml version="1.0" encoding="UTF-8" standalone="no"?>
<!-- Created with Inkscape (http://www.inkscape.org/) -->

<svg
   width="107.71729"
   height="54.647583"
   viewBox="0 0 28.500197 14.45884"
   version="1.1"
   id="svg1"
   inkscape:version="1.4 (86a8ad7, 2024-10-11)"
   sodipodi:docname="GMTK2025.svg"
   xml:space="preserve"
   inkscape:export-filename="Minigames\Rider\MG_Rider_BG.svg"
   inkscape:export-xdpi="96"
   inkscape:export-ydpi="96"
   xmlns:inkscape="http://www.inkscape.org/namespaces/inkscape"
   xmlns:sodipodi="http://sodipodi.sourceforge.net/DTD/sodipodi-0.dtd"
   xmlns="http://www.w3.org/2000/svg"
   xmlns:svg="http://www.w3.org/2000/svg"><sodipodi:namedview
     id="namedview1"
     pagecolor="#ffffff"
     bordercolor="#000000"
     borderopacity="0.25"
     inkscape:showpageshadow="2"
     inkscape:pageopacity="0.0"
     inkscape:pagecheckerboard="true"
     inkscape:deskcolor="#d1d1d1"
     inkscape:document-units="px"
     inkscape:zoom="1.4142135"
     inkscape:cx="550.48265"
     inkscape:cy="503.1065"
     inkscape:window-width="1920"
     inkscape:window-height="1001"
     inkscape:window-x="-9"
     inkscape:window-y="-9"
     inkscape:window-maximized="1"
     inkscape:current-layer="layer10"><inkscape:page
       x="0"
       y="1.6513264e-15"
       width="28.500196"
       height="14.45884"
       id="page2"
       margin="0"
       bleed="0" /></sodipodi:namedview><defs
     id="defs1"><clipPath
       clipPathUnits="userSpaceOnUse"
       id="clipPath20"><rect
         style="display:inline;fill:#cede68;fill-opacity:1;stroke:#cede68;stroke-width:1.05833;stroke-linecap:square;stroke-linejoin:miter;stroke-dasharray:none;stroke-opacity:1"
         id="rect21"
         width="219.64212"
         height="123.8527"
         x="38.914444"
         y="19.8314"
         inkscape:label="BG"
         inkscape:export-filename="Minigames\Horseshoe\MG_Hshoe_BG.svg"
         inkscape:export-xdpi="96"
         inkscape:export-ydpi="96" /></clipPath></defs><g
     id="layer5"
     inkscape:label="Mini-games"
     clip-path="url(#clipPath20)"
     transform="translate(-212.34788,-115.98018)"><g
       inkscape:groupmode="layer"
       id="layer10"
       inkscape:label="Rider"
       style="display:inline"><g
         id="g313"
         inkscape:label="Pipe"
         inkscape:export-filename="Minigames\Rider\Minigames\Rider\Minigames\Rider\Minigames\Rider\Minigames\Rider\Minigames\Rider\MG_Rider_Pipe.svg"
         inkscape:export-xdpi="96"
         inkscape:export-ydpi="96"><path
           style="fill:#784421;fill-opacity:1;stroke:#552200;stroke-width:0.79375;stroke-linecap:round;stroke-linejoin:miter;stroke-dasharray:none;stroke-opacity:1"
           d="m 220.20102,118.89486 c 0.91067,1.1708 2.31356,3.2901 2.31356,3.2901 0,0 -3.24282,1.15961 -1.93703,2.60319 0.89572,0.99024 4.92145,-0.91372 4.92145,-0.91372 l 3.24665,3.00946 c 0,0 -2.78064,2.34392 -5.82417,2.96101 -2.50833,0.50859 -5.30813,-0.0104 -7.11802,-1.21576 -1.8176,-1.21052 -3.34694,-3.44142 -3.0128,-6.33087 0.3005,-2.59842 3.02983,-5.61306 4.433,-5.89369 0.79512,0.60804 2.06669,1.31948 2.97736,2.49028 z"
           id="path312"
           sodipodi:nodetypes="zcsccssscz" /><path
           style="fill:#333333;fill-opacity:1;stroke:#1a1a1a;stroke-width:0.79375;stroke-linecap:round;stroke-linejoin:miter;stroke-dasharray:none;stroke-opacity:1"
           d="m 225.96908,123.64859 3.13138,2.93863 c 0,0 2.42648,-4.86901 5.98116,-4.02711 3.55469,0.8419 5.42087,3.35057 5.42087,3.35057 0,0 -2.41707,-4.27938 -3.9629,-5.03437 -1.59926,-0.78109 -2.92161,-1.03466 -4.88604,-0.28631 -1.96443,0.74836 -5.68447,3.05859 -5.68447,3.05859 z"
           id="path313"
           sodipodi:nodetypes="ccscssc" /></g></g></g></svg>
