<?xml version="1.0" encoding="UTF-8" standalone="no"?>
<!-- Created with Inkscape (http://www.inkscape.org/) -->

<svg
   width="113.65848"
   height="107.21588"
   viewBox="0 0 30.072138 28.367535"
   version="1.1"
   id="svg1"
   inkscape:version="1.4 (86a8ad7, 2024-10-11)"
   sodipodi:docname="GMTK2025.svg"
   xml:space="preserve"
   inkscape:export-filename="Minigames\Rider\MG_Rider_BG.svg"
   inkscape:export-xdpi="96"
   inkscape:export-ydpi="96"
   xmlns:inkscape="http://www.inkscape.org/namespaces/inkscape"
   xmlns:sodipodi="http://sodipodi.sourceforge.net/DTD/sodipodi-0.dtd"
   xmlns="http://www.w3.org/2000/svg"
   xmlns:svg="http://www.w3.org/2000/svg"><sodipodi:namedview
     id="namedview1"
     pagecolor="#ffffff"
     bordercolor="#000000"
     borderopacity="0.25"
     inkscape:showpageshadow="2"
     inkscape:pageopacity="0.0"
     inkscape:pagecheckerboard="true"
     inkscape:deskcolor="#d1d1d1"
     inkscape:document-units="px"
     inkscape:zoom="1.4142135"
     inkscape:cx="482.6004"
     inkscape:cy="484.01461"
     inkscape:window-width="1920"
     inkscape:window-height="1001"
     inkscape:window-x="-9"
     inkscape:window-y="-9"
     inkscape:window-maximized="1"
     inkscape:current-layer="layer10"><inkscape:page
       x="0"
       y="0"
       width="30.072138"
       height="28.367535"
       id="page2"
       margin="0"
       bleed="0" /></sodipodi:namedview><defs
     id="defs1"><clipPath
       clipPathUnits="userSpaceOnUse"
       id="clipPath20"><rect
         style="display:inline;fill:#cede68;fill-opacity:1;stroke:#cede68;stroke-width:1.05833;stroke-linecap:square;stroke-linejoin:miter;stroke-dasharray:none;stroke-opacity:1"
         id="rect21"
         width="219.64212"
         height="123.8527"
         x="38.914444"
         y="19.8314"
         inkscape:label="BG"
         inkscape:export-filename="Minigames\Horseshoe\MG_Hshoe_BG.svg"
         inkscape:export-xdpi="96"
         inkscape:export-ydpi="96" /></clipPath></defs><g
     id="layer5"
     inkscape:label="Mini-games"
     clip-path="url(#clipPath20)"
     transform="translate(-114.96776,-67.258484)"><g
       inkscape:groupmode="layer"
       id="layer10"
       inkscape:label="Rider"><g
         id="g102"
         inkscape:label="Palm"
         transform="translate(-34.808759,27.778105)"><path
           style="display:inline;fill:#552200;fill-opacity:1;stroke:#552200;stroke-width:0.890701;stroke-linecap:round;stroke-linejoin:round;stroke-dasharray:none;stroke-opacity:1"
           d="m 168.8345,64.246397 -4.54843,-1.264565 c 0,0 -5.24339,-2.746868 -5.57411,-4.466659 -1.25678,-3.770313 1.74068,-4.278945 4.05578,-6.329466 2.18282,-1.5875 1.18698,-5.511597 3.76666,-5.511597 2.84427,0.330729 9.98536,8.878415 9.98536,8.878415 z"
           id="path77"
           inkscape:label="Hand"
           sodipodi:nodetypes="ccccccc" /><path
           style="fill:#784421;fill-opacity:1;stroke:#552200;stroke-width:1.05833;stroke-linecap:round;stroke-linejoin:round;stroke-dasharray:none;stroke-opacity:1"
           d="m 162.71984,58.416845 c 0.47464,-3.056598 -1.7486,-2.234171 -4.10065,-3.396132 -2.35205,-1.161961 -7.70229,-3.935969 -8.25136,-1.642647 -0.64501,2.694096 3.56937,3.669871 6.13301,4.931344 2.66918,1.313404 5.69068,3.509778 6.219,0.107435 z"
           id="path98"
           sodipodi:nodetypes="sssss" /><path
           style="fill:#784421;fill-opacity:1;stroke:#552200;stroke-width:1.05833;stroke-linecap:round;stroke-linejoin:round;stroke-dasharray:none;stroke-opacity:1"
           d="m 158.15583,52.090012 c 1.91823,1.389063 4.98416,4.682609 6.01401,3.635505 2.59378,-2.637239 -1.04504,-5.221628 -3.22785,-6.676836 -2.18281,-1.455208 -6.19525,-5.768702 -7.95298,-3.045462 -1.40804,2.18147 5.16682,6.086793 5.16682,6.086793 z"
           id="path99"
           sodipodi:nodetypes="csssc" /><path
           style="fill:#784421;fill-opacity:1;stroke:#552200;stroke-width:1.05833;stroke-linecap:round;stroke-linejoin:round;stroke-dasharray:none;stroke-opacity:1"
           d="m 162.53963,48.408726 c 1.65113,1.697902 2.5618,4.594029 5.04879,2.960662 2.3273,-1.528489 1.1461,-3.354603 -0.75432,-5.163111 -1.90042,-1.808509 -3.80161,-7.640715 -6.82238,-5.88317 -3.67742,2.139597 2.52791,8.085619 2.52791,8.085619 z"
           id="path100"
           inkscape:transform-center-x="-0.19621865"
           inkscape:transform-center-y="-0.72598262"
           sodipodi:nodetypes="csssc" /><path
           style="fill:#784421;fill-opacity:1;stroke:#552200;stroke-width:1.05833;stroke-linecap:round;stroke-linejoin:round;stroke-dasharray:none;stroke-opacity:1"
           d="m 170.62487,60.008693 c -0.42095,0.02338 -0.0293,0.255259 -2.8531,-1.941044 -2.10475,-1.637028 -2.84283,-4.287552 -2.27911,-5.086817 1.40916,-1.997982 4.41723,-2.93587 4.41723,-2.93587 0,0 1.00844,-1.581875 1.8907,-2.729171 0.88223,-1.147295 3.78922,-5.885063 6.43334,-4.102415 2.64412,1.782647 -0.36235,3.079393 -0.42404,4.346584 -0.0495,1.017828 -0.16832,1.981431 -1.67347,3.151042 -1.71196,1.330309 -1.81322,1.858163 -1.08425,3.601458 0.95293,2.27887 0.0161,4.293068 0.0161,4.293068 z"
           id="path101"
           sodipodi:nodetypes="cssczzssscc"
           inkscape:label="Thumb" /><path
           style="fill:#784421;fill-opacity:1;stroke:#784421;stroke-width:1.05833;stroke-linecap:round;stroke-linejoin:round;stroke-dasharray:none;stroke-opacity:1"
           d="m 132.78619,90.223513 c 0,0 -4.53691,-1.356392 -5.65944,-2.478924 -1.12253,-1.122532 -2.30651,-2.907497 -2.30651,-2.907497 l 2.4936,-3.734152 3.46114,-3.741772 1.87089,0.280633 -3.46114,3.461139 c 0,0 0.30402,4.817533 3.67162,4.72399 3.3676,-0.09355 5.028,1.543481 5.028,1.543481 z"
           id="path103"
           transform="translate(34.808759,-27.778105)"
           sodipodi:nodetypes="cscccccscc" /><path
           style="display:inline;fill:#784421;fill-opacity:1;stroke:#552200;stroke-width:0.890701;stroke-linecap:round;stroke-linejoin:round;stroke-dasharray:none;stroke-opacity:1"
           d="m 170.21502,67.402593 -1.55636,-2.108591 -2.19832,-0.611182 c 0,0 2.92237,-3.538101 4.74202,-5.787845 1.81965,-2.249745 4.25318,-5.534865 4.25318,-5.534865 l 1.12429,2.159326 2.44493,0.874181 -4.27483,5.321615 z"
           id="path102"
           inkscape:label="Wrist"
           sodipodi:nodetypes="ccczccccc" /></g></g></g></svg>
