<?xml version="1.0" encoding="UTF-8" standalone="no"?>
<!-- Created with Inkscape (http://www.inkscape.org/) -->

<svg
   width="87.18396"
   height="84.676147"
   viewBox="0 0 23.067422 22.403897"
   version="1.1"
   id="svg1"
   inkscape:version="1.4 (86a8ad7, 2024-10-11)"
   sodipodi:docname="GMTK2025.svg"
   xml:space="preserve"
   inkscape:export-filename="Minigames\Rider\MG_Rider_BG.svg"
   inkscape:export-xdpi="96"
   inkscape:export-ydpi="96"
   xmlns:inkscape="http://www.inkscape.org/namespaces/inkscape"
   xmlns:sodipodi="http://sodipodi.sourceforge.net/DTD/sodipodi-0.dtd"
   xmlns="http://www.w3.org/2000/svg"
   xmlns:svg="http://www.w3.org/2000/svg"><sodipodi:namedview
     id="namedview1"
     pagecolor="#ffffff"
     bordercolor="#000000"
     borderopacity="0.25"
     inkscape:showpageshadow="2"
     inkscape:pageopacity="0.0"
     inkscape:pagecheckerboard="true"
     inkscape:deskcolor="#d1d1d1"
     inkscape:document-units="px"
     inkscape:zoom="1.4142135"
     inkscape:cx="482.6004"
     inkscape:cy="484.01461"
     inkscape:window-width="1920"
     inkscape:window-height="1001"
     inkscape:window-x="-9"
     inkscape:window-y="-9"
     inkscape:window-maximized="1"
     inkscape:current-layer="layer10"><inkscape:page
       x="0"
       y="5.5676047e-16"
       width="23.067423"
       height="22.403896"
       id="page2"
       margin="0"
       bleed="0" /></sodipodi:namedview><defs
     id="defs1"><clipPath
       clipPathUnits="userSpaceOnUse"
       id="clipPath20"><rect
         style="display:inline;fill:#cede68;fill-opacity:1;stroke:#cede68;stroke-width:1.05833;stroke-linecap:square;stroke-linejoin:miter;stroke-dasharray:none;stroke-opacity:1"
         id="rect21"
         width="219.64212"
         height="123.8527"
         x="38.914444"
         y="19.8314"
         inkscape:label="BG"
         inkscape:export-filename="Minigames\Horseshoe\MG_Hshoe_BG.svg"
         inkscape:export-xdpi="96"
         inkscape:export-ydpi="96" /></clipPath></defs><g
     id="layer5"
     inkscape:label="Mini-games"
     clip-path="url(#clipPath20)"
     transform="translate(-156.40267,-45.44402)"><g
       inkscape:groupmode="layer"
       id="layer10"
       inkscape:label="Rider"><g
         id="g3"
         inkscape:label="Fist"><path
           style="display:inline;fill:#552200;fill-opacity:1;stroke:#552200;stroke-width:0.890701;stroke-linecap:round;stroke-linejoin:round;stroke-dasharray:none;stroke-opacity:1"
           d="m 168.8345,64.246397 -4.54843,-1.264565 c 0,0 -5.24339,-2.746868 -5.57411,-4.466659 -1.25678,-3.770313 -0.59793,-6.149832 1.71717,-8.200353 2.18282,-1.5875 3.52559,-3.64071 6.10527,-3.64071 2.84427,0.330729 9.98536,8.878415 9.98536,8.878415 z"
           id="path24"
           inkscape:label="Hand"
           sodipodi:nodetypes="ccccccc" /><path
           style="fill:#784421;fill-opacity:1;stroke:#552200;stroke-width:1.05833;stroke-linecap:round;stroke-linejoin:round;stroke-dasharray:none;stroke-opacity:1"
           d="m 160.87919,60.672705 c 2.08115,1.130443 3.8134,0.07318 4.88336,-0.932943 1.06995,-1.006077 -0.82256,-2.5649 -3.17461,-3.726861 -2.35205,-1.161961 -4.26271,-2.679199 -5.47323,-0.187439 -1.21051,2.491759 3.76448,4.8472 3.76448,4.847201 z"
           id="path11"
           sodipodi:nodetypes="cssssc" /><path
           style="fill:#784421;fill-opacity:1;stroke:#552200;stroke-width:1.05833;stroke-linecap:round;stroke-linejoin:round;stroke-dasharray:none;stroke-opacity:1"
           d="m 162.17824,55.878558 c 1.91823,1.389063 3.6073,1.642298 4.79793,0.782402 1.19062,-0.859896 -0.15637,-3.678146 -2.33918,-5.133354 -2.18281,-1.455208 -3.72002,-4.004946 -5.38051,-1.221347 -2.24994,3.771723 2.92176,5.572299 2.92176,5.572299 z"
           id="path12"
           sodipodi:nodetypes="csssc" /><path
           style="fill:#784421;fill-opacity:1;stroke:#552200;stroke-width:1.05833;stroke-linecap:round;stroke-linejoin:round;stroke-dasharray:none;stroke-opacity:1"
           d="m 165.53305,52.337588 c 1.65113,1.697902 3.07335,2.013017 4.39398,1.370408 1.32063,-0.642611 0.77192,-2.886881 -1.1285,-4.695389 -1.90042,-1.808509 -2.39844,-4.179574 -5.41921,-2.422029 -3.67742,2.139597 2.15373,5.74701 2.15373,5.74701 z"
           id="path13"
           inkscape:transform-center-x="-0.19621865"
           inkscape:transform-center-y="-0.72598262"
           sodipodi:nodetypes="csssc" /><path
           style="fill:#784421;fill-opacity:1;stroke:#552200;stroke-width:1.05833;stroke-linecap:round;stroke-linejoin:round;stroke-dasharray:none;stroke-opacity:1"
           d="m 170.62487,60.008693 c -0.42095,0.02338 -1.30962,1.286235 -2.8531,-1.941044 -1.54348,-3.227282 0.46772,-4.115953 1.40316,-4.162723 0.93545,-0.04677 0.67821,-1.216078 0.67821,-1.216078 0,0 -2.04364,2.256531 -3.34422,2.432152 -1.30059,0.175621 -2.09777,0.464936 -3.55468,-0.795124 -1.45692,-1.260061 3.21612,-6.349617 4.5369,-6.501333 1.91328,-0.219775 3.00668,0.526223 4.27965,1.894271 1.47691,1.587216 2.22168,1.262851 3.0168,3.601458 0.79513,2.33861 0.28064,5.285256 0.28064,5.285256 z"
           id="path10"
           sodipodi:nodetypes="cssczzssscc"
           inkscape:label="Thumb" /><path
           style="display:inline;fill:#784421;fill-opacity:1;stroke:#552200;stroke-width:0.890701;stroke-linecap:round;stroke-linejoin:round;stroke-dasharray:none;stroke-opacity:1"
           d="m 170.21502,67.402593 -1.55636,-2.108591 -2.19832,-0.611182 c 0,0 2.92237,-3.538101 4.74202,-5.787845 1.81965,-2.249745 4.25318,-5.534865 4.25318,-5.534865 l 1.12429,2.159326 2.44493,0.874181 -4.27483,5.321615 z"
           id="path92-4"
           inkscape:label="Wrist"
           sodipodi:nodetypes="ccczccccc" /></g></g></g></svg>
