<?xml version="1.0" encoding="UTF-8" standalone="no"?>
<!-- Created with Inkscape (http://www.inkscape.org/) -->

<svg
   width="113.65063"
   height="96.581078"
   viewBox="0 0 30.070063 25.553743"
   version="1.1"
   id="svg1"
   inkscape:version="1.4 (86a8ad7, 2024-10-11)"
   sodipodi:docname="GMTK2025.svg"
   xml:space="preserve"
   inkscape:export-filename="Minigames\Rider\MG_Rider_BG.svg"
   inkscape:export-xdpi="96"
   inkscape:export-ydpi="96"
   xmlns:inkscape="http://www.inkscape.org/namespaces/inkscape"
   xmlns:sodipodi="http://sodipodi.sourceforge.net/DTD/sodipodi-0.dtd"
   xmlns="http://www.w3.org/2000/svg"
   xmlns:svg="http://www.w3.org/2000/svg"><sodipodi:namedview
     id="namedview1"
     pagecolor="#ffffff"
     bordercolor="#000000"
     borderopacity="0.25"
     inkscape:showpageshadow="2"
     inkscape:pageopacity="0.0"
     inkscape:pagecheckerboard="true"
     inkscape:deskcolor="#d1d1d1"
     inkscape:document-units="px"
     inkscape:zoom="1.4142135"
     inkscape:cx="482.6004"
     inkscape:cy="484.01461"
     inkscape:window-width="1920"
     inkscape:window-height="1001"
     inkscape:window-x="-9"
     inkscape:window-y="-9"
     inkscape:window-maximized="1"
     inkscape:current-layer="layer10"><inkscape:page
       x="0"
       y="0"
       width="30.070063"
       height="25.553743"
       id="page2"
       margin="0"
       bleed="0" /></sodipodi:namedview><defs
     id="defs1"><clipPath
       clipPathUnits="userSpaceOnUse"
       id="clipPath20"><rect
         style="display:inline;fill:#cede68;fill-opacity:1;stroke:#cede68;stroke-width:1.05833;stroke-linecap:square;stroke-linejoin:miter;stroke-dasharray:none;stroke-opacity:1"
         id="rect21"
         width="219.64212"
         height="123.8527"
         x="38.914444"
         y="19.8314"
         inkscape:label="BG"
         inkscape:export-filename="Minigames\Horseshoe\MG_Hshoe_BG.svg"
         inkscape:export-xdpi="96"
         inkscape:export-ydpi="96" /></clipPath></defs><g
     id="layer5"
     inkscape:label="Mini-games"
     clip-path="url(#clipPath20)"
     transform="translate(-115.25046,-26.948337)"><g
       inkscape:groupmode="layer"
       id="layer10"
       inkscape:label="Rider"><g
         id="g40"
         inkscape:label="Call"
         transform="translate(-34.528126,-15.345834)"><path
           style="display:inline;fill:#552200;fill-opacity:1;stroke:#552200;stroke-width:0.890701;stroke-linecap:round;stroke-linejoin:round;stroke-dasharray:none;stroke-opacity:1"
           d="m 168.8345,64.246397 -4.54843,-1.264565 c 0,0 -5.24339,-2.746868 -5.57411,-4.466659 -1.25678,-3.770313 -0.59793,-6.149832 1.71717,-8.200353 2.18282,-1.5875 3.52559,-3.64071 6.10527,-3.64071 2.84427,0.330729 9.98536,8.878415 9.98536,8.878415 z"
           id="path34"
           inkscape:label="Hand"
           sodipodi:nodetypes="ccccccc" /><path
           style="fill:#784421;fill-opacity:1;stroke:#552200;stroke-width:1.05833;stroke-linecap:round;stroke-linejoin:round;stroke-dasharray:none;stroke-opacity:1"
           d="m 162.71984,58.416845 c 0.47464,-3.056598 -1.7486,-2.234171 -4.10065,-3.396132 -2.35205,-1.161961 -7.70229,-3.935969 -8.25136,-1.642647 -0.64501,2.694096 3.89678,4.979492 6.74105,5.773243 2.86533,0.799627 5.08264,2.667879 5.61096,-0.734464 z"
           id="path35"
           sodipodi:nodetypes="sssss" /><path
           style="fill:#784421;fill-opacity:1;stroke:#552200;stroke-width:1.05833;stroke-linecap:round;stroke-linejoin:round;stroke-dasharray:none;stroke-opacity:1"
           d="m 162.17824,55.878558 c 1.91823,1.389063 3.6073,1.642298 4.79793,0.782402 1.19062,-0.859896 -0.15637,-3.678146 -2.33918,-5.133354 -2.18281,-1.455208 -3.72002,-4.004946 -5.38051,-1.221347 -2.24994,3.771723 2.92176,5.572299 2.92176,5.572299 z"
           id="path36"
           sodipodi:nodetypes="csssc" /><path
           style="fill:#784421;fill-opacity:1;stroke:#552200;stroke-width:1.05833;stroke-linecap:round;stroke-linejoin:round;stroke-dasharray:none;stroke-opacity:1"
           d="m 165.53305,52.337588 c 1.65113,1.697902 3.07335,2.013017 4.39398,1.370408 1.32063,-0.642611 0.77192,-2.886881 -1.1285,-4.695389 -1.90042,-1.808509 -2.39844,-4.179574 -5.41921,-2.422029 -3.67742,2.139597 2.15373,5.74701 2.15373,5.74701 z"
           id="path37"
           inkscape:transform-center-x="-0.19621865"
           inkscape:transform-center-y="-0.72598262"
           sodipodi:nodetypes="csssc" /><path
           style="fill:#784421;fill-opacity:1;stroke:#552200;stroke-width:1.05833;stroke-linecap:round;stroke-linejoin:round;stroke-dasharray:none;stroke-opacity:1"
           d="m 170.62487,60.008693 c -0.42095,0.02338 -1.30962,1.286235 -2.8531,-1.941044 -1.54348,-3.227282 -0.12446,-3.874605 0.80785,-3.964285 1.86149,-0.179062 2.26571,-2.93587 2.26571,-2.93587 0,0 0.073,-2.704407 0.95526,-3.851703 0.88223,-1.147295 3.78922,-5.885063 6.43334,-4.102415 2.64412,1.782647 -0.36235,3.079393 -0.42404,4.346584 -0.0495,1.017828 -0.16832,1.981431 -1.67347,3.151042 -1.71196,1.330309 -1.81322,1.858163 -1.08425,3.601458 0.95293,2.27887 0.0161,4.293068 0.0161,4.293068 z"
           id="path38"
           sodipodi:nodetypes="cssczzssscc"
           inkscape:label="Thumb" /><path
           style="display:inline;fill:#784421;fill-opacity:1;stroke:#552200;stroke-width:0.890701;stroke-linecap:round;stroke-linejoin:round;stroke-dasharray:none;stroke-opacity:1"
           d="m 170.21502,67.402593 -1.55636,-2.108591 -2.19832,-0.611182 c 0,0 2.92237,-3.538101 4.74202,-5.787845 1.81965,-2.249745 4.25318,-5.534865 4.25318,-5.534865 l 1.12429,2.159326 2.44493,0.874181 -4.27483,5.321615 z"
           id="path39"
           inkscape:label="Wrist"
           sodipodi:nodetypes="ccczccccc" /></g></g></g></svg>
