<?xml version="1.0" encoding="UTF-8" standalone="no"?>
<!-- Created with Inkscape (http://www.inkscape.org/) -->

<svg
   width="828"
   height="468.99997"
   viewBox="0 0 219.07499 124.08958"
   version="1.1"
   id="svg1"
   inkscape:version="1.4 (86a8ad7, 2024-10-11)"
   sodipodi:docname="GMTK2025.svg"
   xml:space="preserve"
   inkscape:export-filename="Minigames\Pony\MG_Pony_BG.png"
   inkscape:export-xdpi="96"
   inkscape:export-ydpi="96"
   xmlns:inkscape="http://www.inkscape.org/namespaces/inkscape"
   xmlns:sodipodi="http://sodipodi.sourceforge.net/DTD/sodipodi-0.dtd"
   xmlns="http://www.w3.org/2000/svg"
   xmlns:svg="http://www.w3.org/2000/svg"><sodipodi:namedview
     id="namedview1"
     pagecolor="#ffffff"
     bordercolor="#000000"
     borderopacity="0.25"
     inkscape:showpageshadow="2"
     inkscape:pageopacity="0.0"
     inkscape:pagecheckerboard="true"
     inkscape:deskcolor="#d1d1d1"
     inkscape:document-units="px"
     inkscape:zoom="0.70710675"
     inkscape:cx="495.68188"
     inkscape:cy="400.92956"
     inkscape:window-width="1920"
     inkscape:window-height="1001"
     inkscape:window-x="-9"
     inkscape:window-y="-9"
     inkscape:window-maximized="1"
     inkscape:current-layer="g105"><inkscape:page
       x="0"
       y="0"
       width="219.075"
       height="124.08958"
       id="page2"
       margin="0"
       bleed="0" /></sodipodi:namedview><defs
     id="defs1"><marker
       style="overflow:visible"
       id="SemiCircleEmpty"
       refX="2"
       refY="0"
       orient="auto-start-reverse"
       inkscape:stockid="Empty semicircle"
       markerWidth="0.5"
       markerHeight="0.5"
       viewBox="0 0 1 1"
       inkscape:isstock="true"
       inkscape:collect="always"
       preserveAspectRatio="xMidYMid"><path
         style="fill:none;fill-rule:evenodd;stroke:context-stroke;stroke-width:1.08"
         d="m -0.7647042,-3.0274156 c 1.656,0 3,1.344 3,3 0,1.656 -1.344,3 -3,3"
         id="path26" /></marker><clipPath
       clipPathUnits="userSpaceOnUse"
       id="clipPath20"><rect
         style="display:inline;fill:#cede68;fill-opacity:1;stroke:#cede68;stroke-width:1.05833;stroke-linecap:square;stroke-linejoin:miter;stroke-dasharray:none;stroke-opacity:1"
         id="rect21"
         width="219.64212"
         height="123.8527"
         x="38.914444"
         y="19.8314"
         inkscape:label="BG"
         inkscape:export-filename="Minigames\Horseshoe\MG_Hshoe_BG.svg"
         inkscape:export-xdpi="96"
         inkscape:export-ydpi="96" /></clipPath></defs><g
     id="layer5"
     inkscape:label="Mini-games"
     clip-path="url(#clipPath20)"
     transform="translate(-38.89375,-19.843749)"><g
       inkscape:groupmode="layer"
       id="layer6"
       inkscape:label="Feeding"
       style="display:inline"><g
         id="g146"
         inkscape:label="BG"
         style="display:inline"><rect
           style="display:inline;fill:#53a2c7;fill-opacity:1;stroke:#53a2c7;stroke-width:1.05833;stroke-linecap:square;stroke-linejoin:miter;stroke-dasharray:none;stroke-opacity:1"
           id="rect144"
           width="219.64211"
           height="123.8527"
           x="38.914444"
           y="19.8314"
           inkscape:label="Sky"
           inkscape:export-filename="Minigames\Horseshoe\MG_Hshoe_BG.svg"
           inkscape:export-xdpi="96"
           inkscape:export-ydpi="96" /><rect
           style="display:inline;fill:#80ac40;fill-opacity:1;stroke:#80ac40;stroke-width:1.07566;stroke-linecap:square;stroke-linejoin:miter;stroke-dasharray:none;stroke-opacity:1"
           id="rect145"
           width="219.62479"
           height="127.95132"
           x="38.923111"
           y="15.724119"
           inkscape:label="Grass"
           inkscape:export-filename="Minigames\Horseshoe\MG_Hshoe_BG.svg"
           inkscape:export-xdpi="96"
           inkscape:export-ydpi="96" /><rect
           style="display:inline;fill:#cede68;fill-opacity:1;stroke:#cede68;stroke-width:0.349082;stroke-linecap:square;stroke-linejoin:miter;stroke-dasharray:none;stroke-opacity:1"
           id="rect146"
           width="220.35135"
           height="13.431275"
           x="38.559822"
           y="130.60745"
           inkscape:label="Grass"
           inkscape:export-filename="Minigames\Horseshoe\MG_Hshoe_BG.svg"
           inkscape:export-xdpi="96"
           inkscape:export-ydpi="96" /></g><g
         id="g105"
         inkscape:label="Pony"
         style="display:inline"><g
           id="g116"
           inkscape:label="Body"><path
             style="fill:#cc9446;fill-opacity:1;stroke:#936237;stroke-width:1.05833;stroke-linecap:round;stroke-linejoin:round;stroke-dasharray:none;stroke-opacity:1"
             d="m 103.98125,110.59584 c 0,-8.99584 3.70417,-16.668753 13.49375,-17.462503 9.78959,-0.79375 19.84375,3.439584 20.6375,12.700003 0.79375,9.26041 -2.11666,16.66875 -2.11666,16.66875 l 6.87916,-6.61459 c 0,0 2.38125,-14.2875 -0.26458,-18.785413 -2.64583,-4.497916 -10.31875,-14.552085 -19.57917,-14.816669 -9.26041,-0.264583 -21.69583,6.085417 -23.283329,16.139586 -1.5875,10.054166 -1.5875,17.727086 -0.529167,19.843746 1.058336,2.11667 7.143746,5.02709 7.143746,5.02709 0,0 -1.85208,-8.20209 -2.38125,-12.7 z"
             id="path108"
             inkscape:label="Yoke" /><ellipse
             style="fill:#c83737;fill-opacity:1;stroke:#aa0000;stroke-width:1.05833;stroke-linecap:round;stroke-linejoin:round;stroke-dasharray:none;stroke-opacity:1"
             id="path105"
             cx="120.91459"
             cy="111.78647"
             rx="15.172041"
             ry="17.030771" /><path
             style="fill:#c83737;fill-opacity:1;stroke:#aa0000;stroke-width:1.05833;stroke-linecap:round;stroke-linejoin:round;stroke-dasharray:none;stroke-opacity:1"
             d="m 109.98642,116.75875 c -0.28392,5.28949 -1.16062,13.57146 -3.28978,19.90905 -2.98568,8.88708 -6.972041,16.52596 -6.980816,16.52596 h 7.705016 c 5.82083,0 7.9375,0.26458 8.46666,-4.49792 0.52917,-4.7625 2.62978,-27.856 2.62978,-27.856"
             id="path106"
             sodipodi:nodetypes="cscssc" /><path
             style="fill:#c83737;fill-opacity:1;stroke:#aa0000;stroke-width:1.05833;stroke-linecap:round;stroke-linejoin:round;stroke-dasharray:none;stroke-opacity:1"
             d="m 131.29478,119.32709 c 0,0 -3.70967,16.46836 -2.65134,23.87669 1.05833,7.40834 5.50031,13.95873 5.50031,13.95873 0,0 -5.02708,-1.32292 -8.20208,-0.79375 -3.175,0.52916 -7.55002,-0.46497 -8.07919,-3.11081 -0.52917,-2.64583 -0.62272,-12.07178 -0.0936,-15.77595 0.52917,-3.70417 2.52019,-16.14508 2.52019,-16.14508"
             id="path107"
             sodipodi:nodetypes="cscsssc" /></g><g
           id="g107"
           inkscape:label="Head"
           transform="rotate(-6.7227812,120.94253,81.35313)"><path
             style="display:inline;fill:#2a7fff;fill-opacity:1;stroke:#5f8dd3;stroke-width:1.05833;stroke-linecap:round;stroke-linejoin:miter;stroke-dasharray:none;stroke-opacity:1"
             d="m 104.71486,82.250925 -3.3128,8.112905 3.52064,-1.033687 -2.95937,9.90986 5.39153,-4.30855 -2.21102,10.960737 4.8549,-6.721897 1.06773,8.118417 1.93704,-8.79317 11.41046,-9.067152 8.41899,14.405822 1.40981,-7.372001 2.69868,7.372001 -0.19098,-7.823674 2.81768,2.772285 -1.34917,-8.095715 3.40715,2.295967 -2.24507,-9.167347 3.92887,2.993419 -2.61925,-7.483546 -14.40582,-7.670636 -16.46381,0.748355 z"
             id="path141"
             sodipodi:nodetypes="ccccccccccccccccccccccc" /><ellipse
             style="fill:#c83737;fill-opacity:1;stroke:#aa0000;stroke-width:1.05833;stroke-linecap:round;stroke-linejoin:round;stroke-dasharray:none;stroke-opacity:1"
             id="path104"
             cx="121.70834"
             cy="80.830208"
             rx="19.049999"
             ry="23.68021"
             inkscape:label="Head" /><path
             style="display:inline;fill:#2a7fff;fill-opacity:1;stroke:#5f8dd3;stroke-width:1.05833;stroke-linecap:round;stroke-linejoin:miter;stroke-dasharray:none;stroke-opacity:1"
             d="m 121.88827,66.042304 c 3.18051,-4.209497 7.29646,-4.864307 8.32545,-4.864307 1.02899,0 4.95785,2.151521 4.95785,2.151521 l 3.46114,-3.741775 -2.71279,-1.683798 2.15153,-6.828736 -3.3676,1.590253 2.05797,-6.548104 -5.23848,2.245065 -1.12253,-8.231902 -5.8933,7.202913 -3.08696,-9.541523 -3.46114,9.167347 -4.58367,-7.296458 -1.59025,8.512535 -6.36103,-2.432153 1.96444,7.109368 -4.95785,-1.403165 4.11595,6.45456 -3.55468,-0.280633 4.58367,4.303041 -2.80633,2.245063 2.89987,1.964431 c 0,0 2.5257,-3.648228 6.54811,-3.461141 4.0224,0.187089 7.67063,3.367598 7.67063,3.367598 z"
             id="path140"
             sodipodi:nodetypes="cscccccccccccccccccccccsc"
             inkscape:label="ManeTop" /><g
             id="g137"
             inkscape:label="Ear"
             transform="matrix(0.85298753,0.14054056,-0.14046457,0.8525264,88.457847,5.0741997)"
             style="display:inline;fill:#c83737;stroke:#aa0000"><path
               style="fill:#c83737;fill-opacity:1;stroke:#aa0000;stroke-width:1.05833;stroke-linecap:round;stroke-dasharray:none;stroke-opacity:1"
               d="m 66.229665,61.569282 c -2.224486,-3.685051 -1.552353,-6.403419 -1.452257,-9.216176 0.10796,-3.033752 2.012309,-7.451657 2.012309,-7.451657 0,0 6.669223,3.647514 8.993161,13.419404 1.447011,6.084516 -0.531656,14.367869 -2.56764,17.735769"
               id="path136"
               inkscape:label="Ear"
               sodipodi:nodetypes="cscsc" /><path
               style="fill:#c83737;fill-opacity:1;stroke:#aa0000;stroke-width:0.529167;stroke-linecap:round;stroke-dasharray:none;stroke-opacity:1"
               d="m 79.785111,49.104421 c 0,0 2.78409,3.517447 4.174555,9.008214 0.721911,2.850738 -1.090812,8.925898 -1.090812,8.925898"
               id="path137"
               sodipodi:nodetypes="csc"
               transform="matrix(1.1567542,0,0,1.1573798,-23.427359,-7.5698078)"
               inkscape:label="EarLine" /></g><g
             id="g139"
             inkscape:label="Ear"
             transform="matrix(-0.84202546,0.19578683,0.19568097,0.84157028,150.46433,2.9531079)"
             style="display:inline;fill:#c83737;stroke:#aa0000"><path
               style="fill:#c83737;fill-opacity:1;stroke:#aa0000;stroke-width:1.05833;stroke-linecap:round;stroke-dasharray:none;stroke-opacity:1"
               d="m 66.229665,61.569282 c -2.224486,-3.685051 -1.552353,-6.403419 -1.452257,-9.216176 0.10796,-3.033752 2.012309,-7.451657 2.012309,-7.451657 0,0 6.669223,3.647514 8.993161,13.419404 1.447011,6.084516 -0.531656,14.367869 -2.56764,17.735769"
               id="path138"
               inkscape:label="Ear"
               sodipodi:nodetypes="cscsc" /><path
               style="fill:#c83737;fill-opacity:1;stroke:#aa0000;stroke-width:0.529167;stroke-linecap:round;stroke-dasharray:none;stroke-opacity:1"
               d="m 79.785111,49.104421 c 0,0 2.78409,3.517447 4.174555,9.008214 0.721911,2.850738 -1.090812,8.925898 -1.090812,8.925898"
               id="path139"
               sodipodi:nodetypes="csc"
               transform="matrix(1.1567542,0,0,1.1573798,-23.427359,-7.5698078)"
               inkscape:label="EarLine" /></g><g
             id="g140"
             inkscape:label="Face"><g
               id="g117"
               inkscape:label="Eye"
               style="display:inline"><path
                 style="fill:#ffffff;fill-opacity:1;stroke:#ffffff;stroke-width:1.05833;stroke-linecap:round;stroke-linejoin:round;stroke-dasharray:none;stroke-opacity:1"
                 d="m 106.3672,78.377543 c -0.3638,4.200296 0.90593,7.906735 3.28322,9.144747 2.20551,1.148554 4.15293,0.986767 6.7502,-0.459696 2.9345,-1.634275 2.72743,-7.299581 2.64584,-10.472366 -0.12523,-4.869489 -1.51633,-9.187589 -3.48968,-9.485278 -2.75405,-0.415461 -4.4013,0.479481 -6.21771,2.61276 -2.1764,2.556065 -2.60807,4.459537 -2.97187,8.659833 z"
                 id="path109"
                 sodipodi:nodetypes="zsssssz"
                 inkscape:label="White" /><path
                 style="fill:#008000;fill-opacity:1;stroke:#008000;stroke-width:0.264583;stroke-linecap:round;stroke-linejoin:round;stroke-dasharray:none;stroke-opacity:1"
                 d="m 106.90717,84.152463 c -0.13489,-0.899819 -0.71126,-1.719656 -0.52415,-3.909054 0.2176,-2.545669 1.42715,-6.441442 2.23214,-7.757545 2.0836,-3.406511 4.57098,-4.53824 6.67769,-4.426501 1.82635,0.09687 2.94114,0.85256 3.63567,3.729903 0.13358,0.553416 0.52237,2.958387 0.60026,5.524342 0.0527,1.736298 -0.0681,3.316993 -0.20172,4.719265 -0.1759,1.846378 -0.77721,3.427544 -1.60404,4.518951 -0.82682,1.091409 -3.78201,2.172298 -4.97263,2.172298 -1.19063,0 -2.96488,-0.435967 -3.94879,-1.287594 -1.28132,-1.075481 -1.75953,-2.384246 -1.89443,-3.284065 z"
                 id="path119"
                 sodipodi:nodetypes="zsssssssszz"
                 inkscape:label="Iris" /><path
                 style="fill:#000000;fill-opacity:1;stroke:#000000;stroke-width:0.264583;stroke-linecap:round;stroke-linejoin:round;stroke-dasharray:none;stroke-opacity:1"
                 d="m 108.26835,85.021701 c -0.0553,-0.609013 -0.17241,-2.500537 0.0147,-4.689935 0.2176,-2.545669 1.3243,-5.43158 2.11805,-6.754496 0.79375,-1.322917 3.04962,-4.306729 5.15633,-4.19499 1.82635,0.09687 3.13958,1.480945 3.37109,2.406986 0.13808,0.552311 0.52237,2.958387 0.60026,5.524342 0.0527,1.736298 -0.0681,3.316993 -0.20172,4.719265 -0.1759,1.846378 -0.77721,3.427544 -1.60404,4.518951 -0.82682,1.091409 -3.78201,2.172298 -4.97263,2.172298 -1.19063,0 -2.99794,-0.502112 -3.53538,-1.023011 -0.53743,-0.520898 -0.8914,-2.070397 -0.94669,-2.67941 z"
                 id="path118"
                 sodipodi:nodetypes="zsssssssszzz"
                 inkscape:label="Black" /><path
                 style="display:inline;fill:#ffffff;fill-opacity:1;stroke:#ffffff;stroke-width:0.264583;stroke-linecap:round;stroke-linejoin:miter;stroke-dasharray:none;stroke-opacity:1"
                 d="m 111.31091,70.598672 c 0,0 1.12354,0.01539 1.40452,0.309131 0.28096,0.29374 0.71153,1.584263 0.71153,1.584263 0,0 0.0821,-1.376532 0.30464,-1.663988 0.22251,-0.287466 1.23378,-0.811844 1.23378,-0.811844 0,0 -1.08006,-0.144473 -1.38539,-0.391588 -0.30535,-0.247123 -0.75256,-1.484828 -0.75256,-1.484828 0,0 -0.0936,1.360579 -0.26893,1.643611 -0.17537,0.283033 -1.24759,0.815243 -1.24759,0.815243 z"
                 id="path120"
                 sodipodi:nodetypes="czczczczc" /><path
                 style="display:inline;fill:#ffffff;fill-opacity:1;stroke:#ffffff;stroke-width:0.17177;stroke-linecap:round;stroke-linejoin:miter;stroke-dasharray:none;stroke-opacity:1"
                 d="m 116.43944,72.256739 c 0,0 0.64087,0.25781 0.72979,0.507789 0.0889,0.24997 0.0183,1.170794 0.0183,1.170794 0,0 0.38594,-0.862707 0.58435,-0.997544 0.19843,-0.13484 0.90773,-0.247202 0.90773,-0.247202 0,0 -0.58415,-0.330814 -0.69851,-0.556327 -0.11438,-0.225526 -0.0663,-1.116224 -0.0663,-1.116224 0,0 -0.38855,0.849986 -0.55885,0.992384 -0.17029,0.142408 -0.91649,0.24633 -0.91649,0.24633 z"
                 id="path121"
                 sodipodi:nodetypes="czczczczc" /><path
                 style="display:inline;fill:#ffffff;fill-opacity:1;stroke:#ffffff;stroke-width:0.510547;stroke-linecap:round;stroke-linejoin:miter;stroke-dasharray:none;stroke-opacity:1"
                 d="m 108.88589,80.325831 c 0,0 2.04133,0.22041 2.4974,0.863768 0.45601,0.643348 0.99703,3.334474 0.99703,3.334474 0,0 0.40795,-2.779312 0.86674,-3.325125 0.45885,-0.545838 2.39725,-1.439576 2.39725,-1.439576 0,0 -1.93798,-0.475016 -2.44708,-1.027858 -0.50917,-0.552863 -1.0903,-3.13964 -1.0903,-3.13964 0,0 -0.42569,2.745028 -0.79797,3.289789 -0.37223,0.544779 -2.423,1.444149 -2.423,1.444149 z"
                 id="path122"
                 sodipodi:nodetypes="czczczczc" /><path
                 style="display:inline;fill:#000000;fill-opacity:1;stroke:#000000;stroke-width:0.264583;stroke-linecap:round;stroke-linejoin:round;stroke-dasharray:none;stroke-opacity:1"
                 d="m 103.91511,81.160939 c 1.68671,-1.190625 1.73952,-2.014344 1.71979,-3.538802 -0.0415,-3.204779 1.12448,-6.250781 1.98437,-7.639844 0.9368,-1.513309 2.58649,-3.595273 4.63021,-4.134114 1.53041,-0.403503 2.2039,-0.485545 3.77031,0.297656 1.12449,0.562239 2.18282,2.778125 2.18282,2.778125 0,0 -1.75287,-2.215886 -3.34037,-2.215886 -1.5875,0 -2.48046,0.03307 -3.77031,1.025261 -1.07575,0.827495 -2.14974,1.885156 -2.87734,3.141927 -0.7276,1.256771 -1.38906,2.844271 -1.48829,4.431771 -0.0998,1.596739 -0.033,4.564062 -0.69452,5.159375 -0.50141,0.451241 -2.11667,0.694531 -2.11667,0.694531 z"
                 id="path117"
                 sodipodi:nodetypes="csssscsssssc"
                 inkscape:label="Lashes" /></g><g
               id="g135"
               inkscape:label="Eye"
               transform="matrix(-0.99999999,0,0,0.99999999,243.66215,-1.0289877)"
               style="display:inline"><path
                 style="fill:#ffffff;fill-opacity:1;stroke:#ffffff;stroke-width:1.05833;stroke-linecap:round;stroke-linejoin:round;stroke-dasharray:none;stroke-opacity:1"
                 d="m 106.3672,78.377543 c -0.3638,4.200296 0.90593,7.906735 3.28322,9.144747 2.20551,1.148554 4.15293,0.986767 6.7502,-0.459696 2.9345,-1.634275 2.72743,-7.299581 2.64584,-10.472366 -0.12523,-4.869489 -1.51633,-9.187589 -3.48968,-9.485278 -2.75405,-0.415461 -4.4013,0.479481 -6.21771,2.61276 -2.1764,2.556065 -2.60807,4.459537 -2.97187,8.659833 z"
                 id="path129"
                 sodipodi:nodetypes="zsssssz"
                 inkscape:label="White" /><path
                 style="fill:#008000;fill-opacity:1;stroke:#008000;stroke-width:0.264583;stroke-linecap:round;stroke-linejoin:round;stroke-dasharray:none;stroke-opacity:1"
                 d="m 106.90717,84.152463 c -0.13489,-0.899819 -0.71126,-1.719656 -0.52415,-3.909054 0.2176,-2.545669 1.42715,-6.441442 2.23214,-7.757545 2.0836,-3.406511 4.57098,-4.53824 6.67769,-4.426501 1.82635,0.09687 2.94114,0.85256 3.63567,3.729903 0.13358,0.553416 0.52237,2.958387 0.60026,5.524342 0.0527,1.736298 -0.0681,3.316993 -0.20172,4.719265 -0.1759,1.846378 -0.77721,3.427544 -1.60404,4.518951 -0.82682,1.091409 -3.78201,2.172298 -4.97263,2.172298 -1.19063,0 -2.96488,-0.435967 -3.94879,-1.287594 -1.28132,-1.075481 -1.75953,-2.384246 -1.89443,-3.284065 z"
                 id="path130"
                 sodipodi:nodetypes="zsssssssszz"
                 inkscape:label="Iris" /><path
                 style="fill:#000000;fill-opacity:1;stroke:#000000;stroke-width:0.264583;stroke-linecap:round;stroke-linejoin:round;stroke-dasharray:none;stroke-opacity:1"
                 d="m 108.26835,85.021701 c -0.0553,-0.609013 -0.17241,-2.500537 0.0147,-4.689935 0.2176,-2.545669 1.3243,-5.43158 2.11805,-6.754496 0.79375,-1.322917 3.04962,-4.306729 5.15633,-4.19499 1.82635,0.09687 3.13958,1.480945 3.37109,2.406986 0.13808,0.552311 0.52237,2.958387 0.60026,5.524342 0.0527,1.736298 -0.0681,3.316993 -0.20172,4.719265 -0.1759,1.846378 -0.77721,3.427544 -1.60404,4.518951 -0.82682,1.091409 -3.78201,2.172298 -4.97263,2.172298 -1.19063,0 -2.99794,-0.502112 -3.53538,-1.023011 -0.53743,-0.520898 -0.8914,-2.070397 -0.94669,-2.67941 z"
                 id="path131"
                 sodipodi:nodetypes="zsssssssszzz"
                 inkscape:label="Black" /><path
                 style="display:inline;fill:#ffffff;fill-opacity:1;stroke:#ffffff;stroke-width:0.264583;stroke-linecap:round;stroke-linejoin:miter;stroke-dasharray:none;stroke-opacity:1"
                 d="m 114.52891,77.309446 c 0,0 0.96283,0.579262 1.05759,0.974552 0.0947,0.395279 -0.18339,1.727001 -0.18339,1.727001 0,0 0.76433,-1.147772 1.10137,-1.283991 0.33703,-0.136244 1.47477,-0.07982 1.47477,-0.07982 0,0 -0.86024,-0.668868 -0.99953,-1.036146 -0.13929,-0.367295 0.0979,-1.661772 0.0979,-1.661772 0,0 -0.76623,1.128198 -1.06026,1.284377 -0.29407,0.156161 -1.48841,0.0758 -1.48841,0.0758 z"
                 id="path132"
                 sodipodi:nodetypes="czczczczc" /><path
                 style="display:inline;fill:#ffffff;fill-opacity:1;stroke:#ffffff;stroke-width:0.17177;stroke-linecap:round;stroke-linejoin:miter;stroke-dasharray:none;stroke-opacity:1"
                 d="m 111.99608,71.180979 c 0,0 0.64087,0.25781 0.72979,0.507789 0.0889,0.24997 0.0183,1.170794 0.0183,1.170794 0,0 0.38594,-0.862707 0.58435,-0.997544 0.19843,-0.13484 0.90773,-0.247202 0.90773,-0.247202 0,0 -0.58415,-0.330814 -0.69851,-0.556327 -0.11438,-0.225526 -0.0663,-1.116224 -0.0663,-1.116224 0,0 -0.38855,0.849986 -0.55885,0.992384 -0.17029,0.142408 -0.91649,0.24633 -0.91649,0.24633 z"
                 id="path133"
                 sodipodi:nodetypes="czczczczc" /><path
                 style="display:inline;fill:#ffffff;fill-opacity:1;stroke:#ffffff;stroke-width:0.510547;stroke-linecap:round;stroke-linejoin:miter;stroke-dasharray:none;stroke-opacity:1"
                 d="m 107.80201,84.274639 c 0,0 1.81524,-0.959441 2.5532,-0.681377 0.73791,0.278089 2.69201,2.205877 2.69201,2.205877 0,0 -1.2169,-2.531827 -1.14203,-3.240907 0.0749,-0.709133 1.18148,-2.534425 1.18148,-2.534425 0,0 -1.87203,0.690591 -2.6033,0.51722 -0.73135,-0.173349 -2.66031,-1.992208 -2.66031,-1.992208 0,0 1.18302,2.513337 1.17926,3.173142 -0.004,0.659792 -1.20026,2.552623 -1.20026,2.552623 z"
                 id="path134"
                 sodipodi:nodetypes="czczczczc" /><path
                 style="display:inline;fill:#000000;fill-opacity:1;stroke:#000000;stroke-width:0.264583;stroke-linecap:round;stroke-linejoin:round;stroke-dasharray:none;stroke-opacity:1"
                 d="m 103.91511,81.160939 c 1.68671,-1.190625 1.73952,-2.014344 1.71979,-3.538802 -0.0415,-3.204779 1.12448,-6.250781 1.98437,-7.639844 0.9368,-1.513309 2.58649,-3.595273 4.63021,-4.134114 1.53041,-0.403503 2.2039,-0.485545 3.77031,0.297656 1.12449,0.562239 2.18282,2.778125 2.18282,2.778125 0,0 -1.75287,-2.215886 -3.34037,-2.215886 -1.5875,0 -2.48046,0.03307 -3.77031,1.025261 -1.07575,0.827495 -2.14974,1.885156 -2.87734,3.141927 -0.7276,1.256771 -1.38906,2.844271 -1.48829,4.431771 -0.0998,1.596739 -0.033,4.564062 -0.69452,5.159375 -0.50141,0.451241 -2.11667,0.694531 -2.11667,0.694531 z"
                 id="path135"
                 sodipodi:nodetypes="csssscsssssc"
                 inkscape:label="Lashes" /></g><g
               id="g114"
               inkscape:label="Mouth"
               style="display:inline"><g
                 id="g115"
                 inkscape:label="Tongue"><path
                   style="fill:#d35fbc;fill-opacity:1;stroke:#800066;stroke-width:0.79375;stroke-linecap:round;stroke-linejoin:round;stroke-dasharray:none;stroke-opacity:1"
                   d="m 108.05822,90.774785 c 0,0 -2.26016,0.695823 -4.08969,2.596426 -1.43094,1.486533 -2.30238,4.326189 -0.91332,5.979835 1.38906,1.653644 2.4474,1.455204 3.77031,1.124474 1.32292,-0.33072 1.25678,-2.381245 1.19063,-3.241141 -0.16618,-2.160336 1.45922,-4.189885 1.45922,-4.189885"
                   id="path113"
                   sodipodi:nodetypes="cssssc" /><path
                   style="display:inline;fill:#d35fbc;fill-opacity:1;stroke:#800066;stroke-width:0.529167;stroke-linecap:round;stroke-linejoin:round;stroke-dasharray:none;stroke-opacity:1"
                   d="m 108.79206,91.907311 c -0.98221,0.374179 -1.77978,1.248501 -2.43215,1.824117 -0.79513,0.701582 -1.26285,2.198291 -1.26285,2.198291"
                   id="path114"
                   sodipodi:nodetypes="csc" /></g><path
                 style="fill:none;fill-opacity:1;stroke:#aa0000;stroke-width:0.79375;stroke-linecap:round;stroke-linejoin:round;stroke-dasharray:none;stroke-opacity:1;marker-start:url(#SemiCircleEmpty);marker-end:url(#SemiCircleEmpty)"
                 d="m 107.35469,89.164588 c 0,0 4.96094,11.377082 13.55989,11.773962 8.59896,0.39687 14.88282,-10.649483 15.1474,-11.9724"
                 id="path110"
                 sodipodi:nodetypes="csc"
                 inkscape:label="Lips" /></g><g
               id="g113"
               inkscape:label="Nose"
               style="display:inline"><path
                 style="fill:none;fill-opacity:1;stroke:#aa0000;stroke-width:0.79375;stroke-linecap:round;stroke-linejoin:round;stroke-dasharray:none;stroke-opacity:1"
                 d="m 118.26738,88.581313 c 0.91985,-0.600701 2.11005,-0.938785 3.77031,-0.946107 1.79262,-0.0079 3.42893,0.922721 3.42893,0.922721"
                 id="path111"
                 sodipodi:nodetypes="csc" /><path
                 style="fill:none;fill-opacity:1;stroke:#aa0000;stroke-width:0.529167;stroke-linecap:round;stroke-linejoin:round;stroke-dasharray:none;stroke-opacity:1"
                 d="m 117.89028,90.385306 c 0.25214,0.44227 1.03798,1.13216 1.68671,1.223698"
                 id="path112"
                 sodipodi:nodetypes="cc" /><path
                 style="fill:none;fill-opacity:1;stroke:#aa0000;stroke-width:0.529167;stroke-linecap:round;stroke-linejoin:round;stroke-dasharray:none;stroke-opacity:1"
                 d="m 125.19939,90.31916 c -0.25214,0.44227 -1.03798,1.13216 -1.68671,1.223698"
                 id="path116"
                 sodipodi:nodetypes="cc" /></g></g></g></g></g></g></svg>
