<?xml version="1.0" encoding="UTF-8" standalone="no"?>
<!-- Created with Inkscape (http://www.inkscape.org/) -->

<svg
   width="222.03979"
   height="293.39334"
   viewBox="0 0 58.748027 77.626988"
   version="1.1"
   id="svg1"
   inkscape:version="1.4 (86a8ad7, 2024-10-11)"
   sodipodi:docname="GMTK2025.svg"
   xml:space="preserve"
   inkscape:export-filename="Minigames\Pony\MG_Pony_BG.svg"
   inkscape:export-xdpi="96"
   inkscape:export-ydpi="96"
   xmlns:inkscape="http://www.inkscape.org/namespaces/inkscape"
   xmlns:sodipodi="http://sodipodi.sourceforge.net/DTD/sodipodi-0.dtd"
   xmlns="http://www.w3.org/2000/svg"
   xmlns:svg="http://www.w3.org/2000/svg"><sodipodi:namedview
     id="namedview1"
     pagecolor="#ffffff"
     bordercolor="#000000"
     borderopacity="0.25"
     inkscape:showpageshadow="2"
     inkscape:pageopacity="0.0"
     inkscape:pagecheckerboard="true"
     inkscape:deskcolor="#d1d1d1"
     inkscape:document-units="px"
     inkscape:zoom="0.70710675"
     inkscape:cx="495.68188"
     inkscape:cy="400.92956"
     inkscape:window-width="1920"
     inkscape:window-height="1001"
     inkscape:window-x="-9"
     inkscape:window-y="-9"
     inkscape:window-maximized="1"
     inkscape:current-layer="g105"><inkscape:page
       x="0"
       y="0"
       width="58.748028"
       height="77.626991"
       id="page2"
       margin="0"
       bleed="0" /></sodipodi:namedview><defs
     id="defs1"><clipPath
       clipPathUnits="userSpaceOnUse"
       id="clipPath20"><rect
         style="display:inline;fill:#cede68;fill-opacity:1;stroke:#cede68;stroke-width:1.05833;stroke-linecap:square;stroke-linejoin:miter;stroke-dasharray:none;stroke-opacity:1"
         id="rect21"
         width="219.64212"
         height="123.8527"
         x="38.914444"
         y="19.8314"
         inkscape:label="BG"
         inkscape:export-filename="Minigames\Horseshoe\MG_Hshoe_BG.svg"
         inkscape:export-xdpi="96"
         inkscape:export-ydpi="96" /></clipPath></defs><g
     id="layer5"
     inkscape:label="Mini-games"
     clip-path="url(#clipPath20)"
     transform="translate(-160.4878,-51.071056)"><g
       inkscape:groupmode="layer"
       id="layer6"
       inkscape:label="Feeding"
       style="display:inline"><g
         id="g147"
         inkscape:label="Cupcake"><g
           id="g153"
           inkscape:label="Bottom"
           transform="matrix(1.00217,0,0,0.82627914,-0.41004084,17.512897)"><path
             style="fill:#d38d5f;fill-opacity:1;stroke:#a05a2c;stroke-width:1.05002;stroke-linecap:round;stroke-linejoin:miter;stroke-dasharray:none;stroke-opacity:1"
             d="m 164.82985,101.59576 5.46781,28.05365 c 0,0 6.76192,4.64064 17.43716,4.37598 10.67526,-0.26465 19.14596,-3.14393 19.14596,-3.14393 l 6.19117,-29.78305 z"
             id="path146"
             sodipodi:nodetypes="ccsccc" /><path
             style="fill:#d38d5f;fill-opacity:1;stroke:#a05a2c;stroke-width:1.05833;stroke-linecap:round;stroke-linejoin:miter;stroke-dasharray:none;stroke-opacity:1"
             d="M 174.74082,131.33625 171.37323,109.0727"
             id="path147" /><path
             style="fill:#d38d5f;fill-opacity:1;stroke:#a05a2c;stroke-width:1.05833;stroke-linecap:round;stroke-linejoin:miter;stroke-dasharray:none;stroke-opacity:1"
             d="m 180.72766,133.20714 -3.74177,-20.57976"
             id="path148" /><path
             style="fill:#d38d5f;fill-opacity:1;stroke:#a05a2c;stroke-width:1.05833;stroke-linecap:round;stroke-linejoin:miter;stroke-dasharray:none;stroke-opacity:1"
             d="m 188.02412,133.58131 1.30962,-17.77342"
             id="path149" /><path
             style="fill:#d38d5f;fill-opacity:1;stroke:#a05a2c;stroke-width:1.05833;stroke-linecap:round;stroke-linejoin:miter;stroke-dasharray:none;stroke-opacity:1"
             d="m 197.93982,132.45878 1.6838,-18.1476"
             id="path150" /><path
             style="fill:#d38d5f;fill-opacity:1;stroke:#a05a2c;stroke-width:1.05833;stroke-linecap:round;stroke-linejoin:miter;stroke-dasharray:none;stroke-opacity:1"
             d="m 203.92666,131.33625 0.93544,-23.199"
             id="path151" /><path
             style="fill:#d38d5f;fill-opacity:1;stroke:#a05a2c;stroke-width:1.05833;stroke-linecap:round;stroke-linejoin:miter;stroke-dasharray:none;stroke-opacity:1"
             d="m 193.82387,111.13067 -1.87089,22.07647"
             id="path152" /><path
             style="fill:#d38d5f;fill-opacity:1;stroke:#a05a2c;stroke-width:1.05833;stroke-linecap:round;stroke-linejoin:miter;stroke-dasharray:none;stroke-opacity:1"
             d="m 183.90817,133.95549 -0.93545,-21.14102"
             id="path153" /></g><g
           id="g154"
           inkscape:label="Top"><path
             style="display:inline;fill:#ffaaee;fill-opacity:1;stroke:#d35fbc;stroke-width:1.05833;stroke-linecap:round;stroke-linejoin:miter;stroke-dasharray:none;stroke-opacity:1"
             d="m 161.08335,93.544339 c -0.37418,10.102781 0.93544,9.354431 4.11595,10.851141 3.18051,1.49671 5.61266,2.24506 9.54152,1.30962 3.92887,-0.93544 4.86431,-5.23848 8.60608,-5.799747 3.74177,-0.561266 -6.92228,1.683797 -0.74835,4.115947 6.17392,2.43216 12.90912,-3.55468 12.90912,-3.55468 0,0 -5.23849,3.55468 1.68379,4.11595 6.92228,0.56127 13.65748,-4.864306 13.65748,-4.864306 0,0 -3.3676,-0.18709 1.12253,1.496706 4.49013,1.6838 6.73519,-0.37417 6.73519,-3.367594 0,-2.993419 0,-10.664055 -2.99342,-10.664055 -2.99342,0 -6.92228,-0.187086 -6.92228,-0.187086 0,0 2.24506,-8.606081 -1.6838,-11.412411 -3.92886,-2.806329 -10.85114,0.374179 -10.85114,0.374179 0,0 2.80633,-5.425572 -2.05798,-8.606081 -4.8643,-3.180506 -11.78658,-5.425569 -10.28987,-7.296456 1.49671,-1.870888 4.49013,-7.857726 4.49013,-7.857726 0,0 -9.16735,4.303041 -10.85115,8.980257 -1.6838,4.677217 -3.36759,8.044813 -3.1805,9.541523 0.18708,1.496709 3.1805,1.870885 3.1805,1.870885 0,0 -5.05139,-1.309619 -8.41899,2.432153 -3.36759,3.741775 0,8.793168 0,8.793168 0,0 -7.10937,1.309621 -8.04481,9.728613 z"
             id="path154" /><path
             style="fill:#ffaaee;fill-opacity:1;stroke:#d35fbc;stroke-width:1.05833;stroke-linecap:round;stroke-linejoin:miter;stroke-dasharray:none;stroke-opacity:1"
             d="m 208.41678,86.996235 c -4.30304,1.496708 -6.36101,3.367595 -15.34127,3.928861 -8.98025,0.561266 -22.45064,-1.309621 -22.45064,-1.309621"
             id="path155" /><path
             style="fill:#ffaaee;fill-opacity:1;stroke:#d35fbc;stroke-width:1.05833;stroke-linecap:round;stroke-linejoin:miter;stroke-dasharray:none;stroke-opacity:1"
             d="m 169.31525,83.815726 c 17.39925,0.748355 22.45064,-0.561266 24.32153,-1.122532"
             id="path156" /><path
             style="fill:#ffaaee;fill-opacity:1;stroke:#d35fbc;stroke-width:1.05833;stroke-linecap:round;stroke-linejoin:miter;stroke-dasharray:none;stroke-opacity:1"
             d="m 176.05044,72.403318 c 4.49013,0.187087 11.03823,2.245064 11.03823,2.245064"
             id="path157" /><g
             id="g164"
             inkscape:label="Sprinkles"><path
               style="fill:none;fill-opacity:1;stroke:#2ad4ff;stroke-width:1.05833;stroke-linecap:round;stroke-linejoin:miter;stroke-dasharray:none;stroke-opacity:1"
               d="m 173.33914,96.538609 c -0.46905,1.964122 -1.59298,4.021331 -2.52867,4.394881"
               id="path180" /><path
               style="fill:none;fill-opacity:1;stroke:#ffd42a;stroke-width:1.05833;stroke-linecap:round;stroke-linejoin:miter;stroke-dasharray:none;stroke-opacity:1"
               d="m 189.59697,65.143914 c -0.37334,1.984542 -1.39627,4.093793 -2.31277,4.512235"
               id="path181" /><path
               style="fill:none;fill-opacity:1;stroke:#00ff66;stroke-width:1.05833;stroke-linecap:round;stroke-linejoin:miter;stroke-dasharray:none;stroke-opacity:1"
               d="m 182.9136,69.41475 c -1.99475,0.314257 -4.32496,0.05843 -5.02669,-0.664513"
               id="path182" /><path
               style="fill:none;fill-opacity:1;stroke:#2ad4ff;stroke-width:1.05833;stroke-linecap:round;stroke-linejoin:miter;stroke-dasharray:none;stroke-opacity:1"
               d="m 172.02803,75.022557 c 1.96444,0.467723 4.02241,1.590254 4.39659,2.525699"
               id="path183" /><path
               style="fill:none;fill-opacity:1;stroke:#2ad4ff;stroke-width:1.05833;stroke-linecap:round;stroke-linejoin:miter;stroke-dasharray:none;stroke-opacity:1"
               d="m 195.41741,73.673762 c 1.51802,1.331694 2.81266,3.285981 2.70621,4.287847"
               id="path184" /><path
               style="fill:none;fill-opacity:1;stroke:#2ad4ff;stroke-width:1.05833;stroke-linecap:round;stroke-linejoin:miter;stroke-dasharray:none;stroke-opacity:1"
               d="m 202.24285,92.234715 c 1.96444,0.467723 4.02241,1.590254 4.39659,2.525699"
               id="path185" /><path
               style="fill:none;fill-opacity:1;stroke:#2ad4ff;stroke-width:1.05833;stroke-linecap:round;stroke-linejoin:miter;stroke-dasharray:none;stroke-opacity:1"
               d="m 185.59196,77.828887 c 1.96444,0.467723 4.02241,1.590254 4.39659,2.525699"
               id="path186" /><path
               style="fill:none;fill-opacity:1;stroke:#2ad4ff;stroke-width:1.05833;stroke-linecap:round;stroke-linejoin:miter;stroke-dasharray:none;stroke-opacity:1"
               d="m 181.0995,63.551962 c -0.81653,-1.846909 -1.16838,-4.164562 -0.65015,-5.028565"
               id="path187" /><path
               style="fill:none;fill-opacity:1;stroke:#ffd42a;stroke-width:1.05833;stroke-linecap:round;stroke-linejoin:miter;stroke-dasharray:none;stroke-opacity:1"
               d="m 200.65647,99.306896 c -1.27557,-1.56547 -2.22739,-3.707754 -1.9559,-4.677991"
               id="path188" /><path
               style="fill:none;fill-opacity:1;stroke:#ffd42a;stroke-width:1.05833;stroke-linecap:round;stroke-linejoin:miter;stroke-dasharray:none;stroke-opacity:1"
               d="m 180.70263,86.747843 c -1.61376,-1.213904 -3.05153,-3.065428 -3.02064,-4.072458"
               id="path189" /><path
               style="fill:none;fill-opacity:1;stroke:#ffd42a;stroke-width:1.05833;stroke-linecap:round;stroke-linejoin:miter;stroke-dasharray:none;stroke-opacity:1"
               d="m 211.97531,89.800654 c 1.33257,1.517244 2.36294,3.622875 2.1275,4.602486"
               id="path190" /><path
               style="fill:none;fill-opacity:1;stroke:#ffd42a;stroke-width:1.05833;stroke-linecap:round;stroke-linejoin:miter;stroke-dasharray:none;stroke-opacity:1"
               d="m 185.31526,95.702722 c -1.39817,1.457019 -3.40834,2.663067 -4.40445,2.511969"
               id="path191" /><path
               style="fill:none;fill-opacity:1;stroke:#ffd42a;stroke-width:1.05833;stroke-linecap:round;stroke-linejoin:miter;stroke-dasharray:none;stroke-opacity:1"
               d="m 193.64071,85.693478 c -1.39817,1.457019 -3.40834,2.663067 -4.40445,2.511969"
               id="path192" /><path
               style="fill:none;fill-opacity:1;stroke:#00ff66;stroke-width:1.05833;stroke-linecap:round;stroke-linejoin:miter;stroke-dasharray:none;stroke-opacity:1"
               d="m 175.12779,79.390203 c -0.56354,1.939126 -1.78569,3.939541 -2.73837,4.267373"
               id="path193" /><path
               style="fill:none;fill-opacity:1;stroke:#00ff66;stroke-width:1.05833;stroke-linecap:round;stroke-linejoin:miter;stroke-dasharray:none;stroke-opacity:1"
               d="m 204.78134,79.951469 c -0.56354,1.939126 -1.78569,3.939541 -2.73837,4.267373"
               id="path194" /><path
               style="fill:none;fill-opacity:1;stroke:#00ff66;stroke-width:1.05833;stroke-linecap:round;stroke-linejoin:miter;stroke-dasharray:none;stroke-opacity:1"
               d="m 167.08297,86.780206 c -0.56354,1.939126 -1.78569,3.939541 -2.73837,4.267373"
               id="path195" /><path
               style="fill:none;fill-opacity:1;stroke:#00ff66;stroke-width:1.05833;stroke-linecap:round;stroke-linejoin:miter;stroke-dasharray:none;stroke-opacity:1"
               d="m 164.77546,98.976879 c -1.18151,-1.637621 -2.00598,-3.832059 -1.67803,-4.784701"
               id="path196" /><path
               style="fill:none;fill-opacity:1;stroke:#00ff66;stroke-width:1.05833;stroke-linecap:round;stroke-linejoin:miter;stroke-dasharray:none;stroke-opacity:1"
               d="m 179.74231,92.721366 c -1.98384,0.377041 -4.32095,0.194868 -5.04515,-0.505573"
               id="path197" /><path
               style="fill:none;fill-opacity:1;stroke:#00ff66;stroke-width:1.05833;stroke-linecap:round;stroke-linejoin:miter;stroke-dasharray:none;stroke-opacity:1"
               d="m 188.78876,92.501387 c 2.01348,0.153996 4.22197,0.940045 4.73817,1.805271"
               id="path198" /></g></g></g></g></g></svg>
