<?xml version="1.0" encoding="UTF-8" standalone="no"?>
<svg
   version="1.1"
   viewBox="-5 -10 70.285645 90.622436"
   id="svg9"
   sodipodi:docname="Gnome.svg"
   width="70.285645"
   height="90.622437"
   xmlns:inkscape="http://www.inkscape.org/namespaces/inkscape"
   xmlns:sodipodi="http://sodipodi.sourceforge.net/DTD/sodipodi-0.dtd"
   xmlns="http://www.w3.org/2000/svg"
   xmlns:svg="http://www.w3.org/2000/svg">
  <defs
     id="defs9" />
  <sodipodi:namedview
     id="namedview9"
     pagecolor="#ffffff"
     bordercolor="#000000"
     borderopacity="0.25"
     inkscape:showpageshadow="2"
     inkscape:pageopacity="0.0"
     inkscape:pagecheckerboard="0"
     inkscape:deskcolor="#d1d1d1">
    <inkscape:page
       x="0"
       y="0"
       width="70.285645"
       height="90.622437"
       id="page1"
       margin="0"
       bleed="0" />
  </sodipodi:namedview>
  <path
     d="m 11.04308,33.286656 c 0,4.0781 0.9453,7.6328 2.8242,10.598 6.9258,-11.938 25.633,-11.938 32.562,0 1.8789,-2.9688 2.8281,-6.5195 2.8281,-10.594 v -6.4492 c -12.715,-1.0664 -25.5,-1.0664 -38.211,0 z m 22.418,-3.8906 c 0,-2.0664 3.125,-2.0664 3.125,0 v 2.7227 c 0,2.0664 -3.125,2.0664 -3.125,0 z m -9.7656,0 c 0,-2.0664 3.125,-2.0664 3.125,0 v 2.7227 c 0,2.0664 -3.125,2.0664 -3.125,0 z"
     id="path1"
     style="fill:#ffffff" />
  <path
     d="m 52.38308,27.129656 v 6.1562 c 0,5.7109 -1.7422,10.766 -5.0469,14.617 v 0 c -0.3555,0.418 -0.9062,0.6133 -1.4453,0.5235 -0.539,-0.09 -0.9922,-0.461 -1.1914,-0.9688 -4.9219,-12.531 -24.168,-12.531 -29.086,0 v 0 c -0.1992,0.5078 -0.6523,0.8789 -1.1914,0.9688 -0.543,0.09 -1.0898,-0.1055 -1.4453,-0.5235 -3.3046999,-3.8477 -5.0507999,-8.8984 -5.0468999,-14.617 v -6.1523 c -4.1914,0.4258 -4.5742,0.5625 -5.1016,0.5625 v 9.5703 c 0,13.789 9.5468999,26.441 23.1639999,31.25 2.6914,0.9493 5.6289,0.9493 8.3164,0 13.617,-4.8086 23.168,-17.461 23.168,-31.25 v -9.5703 c -0.4492,0 -1.3477,-0.1796 -5.082,-0.5625 z m -17.719,16.406 v 0 c -2.4961,2.4961 -6.543,2.4961 -9.043,0 -1.4609,-1.4609 0.75,-3.6719 2.2109,-2.2109 v 0 c 0.6133,0.6133 1.4453,0.9571 2.3125,0.9571 0.8672,0 1.6992,-0.3438 2.3125,-0.9571 1.4609,-1.457 3.6719,0.754 2.207,2.2109 z"
     id="path2"
     style="fill:#ffffff" />
  <path
     d="m -0.30791991,27.137656 v 8.8594 c -1.92189999,-1.5781 -3.45699999,-3.5781 -4.48049999,-5.8438 -0.7812,-1.7344 0.7188,-3.6641 2.582,-3.2734 v 0 c 0.6289,0.129 1.26559999,0.211 1.90229999,0.2579 z"
     id="path3"
     style="fill:#ffffff" />
  <path
     d="m 65.07108,30.153656 c -1.0273,2.2695 -2.5664,4.2656 -4.4922,5.8438 v -8.8594 c 0.6406,-0.047 1.2734,-0.1289 1.9023,-0.2578 1.875,-0.3867 3.3789,1.5391 2.5898,3.2734 z"
     id="path4"
     style="fill:#ffffff" />
  <path
     d="m 9.3640801,61.223656 c -3.4414,1.8203 -6.3203,4.5469 -8.3281,7.8789 -2.00780001,3.3359 -3.0703,7.1562 -3.0703,11.051 v 0.4688 H 24.36768 v -9.375 c -5.7227,-2.1055 -10.867,-5.543 -15.0079999,-10.023 z"
     id="path5"
     style="fill:#ffffff" />
  <path
     d="m 27.49308,72.114656 v 8.5078 h 5.3125 v -8.5156 c -1.7578,0.3047 -3.5508,0.3047 -5.3125,0.01 z"
     id="path6"
     style="fill:#ffffff" />
  <path
     d="m 50.92208,61.223656 c -4.1367,4.4727 -9.2734,7.9023 -14.992,10.008 v 9.3906 h 26.387 v -0.4687 c 0,-3.8945 -1.0625,-7.7148 -3.0703,-11.051 -2.0078,-3.332 -4.8867,-6.0586 -8.3242,-7.8789 z"
     id="path7"
     style="fill:#ffffff" />
  <path
     d="m 57.46508,24.567656 c 0,0 -0.6601,-22.6720005 -21.949,-33.3050005 -3.3828,-1.6835995 -7.3594,-1.6835995 -10.742,0 C 3.4770801,1.8956555 2.8170801,24.567656 2.8170801,24.567656 c 17.1519999,-2.1797 36.8749999,-2.2578 54.6479999,0 z"
     id="path8"
     style="fill:#ffffff" />
</svg>
