<?xml version="1.0" encoding="UTF-8" standalone="no"?>
<svg
   viewBox="0 0 89.350006 69.350098"
   x="0px"
   y="0px"
   version="1.1"
   id="svg11"
   sodipodi:docname="Racer.svg"
   width="89.350006"
   height="69.350098"
   inkscape:version="1.4 (86a8ad7, 2024-10-11)"
   xmlns:inkscape="http://www.inkscape.org/namespaces/inkscape"
   xmlns:sodipodi="http://sodipodi.sourceforge.net/DTD/sodipodi-0.dtd"
   xmlns="http://www.w3.org/2000/svg"
   xmlns:svg="http://www.w3.org/2000/svg">
  <defs
     id="defs11" />
  <sodipodi:namedview
     id="namedview11"
     pagecolor="#ffffff"
     bordercolor="#000000"
     borderopacity="0.25"
     inkscape:showpageshadow="2"
     inkscape:pageopacity="0.0"
     inkscape:pagecheckerboard="0"
     inkscape:deskcolor="#d1d1d1"
     inkscape:zoom="4.0876176"
     inkscape:cx="-422.61781"
     inkscape:cy="-1882.1477"
     inkscape:window-width="1920"
     inkscape:window-height="1001"
     inkscape:window-x="-9"
     inkscape:window-y="-9"
     inkscape:window-maximized="1"
     inkscape:current-layer="svg11">
    <inkscape:page
       x="0"
       y="0"
       width="89.350006"
       height="69.350098"
       id="page1"
       margin="0"
       bleed="0" />
  </sodipodi:namedview>
  <path
     d="m 52.45001,48.970045 c 0,0 -0.06,-0.07 -0.08,-0.11 -0.17,-0.27 -0.33,-0.53 -0.47,-0.8 h -4.41 v 0.25 c 0,1.43 -0.28,2.79 -0.77,4.04 h 7.36 c -0.25,-1.86 -1.53,-3.29 -1.62,-3.39 z"
     id="path1"
     style="fill:#ffffff"
     inkscape:export-filename="Racer.svg"
     inkscape:export-xdpi="96"
     inkscape:export-ydpi="96" />
  <path
     d="m 21.35001,28.620045 c -10.44,0.43 -15.7700002,7.47 -18.4900002,14.54 3.03,-2.94 11.6100002,-9.88 23.2900002,-7.88 7.05,1.21 11.93,0.75 15.03,0.02 -0.68,-0.91 -1.31,-2 -1.86,-3.31 -0.91,-2.16 -1.3,-4.07 -1.21,-5.71 -3.69,1.08 -9.04,2.03 -16.76,2.34 z"
     id="path2"
     style="fill:#ffffff" />
  <path
     d="m 45.98001,48.320045 v -9.36 c -1.28,-0.49 -2.53,-1.24 -3.68,-2.38 -3.24,0.89 -8.53,1.53 -16.41,0.18 -13.75,-2.35 -22.9900002,8.5 -23.0800002,8.61 -0.15,0.18 -0.36,0.27 -0.58,0.27 -0.07,0 -0.15,-0.02 -0.22,-0.04 -1.98999998,6.48 -2.0099999796223,12.33 -2.0099999796223,12.33 H 8.1200098 c -0.1,-0.69 -0.17,-1.4 -0.17,-2.12 0,-8.29 6.7400002,-15.03 15.0300002,-15.03 8.29,0 15.03,6.74 15.03,15.03 0,0.68 -0.06,1.34 -0.15,1.99 4.6,-0.73 8.12,-4.7 8.12,-9.5 z"
     id="path3"
     style="fill:#ffffff" />
  <path
     d="m 40.71001,31.410045 c 2.53,6.02 6.75,6.91 10.75,6.91 0.07,0 0.14,0 0.22,0 0.71,-1.3 1.65,-2.38 2.63,-3.22 -1.76,-0.79 -5.16,-2.38 -6.12,-3.35 -1.32,-1.32 -1.4,-4.56 0.44,-5.15 1.84,-0.59 1.25,-6.62 1.25,-6.62 0,0 -2.47,1.99 -5.1,1.99 -0.09,0 -0.18,0 -0.27,0 -0.09,0 -0.17,0 -0.26,0 -2.72,0 -6.58,2.22 -3.54,9.45 z"
     id="path4"
     style="fill:#ffffff" />
  <path
     d="m 67.28001,42.590045 c -3.27,1.22 -3.93,3.66 -3.93,7.19 0,0.05 0,0.09 0,0.14 2.92,2.12 -0.46,7.17 0.22,7.37 0.78,0.22 4.39,5.75 4.39,5.75 l 1.32,0.52 -0.74,2.21 5.65,1.97 c 0,0 0.74,-3.16 -1.1,-5.96 -1.84,-2.8 -5.66,-4.05 -4.86,-5.81 1.38,-3.02 1.77,-10.52 1.62,-11.84 -0.06,-0.52 -0.75,-1.24 -1.6,-1.94 -0.34,0.15 -0.67,0.29 -0.97,0.41 z"
     id="path5"
     style="fill:#ffffff" />
  <path
     d="m 60.13001,21.780045 c -2.33,-3.67 -3.81,-8.56 -1.95,-13.0100007 1.37,-3.29 3.14,-6.31 6.54,-7.03 l -0.88,-1.740000005273 c 0,0 -9.29,0.559999995273 -11.17,7.400000005273 -1.88,6.8400007 2.91,16.6600007 2.91,16.6600007 l 4.55,-2.29 z"
     id="path6"
     style="fill:#ffffff" />
  <path
     d="m 79.57001,28.090045 c 0.18,2.07 -0.48,4.07 -1.6,5.9 2.16,-0.6 6.03,-2.81 6.33,-4.07 0.37,-1.54 2.8,-4.56 2.43,-5.52 -0.37,-0.96 -1.4,-1.69 -2.35,-1.69 -0.55,0 -3.11,1.33 -5.26,2.48 0.21,0.85 0.37,1.81 0.46,2.9 z"
     id="path7"
     style="fill:#ffffff" />
  <path
     d="m 36.51001,55.820045 c 0,-7.47 -6.06,-13.53 -13.53,-13.53 -7.47,0 -13.5300002,6.06 -13.5300002,13.53 0,7.47 6.0600002,13.53 13.5300002,13.53 7.47,0 13.53,-6.06 13.53,-13.53 z m -13.53,6.16 c -3.4,0 -6.16,-2.76 -6.16,-6.16 0,-3.4 2.76,-6.16 6.16,-6.16 3.4,0 6.16,2.76 6.16,6.16 0,3.4 -2.76,6.16 -6.16,6.16 z"
     id="path8"
     style="fill:#ffffff" />
  <path
     d="m 27.64001,55.820045 c 0,-2.57 -2.09,-4.66 -4.66,-4.66 -2.57,0 -4.66,2.09 -4.66,4.66 0,2.57 2.09,4.66 4.66,4.66 2.57,0 4.66,-2.09 4.66,-4.66 z"
     id="path9"
     style="fill:#ffffff" />
  <path
     d="m 52.80001,39.360045 c -1.33,2.69 -1.05,5.68 0.8,8.64 1.48,1.65 3.38,5.47 0.57,8.81 0.48,1.72 1.81,6.51 1.99,8.4 0.83,0.47 2.24,1.46 2.11,2.64 -0.03,0.3 -0.02,0.54 0.01,0.71 l 4.95,0.03 -1.73,-2.4 c -0.41,-0.33 -1.95,-1.68 -2.29,-3.48 -0.12,-0.62 -0.55,-1.57 -0.97,-2.49 -0.87,-1.91 -1.56,-3.41 -0.66,-4.18 l 0.16,-0.13 c 2.72,-2.3 4.1,-4.36 4.1,-6.14 0,-3.52 0.59,-6.99 4.9,-8.6 4.02,-1.5 11.63,-6.93 11.32,-12.76 -0.07,0.16 -0.15,0.31 -0.23,0.43 -1.12,1.66 -6.32,1.82 -8.3,1.82 -0.1,0 -0.19,0 -0.27,0 -0.41,0 -0.75,-0.34 -0.74,-0.76 0.01,-0.42 0.35,-0.74 0.76,-0.74 3.14,0.02 6.83,-0.44 7.32,-1.16 0.87,-1.28 1.5,-7.72 1.5,-8.47 0,-1.08 2.53,-2.05 3.62,-2.42 1.85,-0.63 2.95,-0.6 3.46,0.07 0.67,0.87 0.74,0.96 2.37,1.66 0.79,0.34 1.41,0.3 1.8,0.21 -0.51,-1.74 -1.79,-4.77 -3.65,-4.77 0,0 -0.02,0 -0.03,0 -1.9,0.03 -4.06,0.58 -5.8,1.03 -1.15,0.29 -2.06,0.52 -2.71,0.57 -0.51,0.24 -1.47,2.89 -1.93,4.16 -0.75,2.06 -1.1,2.98 -1.68,3.31 -0.32,0.18 -0.72,0.1 -0.95,-0.19 -0.04,-0.05 -1.11,-1.34 -2.78,-1.21 -0.41,0.03 -0.77,-0.28 -0.81,-0.69 -0.03,-0.41 0.28,-0.77 0.69,-0.81 1.51,-0.12 2.67,0.54 3.36,1.09 0.19,-0.45 0.43,-1.11 0.65,-1.71 -0.02,-0.01 -0.05,-0.03 -0.07,-0.04 -0.4,-0.24 -0.88,-0.48 -1.45,-0.76 -1.82,-0.89 -4.54,-2.22 -6.74,-4.56 -0.52,-0.12 -0.98,-0.31 -1.37,-0.56 -1.1,-0.71 -1.26,-1.66 -1.28,-1.77 -0.06,-0.41 0.23,-0.79 0.64,-0.85 0.4,-0.06 0.78,0.22 0.84,0.62 0,0.04 0.11,0.44 0.67,0.77 0.71,0.42 2.56,0.94 6.91,-0.37 0.14,-0.04 0.28,-0.04 0.42,0 l 2.53,0.71 1.48,-2.91 -3.95,-2.5000007 c -0.07,-0.05 -0.14,-0.11 -0.19,-0.18 -1.3,-1.69 -3.62,-4.13 -4.71,-4.27 -3.66,-0.49 -5.8,1.19 -7.89,6.2 -1.94,4.6400007 0.32,9.9500007 3.07,13.3700007 1.33,1.65 1.41,4.19 0.23,6.97 -0.99,2.34 -2.93,4.8 -4.71,4.96 -1.08,0.1 -3.94,1.85 -5.36,4.72 z"
     id="path10"
     style="fill:#ffffff" />
</svg>
