<?xml version="1.0" encoding="UTF-8" standalone="no"?>
<!-- Created with Inkscape (http://www.inkscape.org/) -->

<svg
   width="120.81057"
   height="84.3498"
   viewBox="0 0 31.964462 22.317551"
   version="1.1"
   id="svg5"
   inkscape:version="1.2.2 (732a01da63, 2022-12-09)"
   sodipodi:docname="GMTK2025.svg"
   xml:space="preserve"
   xmlns:inkscape="http://www.inkscape.org/namespaces/inkscape"
   xmlns:sodipodi="http://sodipodi.sourceforge.net/DTD/sodipodi-0.dtd"
   xmlns="http://www.w3.org/2000/svg"
   xmlns:svg="http://www.w3.org/2000/svg"><sodipodi:namedview
     id="namedview7"
     pagecolor="#ffffff"
     bordercolor="#000000"
     borderopacity="0.25"
     inkscape:showpageshadow="2"
     inkscape:pageopacity="0.0"
     inkscape:pagecheckerboard="true"
     inkscape:deskcolor="#d1d1d1"
     inkscape:document-units="px"
     showgrid="false"
     inkscape:zoom="2.3533766"
     inkscape:cx="273.64936"
     inkscape:cy="468.68826"
     inkscape:window-width="2560"
     inkscape:window-height="1494"
     inkscape:window-x="-11"
     inkscape:window-y="-11"
     inkscape:window-maximized="1"
     inkscape:current-layer="layer1" /><defs
     id="defs2" /><g
     inkscape:groupmode="layer"
     id="layer2"
     inkscape:label="MainScreen"
     transform="translate(-97.823518,-124.56242)"><g
       inkscape:groupmode="layer"
       id="layer1"
       inkscape:label="StatusScreen"
       style="display:inline"><g
         id="g1174"
         inkscape:label="PonyStatus"
         style="display:inline;fill:#ffffff;stroke:#ffffff"
         inkscape:export-filename="Assets\PonyStatus.svg"
         inkscape:export-xdpi="96"
         inkscape:export-ydpi="96"><path
           style="fill:#ffffff;stroke:#ffffff;stroke-width:0.79375;stroke-linecap:round;stroke-linejoin:round;stroke-dasharray:none"
           d="m 118.05378,128.57096 c 0,0 1.97628,-2.76618 4.97747,-3.38997 3.00119,-0.62379 5.58932,0.23151 5.72161,0.59531 0.13229,0.3638 -2.22001,2.56728 -2.22001,2.56728 0,0 -1.16852,-0.82533 -4.44418,-0.66559 -3.27565,0.15974 -4.03489,0.89297 -4.03489,0.89297 z"
           id="path1168"
           sodipodi:nodetypes="czzczc" /><path
           style="display:inline;fill:#ffffff;stroke:#ffffff;stroke-width:0.79375;stroke-linecap:round;stroke-linejoin:round;stroke-dasharray:none"
           d="m 98.259634,142.47812 c -0.09234,-1.01909 -0.204457,-3.48801 2.110646,-4.31484 2.3151,-0.82682 4.8264,0.78431 6.81078,0.78431 1.98437,0 3.89433,-0.71934 4.98573,-1.84382 1.09141,-1.12448 3.11258,-5.05718 3.62149,-5.60585 1.05834,-1.14102 2.51354,-2.54662 5.15937,-2.84428 2.64584,-0.29765 4.90598,-0.01 6.36654,1.62058 1.53772,1.71672 2.29857,4.24986 2.01745,6.15156 -0.23074,1.56087 -1.30638,3.04271 -1.96784,3.43958 -0.66146,0.39688 -1.78594,0.89297 -1.98437,1.62058 -0.19844,0.7276 0.57878,1.70325 0.11574,1.93476 -0.46302,0.23151 -2.87734,0.62839 -4.49792,-0.24807 -1.12367,-0.60772 -3.58841,-3.20808 -3.58841,-3.20808 0,0 -0.79609,2.69296 -1.32526,3.1229 -1.12209,1.40811 -1.61623,2.03962 -4.33848,2.98731 0,0 -5.01472,0.62519 -7.73824,0.32409 -2.31773,-0.26698 -5.059261,-1.37216 -5.747226,-3.92073 z"
           id="path324"
           sodipodi:nodetypes="csssssssssssccccc"
           inkscape:export-filename="Status\Status_Pony_new.svg"
           inkscape:export-xdpi="96"
           inkscape:export-ydpi="96" /></g></g></g></svg>
