<?xml version="1.0" encoding="UTF-8" standalone="no"?>
<!-- Created with Inkscape (http://www.inkscape.org/) -->

<svg
   width="168.22382"
   height="71.687088"
   viewBox="0 0 44.509217 18.967209"
   version="1.1"
   id="svg5"
   inkscape:version="1.2.2 (732a01da63, 2022-12-09)"
   sodipodi:docname="GMTK2025.svg"
   xml:space="preserve"
   xmlns:inkscape="http://www.inkscape.org/namespaces/inkscape"
   xmlns:sodipodi="http://sodipodi.sourceforge.net/DTD/sodipodi-0.dtd"
   xmlns="http://www.w3.org/2000/svg"
   xmlns:svg="http://www.w3.org/2000/svg"><sodipodi:namedview
     id="namedview7"
     pagecolor="#ffffff"
     bordercolor="#000000"
     borderopacity="0.25"
     inkscape:showpageshadow="2"
     inkscape:pageopacity="0.0"
     inkscape:pagecheckerboard="true"
     inkscape:deskcolor="#d1d1d1"
     inkscape:document-units="px"
     showgrid="false"
     inkscape:zoom="2.3533766"
     inkscape:cx="273.64936"
     inkscape:cy="468.68826"
     inkscape:window-width="2560"
     inkscape:window-height="1494"
     inkscape:window-x="-11"
     inkscape:window-y="-11"
     inkscape:window-maximized="1"
     inkscape:current-layer="layer1" /><defs
     id="defs2" /><g
     inkscape:groupmode="layer"
     id="layer2"
     inkscape:label="MainScreen"
     transform="translate(-85.531694,-141.92517)"><g
       inkscape:groupmode="layer"
       id="layer1"
       inkscape:label="StatusScreen"
       style="display:inline"><g
         id="g1174"
         inkscape:label="PonyStatus"
         style="display:inline;fill:#ffffff;stroke:#ffffff"
         inkscape:export-filename="Assets\PonyStatus.svg"
         inkscape:export-xdpi="96"
         inkscape:export-ydpi="96"><path
           style="fill:#ffffff;stroke:#ffffff;stroke-width:0.79375;stroke-linecap:round;stroke-linejoin:round;stroke-dasharray:none"
           d="m 119.45937,151.5401 c -0.0427,-0.13354 0.0537,-1.57859 0.008,-2.86538 -0.0456,-1.28679 -0.2066,-2.32707 -0.2066,-2.32707 0,0 2.26896,2.28953 5.01055,3.72071 2.74159,1.43117 5.41507,2.02535 5.37434,2.00091 0,0 -0.60038,1.06015 -1.8455,2.22231 -1.24511,1.16215 -2.18899,1.61564 -2.35476,1.58107 -0.13351,-0.0278 -2.5643,-1.6806 -3.06678,-2.07527 -0.50248,-0.39467 -2.83787,-2.00242 -2.91942,-2.25728 z"
           id="path608"
           sodipodi:nodetypes="szczczszs"
           inkscape:export-filename="Status\Status_legs_new.svg"
           inkscape:export-xdpi="96"
           inkscape:export-ydpi="96" /><path
           style="fill:#ffffff;stroke:#ffffff;stroke-width:0.79375;stroke-linecap:round;stroke-linejoin:round;stroke-dasharray:none"
           d="m 86.740645,150.0822 c -0.220582,0.2228 -0.522328,1.00697 -0.672708,1.91048 -0.199396,1.198 -0.190293,2.55261 0.06301,2.56594 0.444337,0.0234 4.500909,-1.97391 6.127154,-3.08696 1.369316,-0.9372 2.869644,-2.61308 3.045135,-2.94215 0.111482,-0.20904 0.283959,-1.59309 0.494432,-1.5697 0.210476,0.0234 2.218255,-0.80972 2.218255,-0.80972 0,0 -0.20365,-1.07385 -0.396585,-1.82805 -0.122777,-0.74835 -0.374155,-2.00018 -0.374155,-2.00018 l -0.532033,3.4319 c 0,0 -1.180997,-0.76004 -1.695489,-0.45603 -0.514496,0.30402 -2.524246,1.91602 -3.975635,2.85311 -1.33,0.85871 -3.601229,1.54176 -4.301378,1.93136 z"
           id="path1166"
           sodipodi:nodetypes="csssssccccssc" /><path
           style="display:inline;fill:#ffffff;stroke:#ffffff;stroke-width:0.79375;stroke-linecap:round;stroke-linejoin:round;stroke-dasharray:none"
           d="m 116.79028,143.86582 c 0.20177,-0.11731 1.09121,-0.62896 1.37322,0.0788 0.0702,0.71328 0.86512,9.24744 -0.27886,10.92921 -1.24306,1.82744 -4.33648,-2.65383 -4.37653,-3.70584 -0.0392,-1.02915 1.66831,-3.87782 1.66831,-3.87782 0,0 -2.86908,0.5209 -3.24115,0.29766 -0.53743,-0.50436 -0.21501,-0.62371 -0.21501,-0.62371 1.23398,-0.30268 2.08157,-0.66422 2.86165,-1.16384 0.70318,-0.45036 1.38132,-1.20172 2.20837,-1.93448 z"
           id="path322"
           sodipodi:nodetypes="ccsscccsc" /><path
           style="display:inline;fill:#ffffff;stroke:#ffffff;stroke-width:0.79375;stroke-linecap:round;stroke-linejoin:round;stroke-dasharray:none"
           d="m 95.526544,159.2341 c -0.06805,-0.22224 -0.01573,-3.33459 0.26509,-6.23732 0.260228,-2.68989 0.748209,-5.19392 0.748209,-5.19392 l 2.645833,-0.89297 c 0,0 -0.141358,-0.97114 -0.532547,-1.95837 0.263856,0.57452 2.151781,1.66139 2.151781,1.66139 0,0 1.84092,0.68649 2.54144,0.6713 -0.54832,1.06267 -2.80469,1.70928 -3.03621,2.1723 -0.23151,0.46302 -0.825549,3.51344 -0.538849,5.54328 0.413409,2.92695 2.017449,4.40668 1.620579,4.8697 -0.39688,0.46302 -1.517262,0.60665 -3.050395,0.62569 -1.533133,0.019 -2.683823,-0.83286 -2.814931,-1.26105 z"
           id="path326"
           sodipodi:nodetypes="sscccccsszzss" /></g></g></g></svg>
