<?xml version="1.0" encoding="UTF-8" standalone="no"?>
<!-- Created with Inkscape (http://www.inkscape.org/) -->

<svg
   width="1152"
   height="648"
   viewBox="0 0 304.79999 171.45"
   version="1.1"
   id="svg1"
   inkscape:version="1.4 (86a8ad7, 2024-10-11)"
   sodipodi:docname="GMTK2025.svg"
   xml:space="preserve"
   xmlns:inkscape="http://www.inkscape.org/namespaces/inkscape"
   xmlns:sodipodi="http://sodipodi.sourceforge.net/DTD/sodipodi-0.dtd"
   xmlns="http://www.w3.org/2000/svg"
   xmlns:svg="http://www.w3.org/2000/svg"><sodipodi:namedview
     id="namedview1"
     pagecolor="#ffffff"
     bordercolor="#000000"
     borderopacity="0.25"
     inkscape:showpageshadow="2"
     inkscape:pageopacity="0.0"
     inkscape:pagecheckerboard="0"
     inkscape:deskcolor="#d1d1d1"
     inkscape:document-units="px"
     inkscape:zoom="0.98646753"
     inkscape:cx="599.61426"
     inkscape:cy="317.80063"
     inkscape:window-width="1920"
     inkscape:window-height="1001"
     inkscape:window-x="-9"
     inkscape:window-y="-9"
     inkscape:window-maximized="1"
     inkscape:current-layer="layer1"><inkscape:page
       x="0"
       y="0"
       width="304.79999"
       height="171.45"
       id="page2"
       margin="0"
       bleed="0" /></sodipodi:namedview><defs
     id="defs1" /><g
     id="layer2"
     inkscape:label="Race"
     transform="matrix(0.97161855,0,0,0.93590716,8.7879003,0.53646917)"><g
       inkscape:groupmode="layer"
       id="layer3"
       inkscape:label="Race"
       style="opacity:1;fill:#53a2c7;fill-opacity:1"><rect
         style="opacity:1;fill:#56a3bf;fill-opacity:1;stroke:#447821;stroke-width:0.144462"
         id="rect1"
         width="320.51721"
         height="189.27586"
         x="-9.067667"
         y="-1.694309"
         sodipodi:insensitive="true"
         inkscape:label="Sky" /><g
         id="g9"
         inkscape:label="Sun"
         style="opacity:1;fill:#53a2c7;fill-opacity:1"><path
           style="opacity:1;fill:#fab567;fill-opacity:1;stroke:#fab567;stroke-width:2.77459;stroke-dasharray:none;stroke-opacity:1"
           d="M 13.988422,21.312252 31.555981,64.272598 61.225633,62.246166 21.405834,15.232958 129.54392,31.44441 187.71205,29.417978 26.871298,6.3166592 224.79912,-6.2472159 213.4778,-26.51153 22.967396,-5.4366432 Z"
           id="path9" /><ellipse
           style="opacity:1;fill:#fef2b6;fill-opacity:1;stroke:#fcd079;stroke-width:5.54917;stroke-dasharray:none;stroke-opacity:1"
           id="path3"
           cx="7.7421784"
           cy="6.1140161"
           rx="26.691744"
           ry="27.762238" /></g><rect
         style="fill:#80ac40;fill-opacity:1;stroke:#447821;stroke-width:0.151492"
         id="rect2"
         width="339.63947"
         height="150.76651"
         x="-21.927475"
         y="42.387138"
         sodipodi:insensitive="true"
         inkscape:label="Grass" /><g
         id="g8"
         inkscape:label="Mountains"
         sodipodi:insensitive="true"
         style="display:inline"><path
           style="fill:#7092b0;fill-opacity:1;stroke:none;stroke-width:0.151492"
           d="m -30.125669,70.351893 c 0,-2.431717 68.708673,-16.21145 98.378325,-21.074887 29.669655,-4.863436 102.672624,-8.105726 136.246174,-3.24229 33.57356,4.863437 49.18917,-3.24229 84.32428,14.995592 35.13513,18.237884 47.6276,33.099346 49.18917,33.504631 1.56155,0.405288 15.97598,-86.2145272 -7.8078,-87.0024209 C 309.12955,6.8343614 286.99363,31.612283 282.57687,31.039122 275.67568,28.173315 273.0123,8.3430908 253.2976,7.9378045 c -30.25524,0 -34.7592,19.4895615 -40.99097,19.0484555 -8.58858,-0.607929 -25.57475,-22.2486321 -42.09179,-21.4310038 -25.89521,1.2818676 -21.22176,23.0521488 -33.6439,23.0521488 -5.2449,0 -4.9385,-19.6014521 -30.06005,-19.4537416 C 81.119254,10.702844 89.748496,35.734685 75.670071,36.307846 65.732359,36.021265 69.113305,8.8670827 49.51393,9.1536634 36.944433,12.340664 29.221128,36.643214 23.748177,37.523705 18.748668,38.328029 10.507414,20.739091 -8.2638187,21.312252 -20.962006,25.324382 -30.125669,70.351893 -30.125669,70.351893 Z"
           id="path2"
           sodipodi:nodetypes="csssssccssccccscc"
           inkscape:label="path2" /><path
           style="opacity:1;fill:#ffffff;fill-opacity:1;stroke:#ffffff;stroke-width:1.38729;stroke-dasharray:none;stroke-opacity:1"
           d="m -16.02664,30.080742 c 2.14801,-4.033642 4.079029,-6.851484 7.6262335,-8.230502 4.713946,-2.022121 8.85098891,0.618347 11.6170835,1.69639 2.7660945,1.078044 8.367473,4.624224 9.99201,7.722403 -2.566443,4.583402 -6.9071076,0.593844 -10.8663249,-0.533302 -0.2262277,-0.04944 -0.4597303,-0.05171 -0.6901188,-0.07165 -0.068773,-0.0059 -0.1582369,-0.05066 -0.2070357,0 -0.058649,0.06089 -0.09535,0.141099 -0.1380238,0.214936 -0.042673,0.07384 -0.1205931,0.130752 -0.1380237,0.214936 C 0.71984332,33.264009 3.56219,39.248754 0.61706492,37.90024 0.41850247,37.809322 0.25411831,37.652468 0.06496989,37.542014 -3.3436253,35.551517 -3.2566076,33.269367 -5.6309633,33.7622 c -2.4393502,0.50586 1.410775,8.357371 -4.172767,9.439786 -2.0223457,-0.419895 -0.1056497,-4.903675 -5.9350227,-5.731619 -2.280594,-0.373828 -3.027412,4.087628 -4.244224,4.442001 -0.631067,0.391847 -0.668085,-0.795224 -0.640304,-1.306997 1.554411,-5.951966 2.448632,-6.490987 4.596641,-10.524629 z"
           id="path8"
           sodipodi:nodetypes="zzzsscssssscssccz" /><path
           style="fill:#ffffff;fill-opacity:1;stroke:#ffffff;stroke-width:1.22511;stroke-dasharray:none;stroke-opacity:1"
           d="m 42.307338,10.517483 c 2.343254,-3.396963 4.303122,-5.6602937 7.214318,-6.1045547 3.90313,-0.7757197 6.527468,2.8611093 8.406874,4.6205165 1.879406,1.7594082 5.437891,6.6552562 6.094394,10.0991652 -2.756899,3.827909 -5.289196,-1.180127 -8.054726,-3.29172 -0.160736,-0.106022 -0.335489,-0.167769 -0.5047,-0.246003 -0.05052,-0.0233 -0.10951,-0.08987 -0.155309,-0.05279 -0.05504,0.04459 -0.09713,0.113675 -0.14254,0.175002 -0.04541,0.06133 -0.114189,0.09712 -0.14254,0.175002 -0.730815,2.007587 0.315477,8.584776 -1.649154,6.515231 -0.132457,-0.139533 -0.22731,-0.334828 -0.34916,-0.491064 -2.195821,-2.815504 -1.716451,-5.025072 -3.587024,-5.148426 -1.921693,-0.127186 -0.458127,8.532461 -4.843085,8.167537 -1.440896,-0.926187 0.810511,-4.822316 -3.412227,-7.118081 -1.642981,-0.946974 -3.012741,3.225567 -3.989848,3.261908 -0.544501,0.222313 -0.356878,-0.94798 -0.243177,-1.441369 2.246037,-5.424251 3.014651,-5.723401 5.357904,-9.120365 z"
           id="path8-1"
           sodipodi:nodetypes="zzzsscssssscssccz" /><path
           style="fill:#ffffff;fill-opacity:1;stroke:#ffffff;stroke-width:1.43101;stroke-dasharray:none;stroke-opacity:1"
           d="m 94.195074,13.716062 c 3.533506,-3.015296 5.70877,-4.4106012 10.412596,-5.0080212 6.29157,-0.951145 10.86752,1.8768782 14.07433,3.1974632 3.20678,1.320584 9.4086,5.125631 10.76397,7.946204 -4.17128,3.406896 -8.71132,-0.571704 -13.39041,-2.11688 -0.27056,-0.07587 -0.56028,-0.11374 -0.84233,-0.165785 -0.0842,-0.0155 -0.1858,-0.06641 -0.2573,-0.0319 -0.086,0.04147 -0.14866,0.102369 -0.21757,0.15704 -0.0689,0.05468 -0.17788,0.08989 -0.21757,0.157042 -1.02322,1.731033 1.22738,7.133951 -2.14398,5.561396 -0.2273,-0.106023 -0.398,-0.261478 -0.60941,-0.382257 -3.80986,-2.17656 -3.2129,-4.056415 -6.26928,-4.013439 -3.13997,0.04376 -0.0367,7.15064 -7.207807,7.188208 -2.423425,-0.659978 1.057045,-3.547013 -2.559755,-4.558992 -2.729601,-0.763741 -5.880196,3.784313 -7.468346,3.890794 -0.868218,0.227831 -1.522615,-1.26418 -1.378471,-1.684464 0.756738,-2.333912 3.777835,-7.12111 7.311333,-10.136409 z"
           id="path8-7"
           sodipodi:nodetypes="zzzsscssssscssccz" /><path
           style="fill:#ffffff;fill-opacity:1;stroke:#ffffff;stroke-width:1.47041;stroke-dasharray:none;stroke-opacity:1"
           d="m 153.37511,11.978389 c 3.41924,-3.3902844 8.38678,-5.5475652 13.89128,-6.0118209 7.36921,-0.7587259 11.12547,1.663204 14.80244,2.9120327 3.67695,1.2488282 10.73326,4.7974122 12.18827,7.3748332 -5.00733,3.018158 -10.12064,-0.660463 -15.50249,-2.136846 -0.31179,-0.07317 -0.64754,-0.112208 -0.97376,-0.163972 -0.0974,-0.01542 -0.21349,-0.0632 -0.29827,-0.03311 -0.10191,0.03617 -0.17762,0.09031 -0.26027,0.138709 -0.0827,0.04841 -0.21111,0.07852 -0.26029,0.138708 -1.26751,1.551453 1.117,6.482945 -2.74059,5.003158 -0.26006,-0.09977 -0.45206,-0.243393 -0.693,-0.356271 -4.34183,-2.03415 -3.56423,-3.7274 -7.12576,-3.738477 -3.6589,-0.01173 -1.32219,6.477381 -4.77578,6.752306 -2.85189,0.227025 0.42108,-5.404586 -1.87455,-6.311446 -4.17931,-1.650974 -12.24758,6.932457 -12.21174,5.074553 0.0758,-1.982776 2.41528,-5.252072 5.83451,-8.642357 z"
           id="path8-3"
           sodipodi:nodetypes="zzzsscssssscsscz" /><path
           style="fill:#ffffff;fill-opacity:1;stroke:#ffffff;stroke-width:1.80578;stroke-dasharray:none;stroke-opacity:1"
           d="m 234.47558,11.726481 c 5.64064,-2.9562742 10.89746,-4.6132303 16.91814,-4.3606591 8.1192,0.151427 12.49122,4.5760931 15.84315,6.8662891 3.35192,2.290192 9.28948,8.25291 9.72076,11.994125 -6.59227,3.302752 -10.41917,-2.524762 -15.47629,-5.398523 -0.29829,-0.14966 -0.63658,-0.256733 -0.95934,-0.379585 -0.0963,-0.03664 -0.1986,-0.120306 -0.30118,-0.09298 -0.12342,0.03283 -0.22666,0.09436 -0.33487,0.146939 -0.10813,0.05262 -0.25699,0.07295 -0.33484,0.146946 -2.00705,1.907641 -1.60429,9.001707 -5.048,6.368193 -0.23217,-0.177553 -0.37349,-0.403846 -0.5798,-0.596164 -3.71762,-3.465708 -2.16775,-5.645021 -5.92943,-6.232288 -3.86436,-0.603795 -3.15965,8.757478 -11.95792,7.302061 -2.68035,-1.316412 2.9045,-4.814132 -5.06,-8.236944 -3.0848,-1.387613 -6.95373,2.613805 -8.945,2.411804 -1.16248,0.0975 -0.476,-1.073046 -0.11642,-1.558046 5.97341,-5.087596 12.56104,-8.381168 12.56104,-8.381168 z"
           id="path8-34"
           sodipodi:nodetypes="zzzsscssssscssccz" /><path
           style="fill:#ffffff;fill-opacity:1;stroke:#ffffff;stroke-width:1.67184;stroke-dasharray:none;stroke-opacity:1"
           d="m 312.37117,12.190065 c 5.21577,-2.7438897 9.44005,-4.4827217 15.01736,-4.2575785 7.52072,0.1285453 11.58339,4.2170415 14.69486,6.3316815 3.11146,2.114637 8.62875,7.624265 9.0393,11.085898 -6.09617,3.065892 -9.65807,-2.321626 -14.35068,-4.973885 -0.27674,-0.138075 -0.59039,-0.236681 -0.8897,-0.349911 -0.0894,-0.03376 -0.18431,-0.111053 -0.27926,-0.08562 -0.11416,0.03055 -0.20965,0.08764 -0.30972,0.136463 -0.1,0.04883 -0.23781,0.06787 -0.30971,0.136467 -1.85334,1.768261 -1.45922,8.332777 -4.65672,5.90055 -0.21558,-0.163983 -0.34715,-0.373201 -0.5388,-0.550883 -3.45368,-3.201979 -2.02459,-5.221003 -5.51054,-5.759109 -3.5811,-0.553256 -2.90058,8.108982 -11.05416,6.774648 -2.48654,-1.214426 2.67596,-4.459309 -4.71121,-7.615527 -2.86136,-1.27974 -6.433,2.428832 -8.27801,2.244735 -1.07643,0.09188 -0.44407,-0.992353 -0.11253,-1.441702 5.51767,-4.716764 7.03366,-4.83234 12.24944,-7.576231 z"
           id="path8-8"
           sodipodi:nodetypes="zzzsscssssscssccz" /></g><g
         id="g5"
         inkscape:label="Track"
         transform="matrix(1.0012119,0,0,0.93726359,-2.1174638,6.7093564)"
         style="stroke-width:5.72841;stroke-dasharray:none"><path
           style="fill:none;fill-opacity:1;stroke:#cede68;stroke-width:5.72841;stroke-dasharray:none;stroke-opacity:1"
           d="m 70.985388,60.219737 c 7.858717,-2.518627 40.368962,-4.841654 73.743732,-5.826208 30.16674,-0.889917 60.66631,1.190515 66.33937,1.926817 11.9494,1.550904 29.69501,-1.956894 41.88608,20.536493 14.56046,26.865071 -5.44456,30.011811 -24.35776,30.286211 -18.91321,0.2744 -139.673334,1.86698 -152.126342,2.2842 -12.453007,0.41722 -32.13529,-2.06854 -28.5181,-26.916768 2.307211,-15.849347 10.1668,-18.167272 23.03302,-22.290745 z"
           id="path4"
           sodipodi:nodetypes="sssszzss" /><path
           style="fill:none;fill-opacity:1;stroke:#cede68;stroke-width:2.65335;stroke-dasharray:none;stroke-opacity:1"
           d="m 74.241293,108.71393 c 0,0 13.275903,-15.709675 21.849924,-15.955139 8.574023,-0.245462 35.402403,-0.981854 38.721383,-0.981854 3.31897,0 22.95625,17.182453 22.95625,17.182453"
           id="path5" /></g></g></g></svg>
